<?xml version="1.0" encoding="UTF-8"?>
<svg xmlns="http://www.w3.org/2000/svg" width="850" height="1100" viewBox="0 0 850 1100" role="img" aria-label="FAB-WH-001 Inspection QR">
  <rect width="100%" height="100%" rx="34" fill="#ffffff"/>
  <rect x="0" y="0" width="850" height="116" rx="34" fill="#0b7fc3"/>
  <text x="64" y="75" font-family="Arial, Helvetica, sans-serif" font-size="34" font-weight="800" fill="#ffffff">TAMCO</text>
  <text x="786" y="52" text-anchor="end" font-family="Arial, Helvetica, sans-serif" font-size="18" font-weight="700" fill="#dff4ff">First Aid Box</text>
  <text x="786" y="78" text-anchor="end" font-family="Arial, Helvetica, sans-serif" font-size="16" fill="#dff4ff">QR access label</text>

  <text x="64" y="157" font-family="Arial, Helvetica, sans-serif" font-size="32" font-weight="800" fill="#0f172a">FAB-WH-001 Inspection QR</text>
  <text x="64" y="188" font-family="Arial, Helvetica, sans-serif" font-size="18" fill="#475569">Scan to complete the monthly first aid box inspection.</text>

  <rect x="136" y="185" width="579" height="579" rx="22" fill="#f8fafc" stroke="#cbd5e1" stroke-width="2"/>
  <rect x="156" y="205" width="539" height="539" fill="#ffffff"/>
  <path d="M200,249h11v11h-11zM211,249h11v11h-11zM222,249h11v11h-11zM233,249h11v11h-11zM244,249h11v11h-11zM255,249h11v11h-11zM266,249h11v11h-11zM299,249h11v11h-11zM310,249h11v11h-11zM332,249h11v11h-11zM343,249h11v11h-11zM354,249h11v11h-11zM376,249h11v11h-11zM409,249h11v11h-11zM420,249h11v11h-11zM431,249h11v11h-11zM453,249h11v11h-11zM464,249h11v11h-11zM497,249h11v11h-11zM508,249h11v11h-11zM519,249h11v11h-11zM541,249h11v11h-11zM552,249h11v11h-11zM574,249h11v11h-11zM585,249h11v11h-11zM596,249h11v11h-11zM607,249h11v11h-11zM618,249h11v11h-11zM629,249h11v11h-11zM640,249h11v11h-11zM200,260h11v11h-11zM266,260h11v11h-11zM288,260h11v11h-11zM299,260h11v11h-11zM321,260h11v11h-11zM332,260h11v11h-11zM354,260h11v11h-11zM365,260h11v11h-11zM387,260h11v11h-11zM409,260h11v11h-11zM420,260h11v11h-11zM442,260h11v11h-11zM453,260h11v11h-11zM475,260h11v11h-11zM497,260h11v11h-11zM530,260h11v11h-11zM541,260h11v11h-11zM552,260h11v11h-11zM574,260h11v11h-11zM640,260h11v11h-11zM200,271h11v11h-11zM222,271h11v11h-11zM233,271h11v11h-11zM244,271h11v11h-11zM266,271h11v11h-11zM299,271h11v11h-11zM310,271h11v11h-11zM321,271h11v11h-11zM365,271h11v11h-11zM420,271h11v11h-11zM431,271h11v11h-11zM442,271h11v11h-11zM464,271h11v11h-11zM519,271h11v11h-11zM530,271h11v11h-11zM552,271h11v11h-11zM574,271h11v11h-11zM596,271h11v11h-11zM607,271h11v11h-11zM618,271h11v11h-11zM640,271h11v11h-11zM200,282h11v11h-11zM222,282h11v11h-11zM233,282h11v11h-11zM244,282h11v11h-11zM266,282h11v11h-11zM321,282h11v11h-11zM332,282h11v11h-11zM343,282h11v11h-11zM354,282h11v11h-11zM387,282h11v11h-11zM409,282h11v11h-11zM420,282h11v11h-11zM431,282h11v11h-11zM442,282h11v11h-11zM475,282h11v11h-11zM497,282h11v11h-11zM519,282h11v11h-11zM530,282h11v11h-11zM541,282h11v11h-11zM552,282h11v11h-11zM574,282h11v11h-11zM596,282h11v11h-11zM607,282h11v11h-11zM618,282h11v11h-11zM640,282h11v11h-11zM200,293h11v11h-11zM222,293h11v11h-11zM233,293h11v11h-11zM244,293h11v11h-11zM266,293h11v11h-11zM288,293h11v11h-11zM310,293h11v11h-11zM321,293h11v11h-11zM354,293h11v11h-11zM365,293h11v11h-11zM376,293h11v11h-11zM387,293h11v11h-11zM409,293h11v11h-11zM442,293h11v11h-11zM453,293h11v11h-11zM475,293h11v11h-11zM497,293h11v11h-11zM530,293h11v11h-11zM541,293h11v11h-11zM574,293h11v11h-11zM596,293h11v11h-11zM607,293h11v11h-11zM618,293h11v11h-11zM640,293h11v11h-11zM200,304h11v11h-11zM266,304h11v11h-11zM310,304h11v11h-11zM321,304h11v11h-11zM343,304h11v11h-11zM365,304h11v11h-11zM398,304h11v11h-11zM409,304h11v11h-11zM420,304h11v11h-11zM453,304h11v11h-11zM464,304h11v11h-11zM475,304h11v11h-11zM486,304h11v11h-11zM497,304h11v11h-11zM530,304h11v11h-11zM541,304h11v11h-11zM552,304h11v11h-11zM574,304h11v11h-11zM640,304h11v11h-11zM200,315h11v11h-11zM211,315h11v11h-11zM222,315h11v11h-11zM233,315h11v11h-11zM244,315h11v11h-11zM255,315h11v11h-11zM266,315h11v11h-11zM288,315h11v11h-11zM310,315h11v11h-11zM332,315h11v11h-11zM354,315h11v11h-11zM376,315h11v11h-11zM398,315h11v11h-11zM420,315h11v11h-11zM442,315h11v11h-11zM464,315h11v11h-11zM486,315h11v11h-11zM508,315h11v11h-11zM530,315h11v11h-11zM552,315h11v11h-11zM574,315h11v11h-11zM585,315h11v11h-11zM596,315h11v11h-11zM607,315h11v11h-11zM618,315h11v11h-11zM629,315h11v11h-11zM640,315h11v11h-11zM321,326h11v11h-11zM332,326h11v11h-11zM354,326h11v11h-11zM365,326h11v11h-11zM387,326h11v11h-11zM431,326h11v11h-11zM453,326h11v11h-11zM475,326h11v11h-11zM486,326h11v11h-11zM508,326h11v11h-11zM519,326h11v11h-11zM541,326h11v11h-11zM552,326h11v11h-11zM200,337h11v11h-11zM222,337h11v11h-11zM244,337h11v11h-11zM266,337h11v11h-11zM299,337h11v11h-11zM310,337h11v11h-11zM343,337h11v11h-11zM365,337h11v11h-11zM376,337h11v11h-11zM387,337h11v11h-11zM420,337h11v11h-11zM431,337h11v11h-11zM453,337h11v11h-11zM464,337h11v11h-11zM475,337h11v11h-11zM497,337h11v11h-11zM508,337h11v11h-11zM519,337h11v11h-11zM552,337h11v11h-11zM596,337h11v11h-11zM629,337h11v11h-11zM200,348h11v11h-11zM233,348h11v11h-11zM244,348h11v11h-11zM299,348h11v11h-11zM321,348h11v11h-11zM332,348h11v11h-11zM343,348h11v11h-11zM354,348h11v11h-11zM376,348h11v11h-11zM387,348h11v11h-11zM398,348h11v11h-11zM420,348h11v11h-11zM464,348h11v11h-11zM475,348h11v11h-11zM519,348h11v11h-11zM552,348h11v11h-11zM574,348h11v11h-11zM585,348h11v11h-11zM607,348h11v11h-11zM618,348h11v11h-11zM640,348h11v11h-11zM211,359h11v11h-11zM244,359h11v11h-11zM255,359h11v11h-11zM266,359h11v11h-11zM277,359h11v11h-11zM288,359h11v11h-11zM299,359h11v11h-11zM332,359h11v11h-11zM343,359h11v11h-11zM431,359h11v11h-11zM486,359h11v11h-11zM508,359h11v11h-11zM519,359h11v11h-11zM530,359h11v11h-11zM574,359h11v11h-11zM585,359h11v11h-11zM596,359h11v11h-11zM618,359h11v11h-11zM640,359h11v11h-11zM200,370h11v11h-11zM211,370h11v11h-11zM233,370h11v11h-11zM244,370h11v11h-11zM299,370h11v11h-11zM310,370h11v11h-11zM321,370h11v11h-11zM343,370h11v11h-11zM387,370h11v11h-11zM409,370h11v11h-11zM431,370h11v11h-11zM453,370h11v11h-11zM464,370h11v11h-11zM475,370h11v11h-11zM486,370h11v11h-11zM497,370h11v11h-11zM508,370h11v11h-11zM519,370h11v11h-11zM552,370h11v11h-11zM585,370h11v11h-11zM211,381h11v11h-11zM222,381h11v11h-11zM233,381h11v11h-11zM244,381h11v11h-11zM255,381h11v11h-11zM266,381h11v11h-11zM288,381h11v11h-11zM321,381h11v11h-11zM343,381h11v11h-11zM365,381h11v11h-11zM376,381h11v11h-11zM387,381h11v11h-11zM398,381h11v11h-11zM409,381h11v11h-11zM420,381h11v11h-11zM431,381h11v11h-11zM453,381h11v11h-11zM475,381h11v11h-11zM508,381h11v11h-11zM519,381h11v11h-11zM541,381h11v11h-11zM552,381h11v11h-11zM574,381h11v11h-11zM607,381h11v11h-11zM640,381h11v11h-11zM200,392h11v11h-11zM222,392h11v11h-11zM233,392h11v11h-11zM255,392h11v11h-11zM310,392h11v11h-11zM321,392h11v11h-11zM387,392h11v11h-11zM409,392h11v11h-11zM420,392h11v11h-11zM431,392h11v11h-11zM442,392h11v11h-11zM453,392h11v11h-11zM475,392h11v11h-11zM486,392h11v11h-11zM497,392h11v11h-11zM508,392h11v11h-11zM519,392h11v11h-11zM541,392h11v11h-11zM574,392h11v11h-11zM607,392h11v11h-11zM640,392h11v11h-11zM222,403h11v11h-11zM233,403h11v11h-11zM266,403h11v11h-11zM277,403h11v11h-11zM288,403h11v11h-11zM299,403h11v11h-11zM310,403h11v11h-11zM321,403h11v11h-11zM332,403h11v11h-11zM343,403h11v11h-11zM354,403h11v11h-11zM365,403h11v11h-11zM376,403h11v11h-11zM398,403h11v11h-11zM409,403h11v11h-11zM420,403h11v11h-11zM442,403h11v11h-11zM486,403h11v11h-11zM497,403h11v11h-11zM508,403h11v11h-11zM530,403h11v11h-11zM574,403h11v11h-11zM585,403h11v11h-11zM607,403h11v11h-11zM640,403h11v11h-11zM200,414h11v11h-11zM222,414h11v11h-11zM233,414h11v11h-11zM244,414h11v11h-11zM255,414h11v11h-11zM288,414h11v11h-11zM310,414h11v11h-11zM321,414h11v11h-11zM354,414h11v11h-11zM387,414h11v11h-11zM398,414h11v11h-11zM420,414h11v11h-11zM431,414h11v11h-11zM442,414h11v11h-11zM453,414h11v11h-11zM475,414h11v11h-11zM486,414h11v11h-11zM508,414h11v11h-11zM519,414h11v11h-11zM530,414h11v11h-11zM541,414h11v11h-11zM574,414h11v11h-11zM596,414h11v11h-11zM211,425h11v11h-11zM233,425h11v11h-11zM266,425h11v11h-11zM332,425h11v11h-11zM343,425h11v11h-11zM354,425h11v11h-11zM387,425h11v11h-11zM398,425h11v11h-11zM409,425h11v11h-11zM431,425h11v11h-11zM442,425h11v11h-11zM475,425h11v11h-11zM486,425h11v11h-11zM497,425h11v11h-11zM519,425h11v11h-11zM530,425h11v11h-11zM574,425h11v11h-11zM585,425h11v11h-11zM607,425h11v11h-11zM640,425h11v11h-11zM211,436h11v11h-11zM233,436h11v11h-11zM244,436h11v11h-11zM255,436h11v11h-11zM277,436h11v11h-11zM288,436h11v11h-11zM343,436h11v11h-11zM365,436h11v11h-11zM376,436h11v11h-11zM398,436h11v11h-11zM431,436h11v11h-11zM442,436h11v11h-11zM486,436h11v11h-11zM519,436h11v11h-11zM530,436h11v11h-11zM574,436h11v11h-11zM607,436h11v11h-11zM629,436h11v11h-11zM640,436h11v11h-11zM222,447h11v11h-11zM233,447h11v11h-11zM266,447h11v11h-11zM288,447h11v11h-11zM299,447h11v11h-11zM321,447h11v11h-11zM332,447h11v11h-11zM343,447h11v11h-11zM354,447h11v11h-11zM376,447h11v11h-11zM387,447h11v11h-11zM442,447h11v11h-11zM475,447h11v11h-11zM530,447h11v11h-11zM563,447h11v11h-11zM596,447h11v11h-11zM607,447h11v11h-11zM618,447h11v11h-11zM629,447h11v11h-11zM640,447h11v11h-11zM200,458h11v11h-11zM211,458h11v11h-11zM222,458h11v11h-11zM233,458h11v11h-11zM255,458h11v11h-11zM277,458h11v11h-11zM332,458h11v11h-11zM343,458h11v11h-11zM354,458h11v11h-11zM365,458h11v11h-11zM376,458h11v11h-11zM409,458h11v11h-11zM420,458h11v11h-11zM431,458h11v11h-11zM442,458h11v11h-11zM453,458h11v11h-11zM464,458h11v11h-11zM497,458h11v11h-11zM508,458h11v11h-11zM519,458h11v11h-11zM530,458h11v11h-11zM541,458h11v11h-11zM552,458h11v11h-11zM563,458h11v11h-11zM574,458h11v11h-11zM585,458h11v11h-11zM607,458h11v11h-11zM222,469h11v11h-11zM233,469h11v11h-11zM244,469h11v11h-11zM255,469h11v11h-11zM266,469h11v11h-11zM277,469h11v11h-11zM321,469h11v11h-11zM354,469h11v11h-11zM376,469h11v11h-11zM409,469h11v11h-11zM420,469h11v11h-11zM442,469h11v11h-11zM453,469h11v11h-11zM464,469h11v11h-11zM497,469h11v11h-11zM508,469h11v11h-11zM530,469h11v11h-11zM541,469h11v11h-11zM552,469h11v11h-11zM574,469h11v11h-11zM585,469h11v11h-11zM607,469h11v11h-11zM629,469h11v11h-11zM640,469h11v11h-11zM211,480h11v11h-11zM233,480h11v11h-11zM244,480h11v11h-11zM255,480h11v11h-11zM288,480h11v11h-11zM332,480h11v11h-11zM343,480h11v11h-11zM354,480h11v11h-11zM387,480h11v11h-11zM420,480h11v11h-11zM442,480h11v11h-11zM464,480h11v11h-11zM475,480h11v11h-11zM530,480h11v11h-11zM552,480h11v11h-11zM563,480h11v11h-11zM574,480h11v11h-11zM585,480h11v11h-11zM607,480h11v11h-11zM629,480h11v11h-11zM640,480h11v11h-11zM200,491h11v11h-11zM211,491h11v11h-11zM222,491h11v11h-11zM255,491h11v11h-11zM266,491h11v11h-11zM277,491h11v11h-11zM288,491h11v11h-11zM299,491h11v11h-11zM310,491h11v11h-11zM332,491h11v11h-11zM343,491h11v11h-11zM354,491h11v11h-11zM387,491h11v11h-11zM398,491h11v11h-11zM431,491h11v11h-11zM486,491h11v11h-11zM508,491h11v11h-11zM530,491h11v11h-11zM552,491h11v11h-11zM574,491h11v11h-11zM585,491h11v11h-11zM596,491h11v11h-11zM607,491h11v11h-11zM618,491h11v11h-11zM629,491h11v11h-11zM640,491h11v11h-11zM211,502h11v11h-11zM233,502h11v11h-11zM244,502h11v11h-11zM299,502h11v11h-11zM321,502h11v11h-11zM343,502h11v11h-11zM365,502h11v11h-11zM376,502h11v11h-11zM387,502h11v11h-11zM398,502h11v11h-11zM409,502h11v11h-11zM420,502h11v11h-11zM431,502h11v11h-11zM442,502h11v11h-11zM464,502h11v11h-11zM475,502h11v11h-11zM486,502h11v11h-11zM497,502h11v11h-11zM508,502h11v11h-11zM519,502h11v11h-11zM530,502h11v11h-11zM552,502h11v11h-11zM585,502h11v11h-11zM607,502h11v11h-11zM629,502h11v11h-11zM200,513h11v11h-11zM255,513h11v11h-11zM266,513h11v11h-11zM277,513h11v11h-11zM288,513h11v11h-11zM321,513h11v11h-11zM354,513h11v11h-11zM365,513h11v11h-11zM376,513h11v11h-11zM387,513h11v11h-11zM420,513h11v11h-11zM431,513h11v11h-11zM453,513h11v11h-11zM464,513h11v11h-11zM475,513h11v11h-11zM497,513h11v11h-11zM519,513h11v11h-11zM552,513h11v11h-11zM574,513h11v11h-11zM585,513h11v11h-11zM607,513h11v11h-11zM211,524h11v11h-11zM233,524h11v11h-11zM255,524h11v11h-11zM288,524h11v11h-11zM321,524h11v11h-11zM332,524h11v11h-11zM354,524h11v11h-11zM365,524h11v11h-11zM398,524h11v11h-11zM420,524h11v11h-11zM431,524h11v11h-11zM442,524h11v11h-11zM475,524h11v11h-11zM508,524h11v11h-11zM519,524h11v11h-11zM530,524h11v11h-11zM574,524h11v11h-11zM585,524h11v11h-11zM640,524h11v11h-11zM200,535h11v11h-11zM233,535h11v11h-11zM266,535h11v11h-11zM277,535h11v11h-11zM288,535h11v11h-11zM321,535h11v11h-11zM354,535h11v11h-11zM387,535h11v11h-11zM431,535h11v11h-11zM442,535h11v11h-11zM464,535h11v11h-11zM486,535h11v11h-11zM519,535h11v11h-11zM530,535h11v11h-11zM574,535h11v11h-11zM585,535h11v11h-11zM596,535h11v11h-11zM618,535h11v11h-11zM640,535h11v11h-11zM200,546h11v11h-11zM233,546h11v11h-11zM255,546h11v11h-11zM277,546h11v11h-11zM288,546h11v11h-11zM321,546h11v11h-11zM343,546h11v11h-11zM354,546h11v11h-11zM376,546h11v11h-11zM387,546h11v11h-11zM398,546h11v11h-11zM409,546h11v11h-11zM420,546h11v11h-11zM431,546h11v11h-11zM442,546h11v11h-11zM453,546h11v11h-11zM464,546h11v11h-11zM475,546h11v11h-11zM519,546h11v11h-11zM530,546h11v11h-11zM552,546h11v11h-11zM585,546h11v11h-11zM200,557h11v11h-11zM233,557h11v11h-11zM244,557h11v11h-11zM255,557h11v11h-11zM266,557h11v11h-11zM310,557h11v11h-11zM321,557h11v11h-11zM343,557h11v11h-11zM387,557h11v11h-11zM398,557h11v11h-11zM409,557h11v11h-11zM431,557h11v11h-11zM464,557h11v11h-11zM475,557h11v11h-11zM519,557h11v11h-11zM541,557h11v11h-11zM574,557h11v11h-11zM607,557h11v11h-11zM640,557h11v11h-11zM200,568h11v11h-11zM211,568h11v11h-11zM233,568h11v11h-11zM244,568h11v11h-11zM277,568h11v11h-11zM299,568h11v11h-11zM321,568h11v11h-11zM343,568h11v11h-11zM376,568h11v11h-11zM387,568h11v11h-11zM398,568h11v11h-11zM409,568h11v11h-11zM431,568h11v11h-11zM442,568h11v11h-11zM453,568h11v11h-11zM464,568h11v11h-11zM475,568h11v11h-11zM486,568h11v11h-11zM497,568h11v11h-11zM519,568h11v11h-11zM574,568h11v11h-11zM640,568h11v11h-11zM222,579h11v11h-11zM233,579h11v11h-11zM244,579h11v11h-11zM255,579h11v11h-11zM266,579h11v11h-11zM299,579h11v11h-11zM343,579h11v11h-11zM354,579h11v11h-11zM365,579h11v11h-11zM376,579h11v11h-11zM398,579h11v11h-11zM442,579h11v11h-11zM453,579h11v11h-11zM464,579h11v11h-11zM486,579h11v11h-11zM530,579h11v11h-11zM585,579h11v11h-11zM596,579h11v11h-11zM618,579h11v11h-11zM640,579h11v11h-11zM211,590h11v11h-11zM244,590h11v11h-11zM277,590h11v11h-11zM299,590h11v11h-11zM310,590h11v11h-11zM321,590h11v11h-11zM354,590h11v11h-11zM376,590h11v11h-11zM387,590h11v11h-11zM398,590h11v11h-11zM409,590h11v11h-11zM431,590h11v11h-11zM442,590h11v11h-11zM464,590h11v11h-11zM475,590h11v11h-11zM486,590h11v11h-11zM497,590h11v11h-11zM519,590h11v11h-11zM530,590h11v11h-11zM541,590h11v11h-11zM563,590h11v11h-11zM574,590h11v11h-11zM585,590h11v11h-11zM596,590h11v11h-11zM211,601h11v11h-11zM244,601h11v11h-11zM266,601h11v11h-11zM288,601h11v11h-11zM310,601h11v11h-11zM332,601h11v11h-11zM354,601h11v11h-11zM365,601h11v11h-11zM387,601h11v11h-11zM398,601h11v11h-11zM420,601h11v11h-11zM431,601h11v11h-11zM442,601h11v11h-11zM453,601h11v11h-11zM464,601h11v11h-11zM475,601h11v11h-11zM486,601h11v11h-11zM508,601h11v11h-11zM519,601h11v11h-11zM530,601h11v11h-11zM552,601h11v11h-11zM563,601h11v11h-11zM574,601h11v11h-11zM585,601h11v11h-11zM596,601h11v11h-11zM640,601h11v11h-11zM288,612h11v11h-11zM299,612h11v11h-11zM310,612h11v11h-11zM321,612h11v11h-11zM332,612h11v11h-11zM376,612h11v11h-11zM387,612h11v11h-11zM398,612h11v11h-11zM442,612h11v11h-11zM475,612h11v11h-11zM486,612h11v11h-11zM530,612h11v11h-11zM541,612h11v11h-11zM552,612h11v11h-11zM596,612h11v11h-11zM607,612h11v11h-11zM629,612h11v11h-11zM640,612h11v11h-11zM200,623h11v11h-11zM211,623h11v11h-11zM222,623h11v11h-11zM233,623h11v11h-11zM244,623h11v11h-11zM255,623h11v11h-11zM266,623h11v11h-11zM299,623h11v11h-11zM321,623h11v11h-11zM332,623h11v11h-11zM343,623h11v11h-11zM365,623h11v11h-11zM398,623h11v11h-11zM431,623h11v11h-11zM486,623h11v11h-11zM519,623h11v11h-11zM541,623h11v11h-11zM552,623h11v11h-11zM574,623h11v11h-11zM596,623h11v11h-11zM607,623h11v11h-11zM618,623h11v11h-11zM629,623h11v11h-11zM640,623h11v11h-11zM200,634h11v11h-11zM266,634h11v11h-11zM299,634h11v11h-11zM310,634h11v11h-11zM321,634h11v11h-11zM332,634h11v11h-11zM365,634h11v11h-11zM387,634h11v11h-11zM398,634h11v11h-11zM409,634h11v11h-11zM453,634h11v11h-11zM475,634h11v11h-11zM486,634h11v11h-11zM497,634h11v11h-11zM541,634h11v11h-11zM552,634h11v11h-11zM596,634h11v11h-11zM607,634h11v11h-11zM629,634h11v11h-11zM200,645h11v11h-11zM222,645h11v11h-11zM233,645h11v11h-11zM244,645h11v11h-11zM266,645h11v11h-11zM288,645h11v11h-11zM321,645h11v11h-11zM332,645h11v11h-11zM354,645h11v11h-11zM398,645h11v11h-11zM420,645h11v11h-11zM464,645h11v11h-11zM486,645h11v11h-11zM508,645h11v11h-11zM552,645h11v11h-11zM563,645h11v11h-11zM574,645h11v11h-11zM585,645h11v11h-11zM596,645h11v11h-11zM607,645h11v11h-11zM640,645h11v11h-11zM200,656h11v11h-11zM222,656h11v11h-11zM233,656h11v11h-11zM244,656h11v11h-11zM266,656h11v11h-11zM310,656h11v11h-11zM332,656h11v11h-11zM365,656h11v11h-11zM376,656h11v11h-11zM398,656h11v11h-11zM420,656h11v11h-11zM486,656h11v11h-11zM508,656h11v11h-11zM519,656h11v11h-11zM563,656h11v11h-11zM596,656h11v11h-11zM607,656h11v11h-11zM200,667h11v11h-11zM222,667h11v11h-11zM233,667h11v11h-11zM244,667h11v11h-11zM266,667h11v11h-11zM288,667h11v11h-11zM299,667h11v11h-11zM310,667h11v11h-11zM321,667h11v11h-11zM343,667h11v11h-11zM354,667h11v11h-11zM376,667h11v11h-11zM420,667h11v11h-11zM442,667h11v11h-11zM464,667h11v11h-11zM486,667h11v11h-11zM519,667h11v11h-11zM530,667h11v11h-11zM552,667h11v11h-11zM585,667h11v11h-11zM596,667h11v11h-11zM607,667h11v11h-11zM618,667h11v11h-11zM629,667h11v11h-11zM640,667h11v11h-11zM200,678h11v11h-11zM266,678h11v11h-11zM310,678h11v11h-11zM321,678h11v11h-11zM332,678h11v11h-11zM354,678h11v11h-11zM365,678h11v11h-11zM398,678h11v11h-11zM409,678h11v11h-11zM431,678h11v11h-11zM453,678h11v11h-11zM475,678h11v11h-11zM486,678h11v11h-11zM497,678h11v11h-11zM508,678h11v11h-11zM519,678h11v11h-11zM552,678h11v11h-11zM574,678h11v11h-11zM585,678h11v11h-11zM607,678h11v11h-11zM629,678h11v11h-11zM200,689h11v11h-11zM211,689h11v11h-11zM222,689h11v11h-11zM233,689h11v11h-11zM244,689h11v11h-11zM255,689h11v11h-11zM266,689h11v11h-11zM288,689h11v11h-11zM343,689h11v11h-11zM354,689h11v11h-11zM376,689h11v11h-11zM420,689h11v11h-11zM431,689h11v11h-11zM442,689h11v11h-11zM464,689h11v11h-11zM475,689h11v11h-11zM519,689h11v11h-11zM541,689h11v11h-11zM552,689h11v11h-11zM585,689h11v11h-11zM596,689h11v11h-11zM607,689h11v11h-11zM629,689h11v11h-11zM640,689h11v11h-11z" fill="#020617"/>

  <text x="64" y="835" font-family="Arial, Helvetica, sans-serif" font-size="28" font-weight="800" fill="#0f172a">FAB-WH-001</text>
  <text x="64" y="872" font-family="Arial, Helvetica, sans-serif" font-size="18" fill="#334155">Warehouse A First Aid Box</text>
  <text x="64" y="900" font-family="Arial, Helvetica, sans-serif" font-size="18" fill="#334155">Area: Warehouse</text>
  <text x="64" y="928" font-family="Arial, Helvetica, sans-serif" font-size="18" fill="#334155">Location: Warehouse A near forklift charging area</text>

  <rect x="64" y="965" width="722" height="78" rx="16" fill="#eff6ff"/>
  <text x="86" y="994" font-family="Arial, Helvetica, sans-serif" font-size="14" font-weight="700" fill="#1d4ed8">Encoded link</text>
  <text x="86" y="1022" font-family="Consolas, 'Courier New', monospace" font-size="13" fill="#0f172a">https://first-aid-box-inspection.vercel.app/inspect/11111111-1111-4111-8111-111111111111</text>
</svg>
