<?xml version="1.0" encoding="UTF-8"?>
<svg xmlns="http://www.w3.org/2000/svg" width="850" height="1100" viewBox="0 0 850 1100" role="img" aria-label="FAB-WH-001 Usage QR">
  <rect width="100%" height="100%" rx="34" fill="#ffffff"/>
  <rect x="0" y="0" width="850" height="116" rx="34" fill="#0b7fc3"/>
  <text x="64" y="75" font-family="Arial, Helvetica, sans-serif" font-size="34" font-weight="800" fill="#ffffff">TAMCO</text>
  <text x="786" y="52" text-anchor="end" font-family="Arial, Helvetica, sans-serif" font-size="18" font-weight="700" fill="#dff4ff">First Aid Box</text>
  <text x="786" y="78" text-anchor="end" font-family="Arial, Helvetica, sans-serif" font-size="16" fill="#dff4ff">QR access label</text>

  <text x="64" y="157" font-family="Arial, Helvetica, sans-serif" font-size="32" font-weight="800" fill="#0f172a">FAB-WH-001 Usage QR</text>
  <text x="64" y="188" font-family="Arial, Helvetica, sans-serif" font-size="18" fill="#475569">Scan to record items taken from this first aid box.</text>

  <rect x="136" y="185" width="579" height="579" rx="22" fill="#f8fafc" stroke="#cbd5e1" stroke-width="2"/>
  <rect x="156" y="205" width="539" height="539" fill="#ffffff"/>
  <path d="M200,249h11v11h-11zM211,249h11v11h-11zM222,249h11v11h-11zM233,249h11v11h-11zM244,249h11v11h-11zM255,249h11v11h-11zM266,249h11v11h-11zM310,249h11v11h-11zM365,249h11v11h-11zM376,249h11v11h-11zM398,249h11v11h-11zM409,249h11v11h-11zM420,249h11v11h-11zM442,249h11v11h-11zM453,249h11v11h-11zM464,249h11v11h-11zM486,249h11v11h-11zM497,249h11v11h-11zM508,249h11v11h-11zM530,249h11v11h-11zM541,249h11v11h-11zM552,249h11v11h-11zM574,249h11v11h-11zM585,249h11v11h-11zM596,249h11v11h-11zM607,249h11v11h-11zM618,249h11v11h-11zM629,249h11v11h-11zM640,249h11v11h-11zM200,260h11v11h-11zM266,260h11v11h-11zM288,260h11v11h-11zM299,260h11v11h-11zM332,260h11v11h-11zM365,260h11v11h-11zM376,260h11v11h-11zM387,260h11v11h-11zM409,260h11v11h-11zM420,260h11v11h-11zM453,260h11v11h-11zM464,260h11v11h-11zM475,260h11v11h-11zM486,260h11v11h-11zM497,260h11v11h-11zM508,260h11v11h-11zM519,260h11v11h-11zM541,260h11v11h-11zM552,260h11v11h-11zM574,260h11v11h-11zM640,260h11v11h-11zM200,271h11v11h-11zM222,271h11v11h-11zM233,271h11v11h-11zM244,271h11v11h-11zM266,271h11v11h-11zM321,271h11v11h-11zM332,271h11v11h-11zM365,271h11v11h-11zM376,271h11v11h-11zM398,271h11v11h-11zM420,271h11v11h-11zM442,271h11v11h-11zM464,271h11v11h-11zM486,271h11v11h-11zM508,271h11v11h-11zM552,271h11v11h-11zM574,271h11v11h-11zM596,271h11v11h-11zM607,271h11v11h-11zM618,271h11v11h-11zM640,271h11v11h-11zM200,282h11v11h-11zM222,282h11v11h-11zM233,282h11v11h-11zM244,282h11v11h-11zM266,282h11v11h-11zM321,282h11v11h-11zM332,282h11v11h-11zM365,282h11v11h-11zM376,282h11v11h-11zM409,282h11v11h-11zM453,282h11v11h-11zM464,282h11v11h-11zM486,282h11v11h-11zM497,282h11v11h-11zM541,282h11v11h-11zM552,282h11v11h-11zM574,282h11v11h-11zM596,282h11v11h-11zM607,282h11v11h-11zM618,282h11v11h-11zM640,282h11v11h-11zM200,293h11v11h-11zM222,293h11v11h-11zM233,293h11v11h-11zM244,293h11v11h-11zM266,293h11v11h-11zM288,293h11v11h-11zM310,293h11v11h-11zM343,293h11v11h-11zM354,293h11v11h-11zM365,293h11v11h-11zM376,293h11v11h-11zM387,293h11v11h-11zM409,293h11v11h-11zM442,293h11v11h-11zM453,293h11v11h-11zM475,293h11v11h-11zM486,293h11v11h-11zM497,293h11v11h-11zM541,293h11v11h-11zM574,293h11v11h-11zM596,293h11v11h-11zM607,293h11v11h-11zM618,293h11v11h-11zM640,293h11v11h-11zM200,304h11v11h-11zM266,304h11v11h-11zM299,304h11v11h-11zM310,304h11v11h-11zM321,304h11v11h-11zM332,304h11v11h-11zM354,304h11v11h-11zM365,304h11v11h-11zM398,304h11v11h-11zM409,304h11v11h-11zM420,304h11v11h-11zM453,304h11v11h-11zM464,304h11v11h-11zM475,304h11v11h-11zM486,304h11v11h-11zM497,304h11v11h-11zM530,304h11v11h-11zM541,304h11v11h-11zM552,304h11v11h-11zM574,304h11v11h-11zM640,304h11v11h-11zM200,315h11v11h-11zM211,315h11v11h-11zM222,315h11v11h-11zM233,315h11v11h-11zM244,315h11v11h-11zM255,315h11v11h-11zM266,315h11v11h-11zM288,315h11v11h-11zM310,315h11v11h-11zM332,315h11v11h-11zM354,315h11v11h-11zM376,315h11v11h-11zM398,315h11v11h-11zM420,315h11v11h-11zM442,315h11v11h-11zM464,315h11v11h-11zM486,315h11v11h-11zM508,315h11v11h-11zM530,315h11v11h-11zM552,315h11v11h-11zM574,315h11v11h-11zM585,315h11v11h-11zM596,315h11v11h-11zM607,315h11v11h-11zM618,315h11v11h-11zM629,315h11v11h-11zM640,315h11v11h-11zM321,326h11v11h-11zM365,326h11v11h-11zM376,326h11v11h-11zM387,326h11v11h-11zM420,326h11v11h-11zM431,326h11v11h-11zM453,326h11v11h-11zM464,326h11v11h-11zM475,326h11v11h-11zM486,326h11v11h-11zM508,326h11v11h-11zM519,326h11v11h-11zM541,326h11v11h-11zM552,326h11v11h-11zM200,337h11v11h-11zM222,337h11v11h-11zM244,337h11v11h-11zM266,337h11v11h-11zM299,337h11v11h-11zM321,337h11v11h-11zM343,337h11v11h-11zM387,337h11v11h-11zM409,337h11v11h-11zM420,337h11v11h-11zM431,337h11v11h-11zM464,337h11v11h-11zM475,337h11v11h-11zM497,337h11v11h-11zM508,337h11v11h-11zM519,337h11v11h-11zM552,337h11v11h-11zM596,337h11v11h-11zM629,337h11v11h-11zM211,348h11v11h-11zM244,348h11v11h-11zM255,348h11v11h-11zM277,348h11v11h-11zM310,348h11v11h-11zM332,348h11v11h-11zM354,348h11v11h-11zM365,348h11v11h-11zM387,348h11v11h-11zM398,348h11v11h-11zM420,348h11v11h-11zM431,348h11v11h-11zM464,348h11v11h-11zM475,348h11v11h-11zM519,348h11v11h-11zM552,348h11v11h-11zM574,348h11v11h-11zM585,348h11v11h-11zM607,348h11v11h-11zM618,348h11v11h-11zM640,348h11v11h-11zM211,359h11v11h-11zM222,359h11v11h-11zM266,359h11v11h-11zM277,359h11v11h-11zM332,359h11v11h-11zM343,359h11v11h-11zM354,359h11v11h-11zM376,359h11v11h-11zM387,359h11v11h-11zM398,359h11v11h-11zM431,359h11v11h-11zM442,359h11v11h-11zM486,359h11v11h-11zM508,359h11v11h-11zM519,359h11v11h-11zM530,359h11v11h-11zM574,359h11v11h-11zM585,359h11v11h-11zM596,359h11v11h-11zM618,359h11v11h-11zM640,359h11v11h-11zM200,370h11v11h-11zM222,370h11v11h-11zM244,370h11v11h-11zM255,370h11v11h-11zM277,370h11v11h-11zM288,370h11v11h-11zM310,370h11v11h-11zM321,370h11v11h-11zM387,370h11v11h-11zM409,370h11v11h-11zM431,370h11v11h-11zM442,370h11v11h-11zM453,370h11v11h-11zM464,370h11v11h-11zM475,370h11v11h-11zM486,370h11v11h-11zM497,370h11v11h-11zM508,370h11v11h-11zM519,370h11v11h-11zM552,370h11v11h-11zM585,370h11v11h-11zM211,381h11v11h-11zM233,381h11v11h-11zM266,381h11v11h-11zM277,381h11v11h-11zM321,381h11v11h-11zM332,381h11v11h-11zM343,381h11v11h-11zM365,381h11v11h-11zM387,381h11v11h-11zM409,381h11v11h-11zM431,381h11v11h-11zM453,381h11v11h-11zM464,381h11v11h-11zM475,381h11v11h-11zM508,381h11v11h-11zM519,381h11v11h-11zM541,381h11v11h-11zM574,381h11v11h-11zM607,381h11v11h-11zM640,381h11v11h-11zM200,392h11v11h-11zM211,392h11v11h-11zM222,392h11v11h-11zM277,392h11v11h-11zM299,392h11v11h-11zM310,392h11v11h-11zM354,392h11v11h-11zM376,392h11v11h-11zM453,392h11v11h-11zM464,392h11v11h-11zM486,392h11v11h-11zM508,392h11v11h-11zM574,392h11v11h-11zM607,392h11v11h-11zM640,392h11v11h-11zM233,403h11v11h-11zM244,403h11v11h-11zM255,403h11v11h-11zM266,403h11v11h-11zM277,403h11v11h-11zM321,403h11v11h-11zM332,403h11v11h-11zM354,403h11v11h-11zM376,403h11v11h-11zM574,403h11v11h-11zM585,403h11v11h-11zM607,403h11v11h-11zM640,403h11v11h-11zM200,414h11v11h-11zM233,414h11v11h-11zM255,414h11v11h-11zM288,414h11v11h-11zM310,414h11v11h-11zM354,414h11v11h-11zM365,414h11v11h-11zM376,414h11v11h-11zM387,414h11v11h-11zM398,414h11v11h-11zM409,414h11v11h-11zM420,414h11v11h-11zM431,414h11v11h-11zM442,414h11v11h-11zM453,414h11v11h-11zM475,414h11v11h-11zM486,414h11v11h-11zM508,414h11v11h-11zM519,414h11v11h-11zM530,414h11v11h-11zM541,414h11v11h-11zM574,414h11v11h-11zM596,414h11v11h-11zM200,425h11v11h-11zM211,425h11v11h-11zM233,425h11v11h-11zM244,425h11v11h-11zM266,425h11v11h-11zM277,425h11v11h-11zM310,425h11v11h-11zM321,425h11v11h-11zM332,425h11v11h-11zM365,425h11v11h-11zM376,425h11v11h-11zM387,425h11v11h-11zM398,425h11v11h-11zM409,425h11v11h-11zM431,425h11v11h-11zM442,425h11v11h-11zM475,425h11v11h-11zM486,425h11v11h-11zM497,425h11v11h-11zM519,425h11v11h-11zM530,425h11v11h-11zM574,425h11v11h-11zM585,425h11v11h-11zM607,425h11v11h-11zM629,425h11v11h-11zM200,436h11v11h-11zM211,436h11v11h-11zM222,436h11v11h-11zM244,436h11v11h-11zM299,436h11v11h-11zM310,436h11v11h-11zM321,436h11v11h-11zM343,436h11v11h-11zM354,436h11v11h-11zM376,436h11v11h-11zM387,436h11v11h-11zM398,436h11v11h-11zM442,436h11v11h-11zM475,436h11v11h-11zM486,436h11v11h-11zM519,436h11v11h-11zM530,436h11v11h-11zM574,436h11v11h-11zM607,436h11v11h-11zM629,436h11v11h-11zM640,436h11v11h-11zM200,447h11v11h-11zM211,447h11v11h-11zM244,447h11v11h-11zM255,447h11v11h-11zM266,447h11v11h-11zM288,447h11v11h-11zM299,447h11v11h-11zM321,447h11v11h-11zM343,447h11v11h-11zM398,447h11v11h-11zM530,447h11v11h-11zM563,447h11v11h-11zM596,447h11v11h-11zM607,447h11v11h-11zM618,447h11v11h-11zM629,447h11v11h-11zM640,447h11v11h-11zM244,458h11v11h-11zM288,458h11v11h-11zM299,458h11v11h-11zM365,458h11v11h-11zM387,458h11v11h-11zM409,458h11v11h-11zM431,458h11v11h-11zM442,458h11v11h-11zM453,458h11v11h-11zM475,458h11v11h-11zM486,458h11v11h-11zM497,458h11v11h-11zM519,458h11v11h-11zM530,458h11v11h-11zM541,458h11v11h-11zM563,458h11v11h-11zM574,458h11v11h-11zM585,458h11v11h-11zM607,458h11v11h-11zM211,469h11v11h-11zM222,469h11v11h-11zM233,469h11v11h-11zM266,469h11v11h-11zM299,469h11v11h-11zM310,469h11v11h-11zM321,469h11v11h-11zM354,469h11v11h-11zM387,469h11v11h-11zM398,469h11v11h-11zM475,469h11v11h-11zM486,469h11v11h-11zM508,469h11v11h-11zM519,469h11v11h-11zM530,469h11v11h-11zM552,469h11v11h-11zM574,469h11v11h-11zM585,469h11v11h-11zM607,469h11v11h-11zM629,469h11v11h-11zM640,469h11v11h-11zM211,480h11v11h-11zM222,480h11v11h-11zM244,480h11v11h-11zM332,480h11v11h-11zM354,480h11v11h-11zM365,480h11v11h-11zM387,480h11v11h-11zM398,480h11v11h-11zM442,480h11v11h-11zM464,480h11v11h-11zM475,480h11v11h-11zM486,480h11v11h-11zM552,480h11v11h-11zM563,480h11v11h-11zM574,480h11v11h-11zM585,480h11v11h-11zM607,480h11v11h-11zM629,480h11v11h-11zM640,480h11v11h-11zM222,491h11v11h-11zM233,491h11v11h-11zM244,491h11v11h-11zM255,491h11v11h-11zM266,491h11v11h-11zM277,491h11v11h-11zM288,491h11v11h-11zM299,491h11v11h-11zM310,491h11v11h-11zM321,491h11v11h-11zM332,491h11v11h-11zM343,491h11v11h-11zM354,491h11v11h-11zM365,491h11v11h-11zM376,491h11v11h-11zM387,491h11v11h-11zM398,491h11v11h-11zM431,491h11v11h-11zM486,491h11v11h-11zM508,491h11v11h-11zM530,491h11v11h-11zM552,491h11v11h-11zM574,491h11v11h-11zM585,491h11v11h-11zM596,491h11v11h-11zM607,491h11v11h-11zM618,491h11v11h-11zM629,491h11v11h-11zM640,491h11v11h-11zM211,502h11v11h-11zM222,502h11v11h-11zM244,502h11v11h-11zM255,502h11v11h-11zM277,502h11v11h-11zM299,502h11v11h-11zM310,502h11v11h-11zM321,502h11v11h-11zM343,502h11v11h-11zM387,502h11v11h-11zM398,502h11v11h-11zM409,502h11v11h-11zM420,502h11v11h-11zM431,502h11v11h-11zM442,502h11v11h-11zM464,502h11v11h-11zM475,502h11v11h-11zM486,502h11v11h-11zM497,502h11v11h-11zM508,502h11v11h-11zM519,502h11v11h-11zM530,502h11v11h-11zM552,502h11v11h-11zM585,502h11v11h-11zM607,502h11v11h-11zM629,502h11v11h-11zM640,502h11v11h-11zM211,513h11v11h-11zM233,513h11v11h-11zM244,513h11v11h-11zM266,513h11v11h-11zM310,513h11v11h-11zM332,513h11v11h-11zM354,513h11v11h-11zM387,513h11v11h-11zM420,513h11v11h-11zM431,513h11v11h-11zM453,513h11v11h-11zM464,513h11v11h-11zM475,513h11v11h-11zM497,513h11v11h-11zM519,513h11v11h-11zM552,513h11v11h-11zM574,513h11v11h-11zM585,513h11v11h-11zM607,513h11v11h-11zM211,524h11v11h-11zM288,524h11v11h-11zM299,524h11v11h-11zM310,524h11v11h-11zM354,524h11v11h-11zM398,524h11v11h-11zM420,524h11v11h-11zM431,524h11v11h-11zM442,524h11v11h-11zM475,524h11v11h-11zM508,524h11v11h-11zM519,524h11v11h-11zM530,524h11v11h-11zM574,524h11v11h-11zM585,524h11v11h-11zM640,524h11v11h-11zM211,535h11v11h-11zM244,535h11v11h-11zM255,535h11v11h-11zM266,535h11v11h-11zM277,535h11v11h-11zM321,535h11v11h-11zM332,535h11v11h-11zM343,535h11v11h-11zM354,535h11v11h-11zM376,535h11v11h-11zM387,535h11v11h-11zM442,535h11v11h-11zM464,535h11v11h-11zM486,535h11v11h-11zM519,535h11v11h-11zM530,535h11v11h-11zM574,535h11v11h-11zM585,535h11v11h-11zM596,535h11v11h-11zM618,535h11v11h-11zM640,535h11v11h-11zM200,546h11v11h-11zM211,546h11v11h-11zM277,546h11v11h-11zM310,546h11v11h-11zM321,546h11v11h-11zM332,546h11v11h-11zM354,546h11v11h-11zM365,546h11v11h-11zM376,546h11v11h-11zM387,546h11v11h-11zM398,546h11v11h-11zM409,546h11v11h-11zM420,546h11v11h-11zM431,546h11v11h-11zM442,546h11v11h-11zM453,546h11v11h-11zM464,546h11v11h-11zM475,546h11v11h-11zM519,546h11v11h-11zM530,546h11v11h-11zM552,546h11v11h-11zM585,546h11v11h-11zM200,557h11v11h-11zM222,557h11v11h-11zM244,557h11v11h-11zM266,557h11v11h-11zM277,557h11v11h-11zM343,557h11v11h-11zM354,557h11v11h-11zM376,557h11v11h-11zM387,557h11v11h-11zM409,557h11v11h-11zM420,557h11v11h-11zM431,557h11v11h-11zM464,557h11v11h-11zM475,557h11v11h-11zM508,557h11v11h-11zM519,557h11v11h-11zM541,557h11v11h-11zM574,557h11v11h-11zM607,557h11v11h-11zM640,557h11v11h-11zM200,568h11v11h-11zM222,568h11v11h-11zM255,568h11v11h-11zM321,568h11v11h-11zM343,568h11v11h-11zM376,568h11v11h-11zM387,568h11v11h-11zM398,568h11v11h-11zM453,568h11v11h-11zM464,568h11v11h-11zM475,568h11v11h-11zM486,568h11v11h-11zM508,568h11v11h-11zM519,568h11v11h-11zM574,568h11v11h-11zM640,568h11v11h-11zM200,579h11v11h-11zM211,579h11v11h-11zM222,579h11v11h-11zM255,579h11v11h-11zM266,579h11v11h-11zM288,579h11v11h-11zM310,579h11v11h-11zM321,579h11v11h-11zM343,579h11v11h-11zM398,579h11v11h-11zM420,579h11v11h-11zM442,579h11v11h-11zM464,579h11v11h-11zM530,579h11v11h-11zM585,579h11v11h-11zM596,579h11v11h-11zM618,579h11v11h-11zM640,579h11v11h-11zM211,590h11v11h-11zM233,590h11v11h-11zM255,590h11v11h-11zM288,590h11v11h-11zM387,590h11v11h-11zM398,590h11v11h-11zM409,590h11v11h-11zM431,590h11v11h-11zM464,590h11v11h-11zM475,590h11v11h-11zM519,590h11v11h-11zM530,590h11v11h-11zM541,590h11v11h-11zM563,590h11v11h-11zM574,590h11v11h-11zM585,590h11v11h-11zM596,590h11v11h-11zM629,590h11v11h-11zM222,601h11v11h-11zM233,601h11v11h-11zM266,601h11v11h-11zM321,601h11v11h-11zM343,601h11v11h-11zM354,601h11v11h-11zM365,601h11v11h-11zM387,601h11v11h-11zM398,601h11v11h-11zM409,601h11v11h-11zM431,601h11v11h-11zM442,601h11v11h-11zM475,601h11v11h-11zM486,601h11v11h-11zM519,601h11v11h-11zM530,601h11v11h-11zM552,601h11v11h-11zM563,601h11v11h-11zM574,601h11v11h-11zM585,601h11v11h-11zM596,601h11v11h-11zM288,612h11v11h-11zM299,612h11v11h-11zM310,612h11v11h-11zM321,612h11v11h-11zM343,612h11v11h-11zM354,612h11v11h-11zM376,612h11v11h-11zM387,612h11v11h-11zM398,612h11v11h-11zM431,612h11v11h-11zM442,612h11v11h-11zM486,612h11v11h-11zM519,612h11v11h-11zM530,612h11v11h-11zM552,612h11v11h-11zM596,612h11v11h-11zM607,612h11v11h-11zM629,612h11v11h-11zM640,612h11v11h-11zM200,623h11v11h-11zM211,623h11v11h-11zM222,623h11v11h-11zM233,623h11v11h-11zM244,623h11v11h-11zM255,623h11v11h-11zM266,623h11v11h-11zM365,623h11v11h-11zM398,623h11v11h-11zM431,623h11v11h-11zM519,623h11v11h-11zM541,623h11v11h-11zM552,623h11v11h-11zM574,623h11v11h-11zM596,623h11v11h-11zM607,623h11v11h-11zM618,623h11v11h-11zM629,623h11v11h-11zM640,623h11v11h-11zM200,634h11v11h-11zM266,634h11v11h-11zM310,634h11v11h-11zM321,634h11v11h-11zM387,634h11v11h-11zM398,634h11v11h-11zM409,634h11v11h-11zM431,634h11v11h-11zM442,634h11v11h-11zM453,634h11v11h-11zM475,634h11v11h-11zM486,634h11v11h-11zM497,634h11v11h-11zM519,634h11v11h-11zM541,634h11v11h-11zM552,634h11v11h-11zM596,634h11v11h-11zM607,634h11v11h-11zM629,634h11v11h-11zM200,645h11v11h-11zM222,645h11v11h-11zM233,645h11v11h-11zM244,645h11v11h-11zM266,645h11v11h-11zM288,645h11v11h-11zM310,645h11v11h-11zM365,645h11v11h-11zM376,645h11v11h-11zM398,645h11v11h-11zM420,645h11v11h-11zM464,645h11v11h-11zM508,645h11v11h-11zM519,645h11v11h-11zM552,645h11v11h-11zM563,645h11v11h-11zM574,645h11v11h-11zM585,645h11v11h-11zM596,645h11v11h-11zM607,645h11v11h-11zM640,645h11v11h-11zM200,656h11v11h-11zM222,656h11v11h-11zM233,656h11v11h-11zM244,656h11v11h-11zM266,656h11v11h-11zM299,656h11v11h-11zM321,656h11v11h-11zM354,656h11v11h-11zM365,656h11v11h-11zM376,656h11v11h-11zM387,656h11v11h-11zM420,656h11v11h-11zM508,656h11v11h-11zM519,656h11v11h-11zM563,656h11v11h-11zM596,656h11v11h-11zM607,656h11v11h-11zM629,656h11v11h-11zM640,656h11v11h-11zM200,667h11v11h-11zM222,667h11v11h-11zM233,667h11v11h-11zM244,667h11v11h-11zM266,667h11v11h-11zM288,667h11v11h-11zM299,667h11v11h-11zM310,667h11v11h-11zM321,667h11v11h-11zM387,667h11v11h-11zM398,667h11v11h-11zM442,667h11v11h-11zM464,667h11v11h-11zM486,667h11v11h-11zM519,667h11v11h-11zM530,667h11v11h-11zM552,667h11v11h-11zM585,667h11v11h-11zM596,667h11v11h-11zM607,667h11v11h-11zM618,667h11v11h-11zM629,667h11v11h-11zM640,667h11v11h-11zM200,678h11v11h-11zM266,678h11v11h-11zM321,678h11v11h-11zM343,678h11v11h-11zM376,678h11v11h-11zM398,678h11v11h-11zM420,678h11v11h-11zM431,678h11v11h-11zM453,678h11v11h-11zM475,678h11v11h-11zM486,678h11v11h-11zM497,678h11v11h-11zM508,678h11v11h-11zM519,678h11v11h-11zM552,678h11v11h-11zM574,678h11v11h-11zM585,678h11v11h-11zM607,678h11v11h-11zM629,678h11v11h-11zM200,689h11v11h-11zM211,689h11v11h-11zM222,689h11v11h-11zM233,689h11v11h-11zM244,689h11v11h-11zM255,689h11v11h-11zM266,689h11v11h-11zM288,689h11v11h-11zM299,689h11v11h-11zM332,689h11v11h-11zM343,689h11v11h-11zM365,689h11v11h-11zM398,689h11v11h-11zM420,689h11v11h-11zM431,689h11v11h-11zM442,689h11v11h-11zM464,689h11v11h-11zM475,689h11v11h-11zM519,689h11v11h-11zM541,689h11v11h-11zM552,689h11v11h-11zM585,689h11v11h-11zM596,689h11v11h-11zM607,689h11v11h-11zM629,689h11v11h-11zM640,689h11v11h-11z" fill="#020617"/>

  <text x="64" y="835" font-family="Arial, Helvetica, sans-serif" font-size="28" font-weight="800" fill="#0f172a">FAB-WH-001</text>
  <text x="64" y="872" font-family="Arial, Helvetica, sans-serif" font-size="18" fill="#334155">Warehouse A First Aid Box</text>
  <text x="64" y="900" font-family="Arial, Helvetica, sans-serif" font-size="18" fill="#334155">Area: Warehouse</text>
  <text x="64" y="928" font-family="Arial, Helvetica, sans-serif" font-size="18" fill="#334155">Location: Warehouse A near forklift charging area</text>

  <rect x="64" y="965" width="722" height="78" rx="16" fill="#eff6ff"/>
  <text x="86" y="994" font-family="Arial, Helvetica, sans-serif" font-size="14" font-weight="700" fill="#1d4ed8">Encoded link</text>
  <text x="86" y="1022" font-family="Consolas, 'Courier New', monospace" font-size="13" fill="#0f172a">https://first-aid-box-inspection.vercel.app/usage?box=11111111-1111-4111-8111-111111111111&amp;code=FAB-WH-001</text>
</svg>
