<?xml version="1.0" encoding="UTF-8"?>
<svg xmlns="http://www.w3.org/2000/svg" width="850" height="1240" viewBox="0 0 850 1240" role="img" aria-label="GIS-01 Usage QR">
  <rect width="100%" height="100%" rx="34" fill="#ffffff"/>
  <rect x="0" y="0" width="850" height="104" rx="34" fill="#0b7fc3"/>
  <text x="58" y="66" font-family="Arial, Helvetica, sans-serif" font-size="34" font-weight="800" fill="#ffffff">TAMCO</text>
  <text x="792" y="50" text-anchor="end" font-family="Arial, Helvetica, sans-serif" font-size="18" font-weight="700" fill="#dff4ff">First Aid Box</text>
  <text x="792" y="74" text-anchor="end" font-family="Arial, Helvetica, sans-serif" font-size="16" fill="#dff4ff">QR access label</text>

  <rect x="48" y="128" width="754" height="142" rx="26" fill="#059669"/>
  <text x="425" y="196" text-anchor="middle" font-family="Arial, Helvetica, sans-serif" font-size="64" font-weight="900" fill="#ffffff">USAGE LOG</text>
  <text x="425" y="236" text-anchor="middle" font-family="Arial, Helvetica, sans-serif" font-size="25" font-weight="800" fill="#ffffff">SCAN WHEN TAKING ITEMS</text>

  <text x="425" y="316" text-anchor="middle" font-family="Arial, Helvetica, sans-serif" font-size="40" font-weight="900" fill="#0f172a">GIS-01</text>
  <text x="425" y="344" text-anchor="middle" font-family="Arial, Helvetica, sans-serif" font-size="20" font-weight="700" fill="#475569">Record first aid items taken</text>

  <rect x="112" y="347" width="626" height="626" rx="24" fill="#f8fafc" stroke="#cbd5e1" stroke-width="2"/>
  <rect x="130" y="365" width="590" height="590" fill="#ffffff"/>
  <path d="M180,415h10v10h-10zM190,415h10v10h-10zM200,415h10v10h-10zM210,415h10v10h-10zM220,415h10v10h-10zM230,415h10v10h-10zM240,415h10v10h-10zM270,415h10v10h-10zM310,415h10v10h-10zM340,415h10v10h-10zM350,415h10v10h-10zM370,415h10v10h-10zM380,415h10v10h-10zM420,415h10v10h-10zM450,415h10v10h-10zM460,415h10v10h-10zM480,415h10v10h-10zM490,415h10v10h-10zM510,415h10v10h-10zM530,415h10v10h-10zM550,415h10v10h-10zM580,415h10v10h-10zM600,415h10v10h-10zM610,415h10v10h-10zM620,415h10v10h-10zM630,415h10v10h-10zM640,415h10v10h-10zM650,415h10v10h-10zM660,415h10v10h-10zM180,425h10v10h-10zM240,425h10v10h-10zM270,425h10v10h-10zM290,425h10v10h-10zM320,425h10v10h-10zM340,425h10v10h-10zM350,425h10v10h-10zM380,425h10v10h-10zM410,425h10v10h-10zM420,425h10v10h-10zM440,425h10v10h-10zM460,425h10v10h-10zM510,425h10v10h-10zM520,425h10v10h-10zM540,425h10v10h-10zM550,425h10v10h-10zM560,425h10v10h-10zM570,425h10v10h-10zM580,425h10v10h-10zM600,425h10v10h-10zM660,425h10v10h-10zM180,435h10v10h-10zM200,435h10v10h-10zM210,435h10v10h-10zM220,435h10v10h-10zM240,435h10v10h-10zM260,435h10v10h-10zM270,435h10v10h-10zM280,435h10v10h-10zM310,435h10v10h-10zM320,435h10v10h-10zM350,435h10v10h-10zM360,435h10v10h-10zM370,435h10v10h-10zM390,435h10v10h-10zM430,435h10v10h-10zM450,435h10v10h-10zM480,435h10v10h-10zM500,435h10v10h-10zM510,435h10v10h-10zM520,435h10v10h-10zM540,435h10v10h-10zM570,435h10v10h-10zM580,435h10v10h-10zM600,435h10v10h-10zM620,435h10v10h-10zM630,435h10v10h-10zM640,435h10v10h-10zM660,435h10v10h-10zM180,445h10v10h-10zM200,445h10v10h-10zM210,445h10v10h-10zM220,445h10v10h-10zM240,445h10v10h-10zM270,445h10v10h-10zM280,445h10v10h-10zM290,445h10v10h-10zM300,445h10v10h-10zM310,445h10v10h-10zM320,445h10v10h-10zM330,445h10v10h-10zM340,445h10v10h-10zM350,445h10v10h-10zM380,445h10v10h-10zM400,445h10v10h-10zM420,445h10v10h-10zM430,445h10v10h-10zM450,445h10v10h-10zM480,445h10v10h-10zM490,445h10v10h-10zM550,445h10v10h-10zM570,445h10v10h-10zM600,445h10v10h-10zM620,445h10v10h-10zM630,445h10v10h-10zM640,445h10v10h-10zM660,445h10v10h-10zM180,455h10v10h-10zM200,455h10v10h-10zM210,455h10v10h-10zM220,455h10v10h-10zM240,455h10v10h-10zM260,455h10v10h-10zM280,455h10v10h-10zM290,455h10v10h-10zM300,455h10v10h-10zM350,455h10v10h-10zM380,455h10v10h-10zM400,455h10v10h-10zM410,455h10v10h-10zM420,455h10v10h-10zM430,455h10v10h-10zM440,455h10v10h-10zM450,455h10v10h-10zM460,455h10v10h-10zM470,455h10v10h-10zM480,455h10v10h-10zM500,455h10v10h-10zM510,455h10v10h-10zM530,455h10v10h-10zM540,455h10v10h-10zM600,455h10v10h-10zM620,455h10v10h-10zM630,455h10v10h-10zM640,455h10v10h-10zM660,455h10v10h-10zM180,465h10v10h-10zM240,465h10v10h-10zM260,465h10v10h-10zM300,465h10v10h-10zM320,465h10v10h-10zM330,465h10v10h-10zM340,465h10v10h-10zM350,465h10v10h-10zM390,465h10v10h-10zM400,465h10v10h-10zM440,465h10v10h-10zM520,465h10v10h-10zM560,465h10v10h-10zM600,465h10v10h-10zM660,465h10v10h-10zM180,475h10v10h-10zM190,475h10v10h-10zM200,475h10v10h-10zM210,475h10v10h-10zM220,475h10v10h-10zM230,475h10v10h-10zM240,475h10v10h-10zM260,475h10v10h-10zM280,475h10v10h-10zM300,475h10v10h-10zM320,475h10v10h-10zM340,475h10v10h-10zM360,475h10v10h-10zM380,475h10v10h-10zM400,475h10v10h-10zM420,475h10v10h-10zM440,475h10v10h-10zM460,475h10v10h-10zM480,475h10v10h-10zM500,475h10v10h-10zM520,475h10v10h-10zM540,475h10v10h-10zM560,475h10v10h-10zM580,475h10v10h-10zM600,475h10v10h-10zM610,475h10v10h-10zM620,475h10v10h-10zM630,475h10v10h-10zM640,475h10v10h-10zM650,475h10v10h-10zM660,475h10v10h-10zM270,485h10v10h-10zM300,485h10v10h-10zM310,485h10v10h-10zM320,485h10v10h-10zM350,485h10v10h-10zM380,485h10v10h-10zM400,485h10v10h-10zM440,485h10v10h-10zM450,485h10v10h-10zM470,485h10v10h-10zM510,485h10v10h-10zM520,485h10v10h-10zM530,485h10v10h-10zM570,485h10v10h-10zM580,485h10v10h-10zM190,495h10v10h-10zM220,495h10v10h-10zM240,495h10v10h-10zM260,495h10v10h-10zM270,495h10v10h-10zM280,495h10v10h-10zM290,495h10v10h-10zM370,495h10v10h-10zM400,495h10v10h-10zM410,495h10v10h-10zM420,495h10v10h-10zM430,495h10v10h-10zM440,495h10v10h-10zM480,495h10v10h-10zM530,495h10v10h-10zM550,495h10v10h-10zM560,495h10v10h-10zM570,495h10v10h-10zM580,495h10v10h-10zM590,495h10v10h-10zM610,495h10v10h-10zM620,495h10v10h-10zM640,495h10v10h-10zM190,505h10v10h-10zM220,505h10v10h-10zM230,505h10v10h-10zM290,505h10v10h-10zM310,505h10v10h-10zM320,505h10v10h-10zM330,505h10v10h-10zM340,505h10v10h-10zM350,505h10v10h-10zM360,505h10v10h-10zM380,505h10v10h-10zM440,505h10v10h-10zM460,505h10v10h-10zM480,505h10v10h-10zM490,505h10v10h-10zM550,505h10v10h-10zM570,505h10v10h-10zM600,505h10v10h-10zM610,505h10v10h-10zM620,505h10v10h-10zM630,505h10v10h-10zM200,515h10v10h-10zM220,515h10v10h-10zM230,515h10v10h-10zM240,515h10v10h-10zM260,515h10v10h-10zM270,515h10v10h-10zM280,515h10v10h-10zM290,515h10v10h-10zM310,515h10v10h-10zM340,515h10v10h-10zM350,515h10v10h-10zM360,515h10v10h-10zM380,515h10v10h-10zM390,515h10v10h-10zM410,515h10v10h-10zM450,515h10v10h-10zM480,515h10v10h-10zM490,515h10v10h-10zM500,515h10v10h-10zM510,515h10v10h-10zM520,515h10v10h-10zM540,515h10v10h-10zM570,515h10v10h-10zM590,515h10v10h-10zM610,515h10v10h-10zM620,515h10v10h-10zM640,515h10v10h-10zM180,525h10v10h-10zM190,525h10v10h-10zM200,525h10v10h-10zM220,525h10v10h-10zM250,525h10v10h-10zM260,525h10v10h-10zM280,525h10v10h-10zM330,525h10v10h-10zM380,525h10v10h-10zM390,525h10v10h-10zM410,525h10v10h-10zM430,525h10v10h-10zM440,525h10v10h-10zM460,525h10v10h-10zM470,525h10v10h-10zM480,525h10v10h-10zM500,525h10v10h-10zM510,525h10v10h-10zM520,525h10v10h-10zM540,525h10v10h-10zM590,525h10v10h-10zM620,525h10v10h-10zM630,525h10v10h-10zM640,525h10v10h-10zM180,535h10v10h-10zM190,535h10v10h-10zM200,535h10v10h-10zM210,535h10v10h-10zM220,535h10v10h-10zM240,535h10v10h-10zM260,535h10v10h-10zM290,535h10v10h-10zM320,535h10v10h-10zM330,535h10v10h-10zM350,535h10v10h-10zM370,535h10v10h-10zM390,535h10v10h-10zM410,535h10v10h-10zM430,535h10v10h-10zM440,535h10v10h-10zM450,535h10v10h-10zM470,535h10v10h-10zM480,535h10v10h-10zM490,535h10v10h-10zM500,535h10v10h-10zM510,535h10v10h-10zM520,535h10v10h-10zM540,535h10v10h-10zM550,535h10v10h-10zM560,535h10v10h-10zM580,535h10v10h-10zM600,535h10v10h-10zM610,535h10v10h-10zM620,535h10v10h-10zM640,535h10v10h-10zM650,535h10v10h-10zM190,545h10v10h-10zM210,545h10v10h-10zM220,545h10v10h-10zM230,545h10v10h-10zM260,545h10v10h-10zM270,545h10v10h-10zM300,545h10v10h-10zM310,545h10v10h-10zM320,545h10v10h-10zM330,545h10v10h-10zM340,545h10v10h-10zM360,545h10v10h-10zM380,545h10v10h-10zM410,545h10v10h-10zM440,545h10v10h-10zM470,545h10v10h-10zM530,545h10v10h-10zM540,545h10v10h-10zM550,545h10v10h-10zM560,545h10v10h-10zM600,545h10v10h-10zM610,545h10v10h-10zM620,545h10v10h-10zM630,545h10v10h-10zM180,555h10v10h-10zM190,555h10v10h-10zM210,555h10v10h-10zM220,555h10v10h-10zM230,555h10v10h-10zM240,555h10v10h-10zM250,555h10v10h-10zM260,555h10v10h-10zM310,555h10v10h-10zM320,555h10v10h-10zM350,555h10v10h-10zM360,555h10v10h-10zM370,555h10v10h-10zM400,555h10v10h-10zM430,555h10v10h-10zM460,555h10v10h-10zM470,555h10v10h-10zM480,555h10v10h-10zM520,555h10v10h-10zM530,555h10v10h-10zM570,555h10v10h-10zM590,555h10v10h-10zM610,555h10v10h-10zM620,555h10v10h-10zM640,555h10v10h-10zM190,565h10v10h-10zM200,565h10v10h-10zM220,565h10v10h-10zM250,565h10v10h-10zM270,565h10v10h-10zM290,565h10v10h-10zM300,565h10v10h-10zM320,565h10v10h-10zM330,565h10v10h-10zM350,565h10v10h-10zM400,565h10v10h-10zM420,565h10v10h-10zM450,565h10v10h-10zM470,565h10v10h-10zM510,565h10v10h-10zM520,565h10v10h-10zM530,565h10v10h-10zM570,565h10v10h-10zM600,565h10v10h-10zM620,565h10v10h-10zM630,565h10v10h-10zM640,565h10v10h-10zM650,565h10v10h-10zM660,565h10v10h-10zM180,575h10v10h-10zM190,575h10v10h-10zM200,575h10v10h-10zM210,575h10v10h-10zM220,575h10v10h-10zM230,575h10v10h-10zM240,575h10v10h-10zM260,575h10v10h-10zM270,575h10v10h-10zM280,575h10v10h-10zM290,575h10v10h-10zM300,575h10v10h-10zM320,575h10v10h-10zM330,575h10v10h-10zM340,575h10v10h-10zM360,575h10v10h-10zM380,575h10v10h-10zM410,575h10v10h-10zM420,575h10v10h-10zM440,575h10v10h-10zM470,575h10v10h-10zM480,575h10v10h-10zM490,575h10v10h-10zM500,575h10v10h-10zM510,575h10v10h-10zM540,575h10v10h-10zM560,575h10v10h-10zM610,575h10v10h-10zM620,575h10v10h-10zM660,575h10v10h-10zM180,585h10v10h-10zM200,585h10v10h-10zM210,585h10v10h-10zM220,585h10v10h-10zM250,585h10v10h-10zM260,585h10v10h-10zM290,585h10v10h-10zM310,585h10v10h-10zM350,585h10v10h-10zM360,585h10v10h-10zM370,585h10v10h-10zM390,585h10v10h-10zM420,585h10v10h-10zM440,585h10v10h-10zM450,585h10v10h-10zM480,585h10v10h-10zM490,585h10v10h-10zM500,585h10v10h-10zM540,585h10v10h-10zM550,585h10v10h-10zM560,585h10v10h-10zM570,585h10v10h-10zM580,585h10v10h-10zM590,585h10v10h-10zM610,585h10v10h-10zM620,585h10v10h-10zM640,585h10v10h-10zM190,595h10v10h-10zM200,595h10v10h-10zM210,595h10v10h-10zM240,595h10v10h-10zM270,595h10v10h-10zM290,595h10v10h-10zM300,595h10v10h-10zM310,595h10v10h-10zM320,595h10v10h-10zM340,595h10v10h-10zM350,595h10v10h-10zM380,595h10v10h-10zM390,595h10v10h-10zM400,595h10v10h-10zM410,595h10v10h-10zM420,595h10v10h-10zM440,595h10v10h-10zM450,595h10v10h-10zM460,595h10v10h-10zM500,595h10v10h-10zM520,595h10v10h-10zM550,595h10v10h-10zM570,595h10v10h-10zM590,595h10v10h-10zM620,595h10v10h-10zM630,595h10v10h-10zM640,595h10v10h-10zM180,605h10v10h-10zM190,605h10v10h-10zM210,605h10v10h-10zM220,605h10v10h-10zM250,605h10v10h-10zM270,605h10v10h-10zM300,605h10v10h-10zM330,605h10v10h-10zM350,605h10v10h-10zM360,605h10v10h-10zM370,605h10v10h-10zM400,605h10v10h-10zM410,605h10v10h-10zM470,605h10v10h-10zM490,605h10v10h-10zM500,605h10v10h-10zM510,605h10v10h-10zM520,605h10v10h-10zM540,605h10v10h-10zM550,605h10v10h-10zM560,605h10v10h-10zM590,605h10v10h-10zM610,605h10v10h-10zM620,605h10v10h-10zM640,605h10v10h-10zM180,615h10v10h-10zM190,615h10v10h-10zM240,615h10v10h-10zM250,615h10v10h-10zM260,615h10v10h-10zM270,615h10v10h-10zM300,615h10v10h-10zM310,615h10v10h-10zM320,615h10v10h-10zM330,615h10v10h-10zM340,615h10v10h-10zM390,615h10v10h-10zM440,615h10v10h-10zM460,615h10v10h-10zM470,615h10v10h-10zM480,615h10v10h-10zM490,615h10v10h-10zM500,615h10v10h-10zM520,615h10v10h-10zM530,615h10v10h-10zM540,615h10v10h-10zM600,615h10v10h-10zM620,615h10v10h-10zM630,615h10v10h-10zM640,615h10v10h-10zM650,615h10v10h-10zM200,625h10v10h-10zM210,625h10v10h-10zM230,625h10v10h-10zM250,625h10v10h-10zM260,625h10v10h-10zM290,625h10v10h-10zM300,625h10v10h-10zM320,625h10v10h-10zM330,625h10v10h-10zM370,625h10v10h-10zM380,625h10v10h-10zM390,625h10v10h-10zM410,625h10v10h-10zM420,625h10v10h-10zM440,625h10v10h-10zM470,625h10v10h-10zM480,625h10v10h-10zM500,625h10v10h-10zM510,625h10v10h-10zM530,625h10v10h-10zM540,625h10v10h-10zM550,625h10v10h-10zM560,625h10v10h-10zM590,625h10v10h-10zM600,625h10v10h-10zM610,625h10v10h-10zM620,625h10v10h-10zM200,635h10v10h-10zM220,635h10v10h-10zM230,635h10v10h-10zM240,635h10v10h-10zM250,635h10v10h-10zM260,635h10v10h-10zM270,635h10v10h-10zM280,635h10v10h-10zM290,635h10v10h-10zM300,635h10v10h-10zM310,635h10v10h-10zM330,635h10v10h-10zM350,635h10v10h-10zM380,635h10v10h-10zM390,635h10v10h-10zM400,635h10v10h-10zM410,635h10v10h-10zM420,635h10v10h-10zM430,635h10v10h-10zM440,635h10v10h-10zM450,635h10v10h-10zM470,635h10v10h-10zM480,635h10v10h-10zM490,635h10v10h-10zM560,635h10v10h-10zM570,635h10v10h-10zM580,635h10v10h-10zM590,635h10v10h-10zM600,635h10v10h-10zM610,635h10v10h-10zM620,635h10v10h-10zM630,635h10v10h-10zM190,645h10v10h-10zM200,645h10v10h-10zM220,645h10v10h-10zM260,645h10v10h-10zM270,645h10v10h-10zM320,645h10v10h-10zM330,645h10v10h-10zM370,645h10v10h-10zM390,645h10v10h-10zM400,645h10v10h-10zM440,645h10v10h-10zM450,645h10v10h-10zM460,645h10v10h-10zM480,645h10v10h-10zM500,645h10v10h-10zM520,645h10v10h-10zM530,645h10v10h-10zM540,645h10v10h-10zM570,645h10v10h-10zM580,645h10v10h-10zM620,645h10v10h-10zM640,645h10v10h-10zM660,645h10v10h-10zM180,655h10v10h-10zM210,655h10v10h-10zM220,655h10v10h-10zM240,655h10v10h-10zM260,655h10v10h-10zM270,655h10v10h-10zM290,655h10v10h-10zM300,655h10v10h-10zM310,655h10v10h-10zM350,655h10v10h-10zM360,655h10v10h-10zM370,655h10v10h-10zM380,655h10v10h-10zM390,655h10v10h-10zM400,655h10v10h-10zM420,655h10v10h-10zM440,655h10v10h-10zM450,655h10v10h-10zM460,655h10v10h-10zM500,655h10v10h-10zM530,655h10v10h-10zM540,655h10v10h-10zM580,655h10v10h-10zM600,655h10v10h-10zM620,655h10v10h-10zM640,655h10v10h-10zM650,655h10v10h-10zM660,655h10v10h-10zM180,665h10v10h-10zM190,665h10v10h-10zM200,665h10v10h-10zM220,665h10v10h-10zM260,665h10v10h-10zM280,665h10v10h-10zM290,665h10v10h-10zM310,665h10v10h-10zM320,665h10v10h-10zM350,665h10v10h-10zM370,665h10v10h-10zM380,665h10v10h-10zM400,665h10v10h-10zM440,665h10v10h-10zM460,665h10v10h-10zM470,665h10v10h-10zM480,665h10v10h-10zM510,665h10v10h-10zM530,665h10v10h-10zM540,665h10v10h-10zM560,665h10v10h-10zM580,665h10v10h-10zM620,665h10v10h-10zM650,665h10v10h-10zM660,665h10v10h-10zM200,675h10v10h-10zM220,675h10v10h-10zM230,675h10v10h-10zM240,675h10v10h-10zM250,675h10v10h-10zM260,675h10v10h-10zM270,675h10v10h-10zM280,675h10v10h-10zM300,675h10v10h-10zM320,675h10v10h-10zM360,675h10v10h-10zM390,675h10v10h-10zM400,675h10v10h-10zM410,675h10v10h-10zM420,675h10v10h-10zM430,675h10v10h-10zM440,675h10v10h-10zM480,675h10v10h-10zM490,675h10v10h-10zM500,675h10v10h-10zM510,675h10v10h-10zM550,675h10v10h-10zM560,675h10v10h-10zM570,675h10v10h-10zM580,675h10v10h-10zM590,675h10v10h-10zM600,675h10v10h-10zM610,675h10v10h-10zM620,675h10v10h-10zM650,675h10v10h-10zM180,685h10v10h-10zM200,685h10v10h-10zM250,685h10v10h-10zM270,685h10v10h-10zM290,685h10v10h-10zM310,685h10v10h-10zM330,685h10v10h-10zM350,685h10v10h-10zM360,685h10v10h-10zM380,685h10v10h-10zM420,685h10v10h-10zM430,685h10v10h-10zM460,685h10v10h-10zM470,685h10v10h-10zM500,685h10v10h-10zM510,685h10v10h-10zM520,685h10v10h-10zM530,685h10v10h-10zM540,685h10v10h-10zM570,685h10v10h-10zM580,685h10v10h-10zM600,685h10v10h-10zM610,685h10v10h-10zM640,685h10v10h-10zM180,695h10v10h-10zM200,695h10v10h-10zM210,695h10v10h-10zM220,695h10v10h-10zM230,695h10v10h-10zM240,695h10v10h-10zM260,695h10v10h-10zM270,695h10v10h-10zM280,695h10v10h-10zM290,695h10v10h-10zM320,695h10v10h-10zM330,695h10v10h-10zM360,695h10v10h-10zM380,695h10v10h-10zM390,695h10v10h-10zM430,695h10v10h-10zM490,695h10v10h-10zM500,695h10v10h-10zM510,695h10v10h-10zM530,695h10v10h-10zM540,695h10v10h-10zM550,695h10v10h-10zM560,695h10v10h-10zM590,695h10v10h-10zM610,695h10v10h-10zM620,695h10v10h-10zM640,695h10v10h-10zM650,695h10v10h-10zM660,695h10v10h-10zM180,705h10v10h-10zM210,705h10v10h-10zM230,705h10v10h-10zM330,705h10v10h-10zM340,705h10v10h-10zM350,705h10v10h-10zM360,705h10v10h-10zM370,705h10v10h-10zM380,705h10v10h-10zM400,705h10v10h-10zM420,705h10v10h-10zM430,705h10v10h-10zM440,705h10v10h-10zM450,705h10v10h-10zM460,705h10v10h-10zM470,705h10v10h-10zM480,705h10v10h-10zM490,705h10v10h-10zM500,705h10v10h-10zM510,705h10v10h-10zM550,705h10v10h-10zM560,705h10v10h-10zM590,705h10v10h-10zM600,705h10v10h-10zM610,705h10v10h-10zM620,705h10v10h-10zM660,705h10v10h-10zM190,715h10v10h-10zM200,715h10v10h-10zM230,715h10v10h-10zM240,715h10v10h-10zM260,715h10v10h-10zM310,715h10v10h-10zM330,715h10v10h-10zM340,715h10v10h-10zM350,715h10v10h-10zM360,715h10v10h-10zM370,715h10v10h-10zM390,715h10v10h-10zM400,715h10v10h-10zM410,715h10v10h-10zM420,715h10v10h-10zM460,715h10v10h-10zM470,715h10v10h-10zM480,715h10v10h-10zM490,715h10v10h-10zM510,715h10v10h-10zM560,715h10v10h-10zM570,715h10v10h-10zM630,715h10v10h-10zM650,715h10v10h-10zM220,725h10v10h-10zM250,725h10v10h-10zM290,725h10v10h-10zM300,725h10v10h-10zM370,725h10v10h-10zM390,725h10v10h-10zM420,725h10v10h-10zM430,725h10v10h-10zM460,725h10v10h-10zM470,725h10v10h-10zM480,725h10v10h-10zM490,725h10v10h-10zM510,725h10v10h-10zM520,725h10v10h-10zM590,725h10v10h-10zM600,725h10v10h-10zM630,725h10v10h-10zM640,725h10v10h-10zM650,725h10v10h-10zM200,735h10v10h-10zM210,735h10v10h-10zM240,735h10v10h-10zM260,735h10v10h-10zM270,735h10v10h-10zM300,735h10v10h-10zM320,735h10v10h-10zM330,735h10v10h-10zM370,735h10v10h-10zM390,735h10v10h-10zM440,735h10v10h-10zM470,735h10v10h-10zM480,735h10v10h-10zM490,735h10v10h-10zM500,735h10v10h-10zM520,735h10v10h-10zM540,735h10v10h-10zM550,735h10v10h-10zM580,735h10v10h-10zM590,735h10v10h-10zM610,735h10v10h-10zM620,735h10v10h-10zM630,735h10v10h-10zM660,735h10v10h-10zM200,745h10v10h-10zM210,745h10v10h-10zM230,745h10v10h-10zM260,745h10v10h-10zM290,745h10v10h-10zM300,745h10v10h-10zM310,745h10v10h-10zM330,745h10v10h-10zM340,745h10v10h-10zM370,745h10v10h-10zM390,745h10v10h-10zM400,745h10v10h-10zM450,745h10v10h-10zM470,745h10v10h-10zM500,745h10v10h-10zM520,745h10v10h-10zM530,745h10v10h-10zM540,745h10v10h-10zM550,745h10v10h-10zM560,745h10v10h-10zM610,745h10v10h-10zM620,745h10v10h-10zM650,745h10v10h-10zM180,755h10v10h-10zM190,755h10v10h-10zM230,755h10v10h-10zM240,755h10v10h-10zM250,755h10v10h-10zM260,755h10v10h-10zM270,755h10v10h-10zM290,755h10v10h-10zM300,755h10v10h-10zM320,755h10v10h-10zM340,755h10v10h-10zM360,755h10v10h-10zM380,755h10v10h-10zM400,755h10v10h-10zM420,755h10v10h-10zM430,755h10v10h-10zM440,755h10v10h-10zM450,755h10v10h-10zM460,755h10v10h-10zM470,755h10v10h-10zM480,755h10v10h-10zM520,755h10v10h-10zM530,755h10v10h-10zM550,755h10v10h-10zM570,755h10v10h-10zM580,755h10v10h-10zM620,755h10v10h-10zM630,755h10v10h-10zM650,755h10v10h-10zM180,765h10v10h-10zM200,765h10v10h-10zM210,765h10v10h-10zM220,765h10v10h-10zM230,765h10v10h-10zM250,765h10v10h-10zM270,765h10v10h-10zM290,765h10v10h-10zM330,765h10v10h-10zM340,765h10v10h-10zM360,765h10v10h-10zM400,765h10v10h-10zM410,765h10v10h-10zM440,765h10v10h-10zM460,765h10v10h-10zM470,765h10v10h-10zM480,765h10v10h-10zM500,765h10v10h-10zM510,765h10v10h-10zM540,765h10v10h-10zM550,765h10v10h-10zM590,765h10v10h-10zM600,765h10v10h-10zM610,765h10v10h-10zM630,765h10v10h-10zM640,765h10v10h-10zM650,765h10v10h-10zM180,775h10v10h-10zM200,775h10v10h-10zM210,775h10v10h-10zM220,775h10v10h-10zM240,775h10v10h-10zM250,775h10v10h-10zM260,775h10v10h-10zM280,775h10v10h-10zM290,775h10v10h-10zM310,775h10v10h-10zM320,775h10v10h-10zM350,775h10v10h-10zM370,775h10v10h-10zM390,775h10v10h-10zM410,775h10v10h-10zM460,775h10v10h-10zM470,775h10v10h-10zM480,775h10v10h-10zM490,775h10v10h-10zM500,775h10v10h-10zM510,775h10v10h-10zM520,775h10v10h-10zM540,775h10v10h-10zM560,775h10v10h-10zM580,775h10v10h-10zM600,775h10v10h-10zM620,775h10v10h-10zM180,785h10v10h-10zM190,785h10v10h-10zM210,785h10v10h-10zM220,785h10v10h-10zM260,785h10v10h-10zM280,785h10v10h-10zM300,785h10v10h-10zM310,785h10v10h-10zM320,785h10v10h-10zM330,785h10v10h-10zM340,785h10v10h-10zM360,785h10v10h-10zM370,785h10v10h-10zM400,785h10v10h-10zM420,785h10v10h-10zM440,785h10v10h-10zM450,785h10v10h-10zM480,785h10v10h-10zM510,785h10v10h-10zM540,785h10v10h-10zM550,785h10v10h-10zM600,785h10v10h-10zM610,785h10v10h-10zM620,785h10v10h-10zM650,785h10v10h-10zM190,795h10v10h-10zM230,795h10v10h-10zM240,795h10v10h-10zM260,795h10v10h-10zM300,795h10v10h-10zM320,795h10v10h-10zM330,795h10v10h-10zM340,795h10v10h-10zM360,795h10v10h-10zM390,795h10v10h-10zM410,795h10v10h-10zM430,795h10v10h-10zM450,795h10v10h-10zM460,795h10v10h-10zM470,795h10v10h-10zM500,795h10v10h-10zM530,795h10v10h-10zM560,795h10v10h-10zM590,795h10v10h-10zM630,795h10v10h-10zM640,795h10v10h-10zM190,805h10v10h-10zM200,805h10v10h-10zM210,805h10v10h-10zM270,805h10v10h-10zM280,805h10v10h-10zM290,805h10v10h-10zM300,805h10v10h-10zM310,805h10v10h-10zM340,805h10v10h-10zM360,805h10v10h-10zM370,805h10v10h-10zM380,805h10v10h-10zM410,805h10v10h-10zM420,805h10v10h-10zM440,805h10v10h-10zM450,805h10v10h-10zM460,805h10v10h-10zM480,805h10v10h-10zM500,805h10v10h-10zM550,805h10v10h-10zM560,805h10v10h-10zM580,805h10v10h-10zM590,805h10v10h-10zM630,805h10v10h-10zM640,805h10v10h-10zM180,815h10v10h-10zM190,815h10v10h-10zM200,815h10v10h-10zM240,815h10v10h-10zM250,815h10v10h-10zM280,815h10v10h-10zM290,815h10v10h-10zM300,815h10v10h-10zM370,815h10v10h-10zM390,815h10v10h-10zM400,815h10v10h-10zM410,815h10v10h-10zM420,815h10v10h-10zM430,815h10v10h-10zM440,815h10v10h-10zM500,815h10v10h-10zM520,815h10v10h-10zM530,815h10v10h-10zM550,815h10v10h-10zM580,815h10v10h-10zM590,815h10v10h-10zM600,815h10v10h-10zM610,815h10v10h-10zM620,815h10v10h-10zM640,815h10v10h-10zM650,815h10v10h-10zM660,815h10v10h-10zM260,825h10v10h-10zM270,825h10v10h-10zM280,825h10v10h-10zM310,825h10v10h-10zM320,825h10v10h-10zM330,825h10v10h-10zM340,825h10v10h-10zM350,825h10v10h-10zM360,825h10v10h-10zM370,825h10v10h-10zM380,825h10v10h-10zM390,825h10v10h-10zM400,825h10v10h-10zM440,825h10v10h-10zM470,825h10v10h-10zM500,825h10v10h-10zM510,825h10v10h-10zM520,825h10v10h-10zM540,825h10v10h-10zM570,825h10v10h-10zM580,825h10v10h-10zM620,825h10v10h-10zM630,825h10v10h-10zM180,835h10v10h-10zM190,835h10v10h-10zM200,835h10v10h-10zM210,835h10v10h-10zM220,835h10v10h-10zM230,835h10v10h-10zM240,835h10v10h-10zM270,835h10v10h-10zM280,835h10v10h-10zM300,835h10v10h-10zM340,835h10v10h-10zM360,835h10v10h-10zM370,835h10v10h-10zM380,835h10v10h-10zM400,835h10v10h-10zM420,835h10v10h-10zM440,835h10v10h-10zM450,835h10v10h-10zM470,835h10v10h-10zM510,835h10v10h-10zM520,835h10v10h-10zM540,835h10v10h-10zM580,835h10v10h-10zM600,835h10v10h-10zM620,835h10v10h-10zM630,835h10v10h-10zM640,835h10v10h-10zM650,835h10v10h-10zM180,845h10v10h-10zM240,845h10v10h-10zM320,845h10v10h-10zM330,845h10v10h-10zM340,845h10v10h-10zM350,845h10v10h-10zM370,845h10v10h-10zM390,845h10v10h-10zM400,845h10v10h-10zM440,845h10v10h-10zM470,845h10v10h-10zM480,845h10v10h-10zM500,845h10v10h-10zM510,845h10v10h-10zM520,845h10v10h-10zM540,845h10v10h-10zM550,845h10v10h-10zM560,845h10v10h-10zM570,845h10v10h-10zM580,845h10v10h-10zM620,845h10v10h-10zM640,845h10v10h-10zM650,845h10v10h-10zM180,855h10v10h-10zM200,855h10v10h-10zM210,855h10v10h-10zM220,855h10v10h-10zM240,855h10v10h-10zM260,855h10v10h-10zM270,855h10v10h-10zM280,855h10v10h-10zM290,855h10v10h-10zM310,855h10v10h-10zM340,855h10v10h-10zM360,855h10v10h-10zM370,855h10v10h-10zM380,855h10v10h-10zM400,855h10v10h-10zM410,855h10v10h-10zM420,855h10v10h-10zM430,855h10v10h-10zM440,855h10v10h-10zM450,855h10v10h-10zM470,855h10v10h-10zM480,855h10v10h-10zM500,855h10v10h-10zM510,855h10v10h-10zM520,855h10v10h-10zM530,855h10v10h-10zM540,855h10v10h-10zM580,855h10v10h-10zM590,855h10v10h-10zM600,855h10v10h-10zM610,855h10v10h-10zM620,855h10v10h-10zM630,855h10v10h-10zM640,855h10v10h-10zM650,855h10v10h-10zM660,855h10v10h-10zM180,865h10v10h-10zM200,865h10v10h-10zM210,865h10v10h-10zM220,865h10v10h-10zM240,865h10v10h-10zM290,865h10v10h-10zM320,865h10v10h-10zM340,865h10v10h-10zM350,865h10v10h-10zM360,865h10v10h-10zM370,865h10v10h-10zM380,865h10v10h-10zM440,865h10v10h-10zM450,865h10v10h-10zM460,865h10v10h-10zM470,865h10v10h-10zM480,865h10v10h-10zM510,865h10v10h-10zM530,865h10v10h-10zM560,865h10v10h-10zM570,865h10v10h-10zM600,865h10v10h-10zM610,865h10v10h-10zM630,865h10v10h-10zM640,865h10v10h-10zM650,865h10v10h-10zM180,875h10v10h-10zM200,875h10v10h-10zM210,875h10v10h-10zM220,875h10v10h-10zM240,875h10v10h-10zM280,875h10v10h-10zM300,875h10v10h-10zM330,875h10v10h-10zM340,875h10v10h-10zM350,875h10v10h-10zM380,875h10v10h-10zM390,875h10v10h-10zM400,875h10v10h-10zM410,875h10v10h-10zM420,875h10v10h-10zM430,875h10v10h-10zM440,875h10v10h-10zM470,875h10v10h-10zM480,875h10v10h-10zM490,875h10v10h-10zM540,875h10v10h-10zM560,875h10v10h-10zM570,875h10v10h-10zM580,875h10v10h-10zM590,875h10v10h-10zM610,875h10v10h-10zM650,875h10v10h-10zM180,885h10v10h-10zM240,885h10v10h-10zM260,885h10v10h-10zM340,885h10v10h-10zM360,885h10v10h-10zM370,885h10v10h-10zM380,885h10v10h-10zM400,885h10v10h-10zM410,885h10v10h-10zM430,885h10v10h-10zM450,885h10v10h-10zM500,885h10v10h-10zM510,885h10v10h-10zM530,885h10v10h-10zM540,885h10v10h-10zM580,885h10v10h-10zM590,885h10v10h-10zM610,885h10v10h-10zM640,885h10v10h-10zM650,885h10v10h-10zM180,895h10v10h-10zM190,895h10v10h-10zM200,895h10v10h-10zM210,895h10v10h-10zM220,895h10v10h-10zM230,895h10v10h-10zM240,895h10v10h-10zM280,895h10v10h-10zM290,895h10v10h-10zM300,895h10v10h-10zM330,895h10v10h-10zM340,895h10v10h-10zM350,895h10v10h-10zM360,895h10v10h-10zM370,895h10v10h-10zM380,895h10v10h-10zM410,895h10v10h-10zM430,895h10v10h-10zM440,895h10v10h-10zM450,895h10v10h-10zM500,895h10v10h-10zM510,895h10v10h-10zM530,895h10v10h-10zM540,895h10v10h-10zM550,895h10v10h-10zM560,895h10v10h-10zM600,895h10v10h-10zM620,895h10v10h-10zM630,895h10v10h-10zM640,895h10v10h-10zM650,895h10v10h-10zM660,895h10v10h-10z" fill="#020617"/>

  <rect x="48" y="1034" width="754" height="118" rx="20" fill="#f8fafc" stroke="#e2e8f0" stroke-width="2"/>
  <text x="76" y="1072" font-family="Arial, Helvetica, sans-serif" font-size="23" font-weight="900" fill="#0f172a">GIS-01</text>
  <text x="76" y="1102" font-family="Arial, Helvetica, sans-serif" font-size="17" fill="#334155">GIS-01 First Aid Box</text>
  <text x="76" y="1127" font-family="Arial, Helvetica, sans-serif" font-size="17" fill="#334155">Area: Production</text>
  <text x="76" y="1152" font-family="Arial, Helvetica, sans-serif" font-size="17" fill="#334155">Location: GIS Walkway</text>

  <text x="425" y="1212" text-anchor="middle" font-family="Arial, Helvetica, sans-serif" font-size="15" font-weight="700" fill="#64748b">Opens first-aid-box-inspection.vercel.app</text>
</svg>
