<?xml version="1.0" encoding="UTF-8"?>
<svg xmlns="http://www.w3.org/2000/svg" width="850" height="1240" viewBox="0 0 850 1240" role="img" aria-label="GUA-01 Inspection QR">
  <rect width="100%" height="100%" rx="34" fill="#ffffff"/>
  <rect x="0" y="0" width="850" height="104" rx="34" fill="#0b7fc3"/>
  <text x="58" y="66" font-family="Arial, Helvetica, sans-serif" font-size="34" font-weight="800" fill="#ffffff">TAMCO</text>
  <text x="792" y="50" text-anchor="end" font-family="Arial, Helvetica, sans-serif" font-size="18" font-weight="700" fill="#dff4ff">First Aid Box</text>
  <text x="792" y="74" text-anchor="end" font-family="Arial, Helvetica, sans-serif" font-size="16" fill="#dff4ff">QR access label</text>

  <rect x="48" y="128" width="754" height="142" rx="26" fill="#dc2626"/>
  <text x="425" y="196" text-anchor="middle" font-family="Arial, Helvetica, sans-serif" font-size="64" font-weight="900" fill="#ffffff">INSPECTION</text>
  <text x="425" y="236" text-anchor="middle" font-family="Arial, Helvetica, sans-serif" font-size="25" font-weight="800" fill="#ffffff">SCAN TO INSPECT THIS BOX</text>

  <text x="425" y="316" text-anchor="middle" font-family="Arial, Helvetica, sans-serif" font-size="40" font-weight="900" fill="#0f172a">GUA-01</text>
  <text x="425" y="344" text-anchor="middle" font-family="Arial, Helvetica, sans-serif" font-size="20" font-weight="700" fill="#475569">Monthly first aid box checklist</text>

  <rect x="105" y="347" width="641" height="641" rx="24" fill="#f8fafc" stroke="#cbd5e1" stroke-width="2"/>
  <rect x="123" y="365" width="605" height="605" fill="#ffffff"/>
  <path d="M178,420h11v11h-11zM189,420h11v11h-11zM200,420h11v11h-11zM211,420h11v11h-11zM222,420h11v11h-11zM233,420h11v11h-11zM244,420h11v11h-11zM288,420h11v11h-11zM299,420h11v11h-11zM310,420h11v11h-11zM343,420h11v11h-11zM354,420h11v11h-11zM365,420h11v11h-11zM387,420h11v11h-11zM409,420h11v11h-11zM420,420h11v11h-11zM453,420h11v11h-11zM464,420h11v11h-11zM486,420h11v11h-11zM508,420h11v11h-11zM519,420h11v11h-11zM541,420h11v11h-11zM574,420h11v11h-11zM596,420h11v11h-11zM607,420h11v11h-11zM618,420h11v11h-11zM629,420h11v11h-11zM640,420h11v11h-11zM651,420h11v11h-11zM662,420h11v11h-11zM178,431h11v11h-11zM244,431h11v11h-11zM266,431h11v11h-11zM277,431h11v11h-11zM288,431h11v11h-11zM299,431h11v11h-11zM310,431h11v11h-11zM321,431h11v11h-11zM332,431h11v11h-11zM343,431h11v11h-11zM354,431h11v11h-11zM365,431h11v11h-11zM376,431h11v11h-11zM398,431h11v11h-11zM420,431h11v11h-11zM431,431h11v11h-11zM442,431h11v11h-11zM453,431h11v11h-11zM475,431h11v11h-11zM530,431h11v11h-11zM563,431h11v11h-11zM596,431h11v11h-11zM662,431h11v11h-11zM178,442h11v11h-11zM200,442h11v11h-11zM211,442h11v11h-11zM222,442h11v11h-11zM244,442h11v11h-11zM310,442h11v11h-11zM343,442h11v11h-11zM376,442h11v11h-11zM431,442h11v11h-11zM442,442h11v11h-11zM464,442h11v11h-11zM475,442h11v11h-11zM486,442h11v11h-11zM519,442h11v11h-11zM541,442h11v11h-11zM563,442h11v11h-11zM596,442h11v11h-11zM618,442h11v11h-11zM629,442h11v11h-11zM640,442h11v11h-11zM662,442h11v11h-11zM178,453h11v11h-11zM200,453h11v11h-11zM211,453h11v11h-11zM222,453h11v11h-11zM244,453h11v11h-11zM266,453h11v11h-11zM299,453h11v11h-11zM310,453h11v11h-11zM332,453h11v11h-11zM343,453h11v11h-11zM354,453h11v11h-11zM365,453h11v11h-11zM376,453h11v11h-11zM387,453h11v11h-11zM442,453h11v11h-11zM486,453h11v11h-11zM497,453h11v11h-11zM508,453h11v11h-11zM519,453h11v11h-11zM541,453h11v11h-11zM563,453h11v11h-11zM574,453h11v11h-11zM596,453h11v11h-11zM618,453h11v11h-11zM629,453h11v11h-11zM640,453h11v11h-11zM662,453h11v11h-11zM178,464h11v11h-11zM200,464h11v11h-11zM211,464h11v11h-11zM222,464h11v11h-11zM244,464h11v11h-11zM266,464h11v11h-11zM288,464h11v11h-11zM310,464h11v11h-11zM321,464h11v11h-11zM332,464h11v11h-11zM354,464h11v11h-11zM376,464h11v11h-11zM398,464h11v11h-11zM409,464h11v11h-11zM420,464h11v11h-11zM431,464h11v11h-11zM442,464h11v11h-11zM453,464h11v11h-11zM475,464h11v11h-11zM508,464h11v11h-11zM552,464h11v11h-11zM563,464h11v11h-11zM574,464h11v11h-11zM596,464h11v11h-11zM618,464h11v11h-11zM629,464h11v11h-11zM640,464h11v11h-11zM662,464h11v11h-11zM178,475h11v11h-11zM244,475h11v11h-11zM277,475h11v11h-11zM288,475h11v11h-11zM299,475h11v11h-11zM310,475h11v11h-11zM332,475h11v11h-11zM376,475h11v11h-11zM398,475h11v11h-11zM442,475h11v11h-11zM475,475h11v11h-11zM497,475h11v11h-11zM519,475h11v11h-11zM530,475h11v11h-11zM596,475h11v11h-11zM662,475h11v11h-11zM178,486h11v11h-11zM189,486h11v11h-11zM200,486h11v11h-11zM211,486h11v11h-11zM222,486h11v11h-11zM233,486h11v11h-11zM244,486h11v11h-11zM266,486h11v11h-11zM288,486h11v11h-11zM310,486h11v11h-11zM332,486h11v11h-11zM354,486h11v11h-11zM376,486h11v11h-11zM398,486h11v11h-11zM420,486h11v11h-11zM442,486h11v11h-11zM464,486h11v11h-11zM486,486h11v11h-11zM508,486h11v11h-11zM530,486h11v11h-11zM552,486h11v11h-11zM574,486h11v11h-11zM596,486h11v11h-11zM607,486h11v11h-11zM618,486h11v11h-11zM629,486h11v11h-11zM640,486h11v11h-11zM651,486h11v11h-11zM662,486h11v11h-11zM266,497h11v11h-11zM277,497h11v11h-11zM299,497h11v11h-11zM310,497h11v11h-11zM321,497h11v11h-11zM343,497h11v11h-11zM354,497h11v11h-11zM387,497h11v11h-11zM398,497h11v11h-11zM442,497h11v11h-11zM453,497h11v11h-11zM464,497h11v11h-11zM486,497h11v11h-11zM508,497h11v11h-11zM574,497h11v11h-11zM189,508h11v11h-11zM211,508h11v11h-11zM222,508h11v11h-11zM233,508h11v11h-11zM244,508h11v11h-11zM266,508h11v11h-11zM288,508h11v11h-11zM310,508h11v11h-11zM332,508h11v11h-11zM398,508h11v11h-11zM409,508h11v11h-11zM420,508h11v11h-11zM431,508h11v11h-11zM442,508h11v11h-11zM486,508h11v11h-11zM497,508h11v11h-11zM519,508h11v11h-11zM541,508h11v11h-11zM563,508h11v11h-11zM585,508h11v11h-11zM596,508h11v11h-11zM618,508h11v11h-11zM629,508h11v11h-11zM651,508h11v11h-11zM178,519h11v11h-11zM200,519h11v11h-11zM222,519h11v11h-11zM255,519h11v11h-11zM277,519h11v11h-11zM288,519h11v11h-11zM365,519h11v11h-11zM376,519h11v11h-11zM409,519h11v11h-11zM431,519h11v11h-11zM442,519h11v11h-11zM453,519h11v11h-11zM464,519h11v11h-11zM497,519h11v11h-11zM508,519h11v11h-11zM530,519h11v11h-11zM563,519h11v11h-11zM574,519h11v11h-11zM585,519h11v11h-11zM596,519h11v11h-11zM618,519h11v11h-11zM640,519h11v11h-11zM651,519h11v11h-11zM178,530h11v11h-11zM189,530h11v11h-11zM211,530h11v11h-11zM222,530h11v11h-11zM233,530h11v11h-11zM244,530h11v11h-11zM310,530h11v11h-11zM332,530h11v11h-11zM354,530h11v11h-11zM387,530h11v11h-11zM398,530h11v11h-11zM442,530h11v11h-11zM453,530h11v11h-11zM486,530h11v11h-11zM497,530h11v11h-11zM530,530h11v11h-11zM563,530h11v11h-11zM585,530h11v11h-11zM629,530h11v11h-11zM640,530h11v11h-11zM651,530h11v11h-11zM662,530h11v11h-11zM178,541h11v11h-11zM200,541h11v11h-11zM211,541h11v11h-11zM266,541h11v11h-11zM310,541h11v11h-11zM332,541h11v11h-11zM365,541h11v11h-11zM376,541h11v11h-11zM409,541h11v11h-11zM431,541h11v11h-11zM442,541h11v11h-11zM530,541h11v11h-11zM552,541h11v11h-11zM585,541h11v11h-11zM618,541h11v11h-11zM629,541h11v11h-11zM640,541h11v11h-11zM651,541h11v11h-11zM662,541h11v11h-11zM189,552h11v11h-11zM233,552h11v11h-11zM244,552h11v11h-11zM266,552h11v11h-11zM288,552h11v11h-11zM310,552h11v11h-11zM321,552h11v11h-11zM343,552h11v11h-11zM354,552h11v11h-11zM365,552h11v11h-11zM376,552h11v11h-11zM387,552h11v11h-11zM398,552h11v11h-11zM431,552h11v11h-11zM442,552h11v11h-11zM453,552h11v11h-11zM464,552h11v11h-11zM486,552h11v11h-11zM519,552h11v11h-11zM530,552h11v11h-11zM541,552h11v11h-11zM552,552h11v11h-11zM563,552h11v11h-11zM585,552h11v11h-11zM596,552h11v11h-11zM607,552h11v11h-11zM618,552h11v11h-11zM629,552h11v11h-11zM651,552h11v11h-11zM662,552h11v11h-11zM178,563h11v11h-11zM189,563h11v11h-11zM200,563h11v11h-11zM211,563h11v11h-11zM255,563h11v11h-11zM266,563h11v11h-11zM288,563h11v11h-11zM299,563h11v11h-11zM310,563h11v11h-11zM321,563h11v11h-11zM343,563h11v11h-11zM354,563h11v11h-11zM365,563h11v11h-11zM409,563h11v11h-11zM420,563h11v11h-11zM431,563h11v11h-11zM442,563h11v11h-11zM453,563h11v11h-11zM464,563h11v11h-11zM497,563h11v11h-11zM508,563h11v11h-11zM519,563h11v11h-11zM530,563h11v11h-11zM563,563h11v11h-11zM574,563h11v11h-11zM585,563h11v11h-11zM596,563h11v11h-11zM640,563h11v11h-11zM651,563h11v11h-11zM200,574h11v11h-11zM244,574h11v11h-11zM255,574h11v11h-11zM288,574h11v11h-11zM310,574h11v11h-11zM321,574h11v11h-11zM343,574h11v11h-11zM354,574h11v11h-11zM387,574h11v11h-11zM409,574h11v11h-11zM420,574h11v11h-11zM442,574h11v11h-11zM453,574h11v11h-11zM475,574h11v11h-11zM486,574h11v11h-11zM541,574h11v11h-11zM552,574h11v11h-11zM585,574h11v11h-11zM596,574h11v11h-11zM607,574h11v11h-11zM618,574h11v11h-11zM640,574h11v11h-11zM178,585h11v11h-11zM222,585h11v11h-11zM255,585h11v11h-11zM266,585h11v11h-11zM288,585h11v11h-11zM299,585h11v11h-11zM310,585h11v11h-11zM354,585h11v11h-11zM365,585h11v11h-11zM387,585h11v11h-11zM409,585h11v11h-11zM420,585h11v11h-11zM442,585h11v11h-11zM464,585h11v11h-11zM475,585h11v11h-11zM574,585h11v11h-11zM585,585h11v11h-11zM607,585h11v11h-11zM618,585h11v11h-11zM651,585h11v11h-11zM662,585h11v11h-11zM189,596h11v11h-11zM222,596h11v11h-11zM233,596h11v11h-11zM244,596h11v11h-11zM255,596h11v11h-11zM277,596h11v11h-11zM288,596h11v11h-11zM299,596h11v11h-11zM310,596h11v11h-11zM321,596h11v11h-11zM332,596h11v11h-11zM343,596h11v11h-11zM354,596h11v11h-11zM398,596h11v11h-11zM431,596h11v11h-11zM442,596h11v11h-11zM508,596h11v11h-11zM519,596h11v11h-11zM530,596h11v11h-11zM541,596h11v11h-11zM552,596h11v11h-11zM585,596h11v11h-11zM618,596h11v11h-11zM629,596h11v11h-11zM640,596h11v11h-11zM651,596h11v11h-11zM178,607h11v11h-11zM200,607h11v11h-11zM211,607h11v11h-11zM233,607h11v11h-11zM266,607h11v11h-11zM277,607h11v11h-11zM310,607h11v11h-11zM321,607h11v11h-11zM343,607h11v11h-11zM354,607h11v11h-11zM365,607h11v11h-11zM431,607h11v11h-11zM442,607h11v11h-11zM475,607h11v11h-11zM530,607h11v11h-11zM552,607h11v11h-11zM563,607h11v11h-11zM574,607h11v11h-11zM585,607h11v11h-11zM618,607h11v11h-11zM629,607h11v11h-11zM640,607h11v11h-11zM662,607h11v11h-11zM178,618h11v11h-11zM211,618h11v11h-11zM244,618h11v11h-11zM255,618h11v11h-11zM299,618h11v11h-11zM321,618h11v11h-11zM332,618h11v11h-11zM343,618h11v11h-11zM376,618h11v11h-11zM398,618h11v11h-11zM431,618h11v11h-11zM453,618h11v11h-11zM464,618h11v11h-11zM475,618h11v11h-11zM486,618h11v11h-11zM497,618h11v11h-11zM519,618h11v11h-11zM530,618h11v11h-11zM541,618h11v11h-11zM585,618h11v11h-11zM629,618h11v11h-11zM640,618h11v11h-11zM662,618h11v11h-11zM178,629h11v11h-11zM189,629h11v11h-11zM211,629h11v11h-11zM233,629h11v11h-11zM266,629h11v11h-11zM299,629h11v11h-11zM321,629h11v11h-11zM343,629h11v11h-11zM354,629h11v11h-11zM365,629h11v11h-11zM376,629h11v11h-11zM409,629h11v11h-11zM420,629h11v11h-11zM431,629h11v11h-11zM453,629h11v11h-11zM464,629h11v11h-11zM475,629h11v11h-11zM508,629h11v11h-11zM519,629h11v11h-11zM541,629h11v11h-11zM552,629h11v11h-11zM574,629h11v11h-11zM618,629h11v11h-11zM640,629h11v11h-11zM662,629h11v11h-11zM178,640h11v11h-11zM222,640h11v11h-11zM233,640h11v11h-11zM244,640h11v11h-11zM255,640h11v11h-11zM266,640h11v11h-11zM277,640h11v11h-11zM288,640h11v11h-11zM310,640h11v11h-11zM321,640h11v11h-11zM354,640h11v11h-11zM398,640h11v11h-11zM409,640h11v11h-11zM420,640h11v11h-11zM431,640h11v11h-11zM442,640h11v11h-11zM475,640h11v11h-11zM486,640h11v11h-11zM497,640h11v11h-11zM508,640h11v11h-11zM574,640h11v11h-11zM585,640h11v11h-11zM596,640h11v11h-11zM607,640h11v11h-11zM618,640h11v11h-11zM640,640h11v11h-11zM178,651h11v11h-11zM200,651h11v11h-11zM211,651h11v11h-11zM222,651h11v11h-11zM266,651h11v11h-11zM288,651h11v11h-11zM299,651h11v11h-11zM321,651h11v11h-11zM332,651h11v11h-11zM354,651h11v11h-11zM398,651h11v11h-11zM442,651h11v11h-11zM464,651h11v11h-11zM475,651h11v11h-11zM486,651h11v11h-11zM508,651h11v11h-11zM519,651h11v11h-11zM530,651h11v11h-11zM541,651h11v11h-11zM552,651h11v11h-11zM574,651h11v11h-11zM618,651h11v11h-11zM662,651h11v11h-11zM189,662h11v11h-11zM211,662h11v11h-11zM222,662h11v11h-11zM244,662h11v11h-11zM266,662h11v11h-11zM288,662h11v11h-11zM299,662h11v11h-11zM310,662h11v11h-11zM321,662h11v11h-11zM332,662h11v11h-11zM365,662h11v11h-11zM387,662h11v11h-11zM398,662h11v11h-11zM420,662h11v11h-11zM442,662h11v11h-11zM453,662h11v11h-11zM464,662h11v11h-11zM475,662h11v11h-11zM508,662h11v11h-11zM519,662h11v11h-11zM552,662h11v11h-11zM563,662h11v11h-11zM574,662h11v11h-11zM596,662h11v11h-11zM618,662h11v11h-11zM629,662h11v11h-11zM640,662h11v11h-11zM662,662h11v11h-11zM178,673h11v11h-11zM211,673h11v11h-11zM222,673h11v11h-11zM266,673h11v11h-11zM277,673h11v11h-11zM321,673h11v11h-11zM332,673h11v11h-11zM365,673h11v11h-11zM376,673h11v11h-11zM398,673h11v11h-11zM442,673h11v11h-11zM453,673h11v11h-11zM486,673h11v11h-11zM497,673h11v11h-11zM530,673h11v11h-11zM541,673h11v11h-11zM552,673h11v11h-11zM563,673h11v11h-11zM574,673h11v11h-11zM618,673h11v11h-11zM640,673h11v11h-11zM662,673h11v11h-11zM189,684h11v11h-11zM200,684h11v11h-11zM211,684h11v11h-11zM222,684h11v11h-11zM233,684h11v11h-11zM244,684h11v11h-11zM255,684h11v11h-11zM266,684h11v11h-11zM277,684h11v11h-11zM299,684h11v11h-11zM398,684h11v11h-11zM409,684h11v11h-11zM420,684h11v11h-11zM431,684h11v11h-11zM442,684h11v11h-11zM464,684h11v11h-11zM475,684h11v11h-11zM486,684h11v11h-11zM508,684h11v11h-11zM530,684h11v11h-11zM541,684h11v11h-11zM563,684h11v11h-11zM574,684h11v11h-11zM585,684h11v11h-11zM596,684h11v11h-11zM607,684h11v11h-11zM618,684h11v11h-11zM662,684h11v11h-11zM178,695h11v11h-11zM189,695h11v11h-11zM200,695h11v11h-11zM211,695h11v11h-11zM222,695h11v11h-11zM255,695h11v11h-11zM288,695h11v11h-11zM310,695h11v11h-11zM321,695h11v11h-11zM332,695h11v11h-11zM387,695h11v11h-11zM431,695h11v11h-11zM453,695h11v11h-11zM464,695h11v11h-11zM497,695h11v11h-11zM508,695h11v11h-11zM541,695h11v11h-11zM563,695h11v11h-11zM574,695h11v11h-11zM585,695h11v11h-11zM607,695h11v11h-11zM640,695h11v11h-11zM651,695h11v11h-11zM662,695h11v11h-11zM189,706h11v11h-11zM200,706h11v11h-11zM211,706h11v11h-11zM222,706h11v11h-11zM233,706h11v11h-11zM244,706h11v11h-11zM255,706h11v11h-11zM266,706h11v11h-11zM277,706h11v11h-11zM288,706h11v11h-11zM321,706h11v11h-11zM332,706h11v11h-11zM354,706h11v11h-11zM365,706h11v11h-11zM387,706h11v11h-11zM409,706h11v11h-11zM431,706h11v11h-11zM442,706h11v11h-11zM464,706h11v11h-11zM475,706h11v11h-11zM486,706h11v11h-11zM497,706h11v11h-11zM530,706h11v11h-11zM541,706h11v11h-11zM563,706h11v11h-11zM574,706h11v11h-11zM618,706h11v11h-11zM629,706h11v11h-11zM640,706h11v11h-11zM651,706h11v11h-11zM189,717h11v11h-11zM200,717h11v11h-11zM266,717h11v11h-11zM299,717h11v11h-11zM310,717h11v11h-11zM332,717h11v11h-11zM354,717h11v11h-11zM376,717h11v11h-11zM387,717h11v11h-11zM398,717h11v11h-11zM442,717h11v11h-11zM464,717h11v11h-11zM475,717h11v11h-11zM486,717h11v11h-11zM497,717h11v11h-11zM519,717h11v11h-11zM530,717h11v11h-11zM541,717h11v11h-11zM552,717h11v11h-11zM574,717h11v11h-11zM585,717h11v11h-11zM629,717h11v11h-11zM640,717h11v11h-11zM662,717h11v11h-11zM178,728h11v11h-11zM189,728h11v11h-11zM200,728h11v11h-11zM222,728h11v11h-11zM233,728h11v11h-11zM244,728h11v11h-11zM266,728h11v11h-11zM288,728h11v11h-11zM299,728h11v11h-11zM310,728h11v11h-11zM321,728h11v11h-11zM332,728h11v11h-11zM354,728h11v11h-11zM365,728h11v11h-11zM387,728h11v11h-11zM409,728h11v11h-11zM420,728h11v11h-11zM475,728h11v11h-11zM497,728h11v11h-11zM530,728h11v11h-11zM563,728h11v11h-11zM574,728h11v11h-11zM585,728h11v11h-11zM596,728h11v11h-11zM607,728h11v11h-11zM618,728h11v11h-11zM629,728h11v11h-11zM662,728h11v11h-11zM189,739h11v11h-11zM222,739h11v11h-11zM233,739h11v11h-11zM332,739h11v11h-11zM409,739h11v11h-11zM420,739h11v11h-11zM464,739h11v11h-11zM486,739h11v11h-11zM508,739h11v11h-11zM519,739h11v11h-11zM541,739h11v11h-11zM552,739h11v11h-11zM563,739h11v11h-11zM574,739h11v11h-11zM607,739h11v11h-11zM618,739h11v11h-11zM640,739h11v11h-11zM651,739h11v11h-11zM662,739h11v11h-11zM189,750h11v11h-11zM200,750h11v11h-11zM222,750h11v11h-11zM233,750h11v11h-11zM244,750h11v11h-11zM266,750h11v11h-11zM288,750h11v11h-11zM310,750h11v11h-11zM332,750h11v11h-11zM343,750h11v11h-11zM354,750h11v11h-11zM365,750h11v11h-11zM376,750h11v11h-11zM398,750h11v11h-11zM409,750h11v11h-11zM420,750h11v11h-11zM431,750h11v11h-11zM453,750h11v11h-11zM464,750h11v11h-11zM475,750h11v11h-11zM486,750h11v11h-11zM519,750h11v11h-11zM530,750h11v11h-11zM541,750h11v11h-11zM563,750h11v11h-11zM585,750h11v11h-11zM596,750h11v11h-11zM618,750h11v11h-11zM629,750h11v11h-11zM640,750h11v11h-11zM662,750h11v11h-11zM222,761h11v11h-11zM255,761h11v11h-11zM299,761h11v11h-11zM310,761h11v11h-11zM321,761h11v11h-11zM332,761h11v11h-11zM365,761h11v11h-11zM431,761h11v11h-11zM486,761h11v11h-11zM497,761h11v11h-11zM508,761h11v11h-11zM519,761h11v11h-11zM530,761h11v11h-11zM563,761h11v11h-11zM585,761h11v11h-11zM596,761h11v11h-11zM618,761h11v11h-11zM629,761h11v11h-11zM640,761h11v11h-11zM651,761h11v11h-11zM662,761h11v11h-11zM178,772h11v11h-11zM200,772h11v11h-11zM244,772h11v11h-11zM277,772h11v11h-11zM288,772h11v11h-11zM321,772h11v11h-11zM332,772h11v11h-11zM343,772h11v11h-11zM376,772h11v11h-11zM398,772h11v11h-11zM420,772h11v11h-11zM431,772h11v11h-11zM464,772h11v11h-11zM475,772h11v11h-11zM486,772h11v11h-11zM497,772h11v11h-11zM508,772h11v11h-11zM519,772h11v11h-11zM552,772h11v11h-11zM585,772h11v11h-11zM607,772h11v11h-11zM651,772h11v11h-11zM178,783h11v11h-11zM255,783h11v11h-11zM266,783h11v11h-11zM288,783h11v11h-11zM343,783h11v11h-11zM387,783h11v11h-11zM409,783h11v11h-11zM453,783h11v11h-11zM486,783h11v11h-11zM497,783h11v11h-11zM508,783h11v11h-11zM530,783h11v11h-11zM541,783h11v11h-11zM552,783h11v11h-11zM563,783h11v11h-11zM574,783h11v11h-11zM596,783h11v11h-11zM607,783h11v11h-11zM618,783h11v11h-11zM629,783h11v11h-11zM222,794h11v11h-11zM244,794h11v11h-11zM255,794h11v11h-11zM288,794h11v11h-11zM387,794h11v11h-11zM409,794h11v11h-11zM420,794h11v11h-11zM442,794h11v11h-11zM453,794h11v11h-11zM486,794h11v11h-11zM497,794h11v11h-11zM541,794h11v11h-11zM552,794h11v11h-11zM563,794h11v11h-11zM574,794h11v11h-11zM596,794h11v11h-11zM651,794h11v11h-11zM662,794h11v11h-11zM189,805h11v11h-11zM200,805h11v11h-11zM211,805h11v11h-11zM222,805h11v11h-11zM255,805h11v11h-11zM288,805h11v11h-11zM299,805h11v11h-11zM310,805h11v11h-11zM321,805h11v11h-11zM365,805h11v11h-11zM376,805h11v11h-11zM398,805h11v11h-11zM420,805h11v11h-11zM431,805h11v11h-11zM464,805h11v11h-11zM475,805h11v11h-11zM497,805h11v11h-11zM508,805h11v11h-11zM519,805h11v11h-11zM530,805h11v11h-11zM541,805h11v11h-11zM574,805h11v11h-11zM640,805h11v11h-11zM651,805h11v11h-11zM178,816h11v11h-11zM211,816h11v11h-11zM222,816h11v11h-11zM244,816h11v11h-11zM266,816h11v11h-11zM288,816h11v11h-11zM321,816h11v11h-11zM332,816h11v11h-11zM398,816h11v11h-11zM409,816h11v11h-11zM420,816h11v11h-11zM431,816h11v11h-11zM442,816h11v11h-11zM486,816h11v11h-11zM497,816h11v11h-11zM530,816h11v11h-11zM541,816h11v11h-11zM563,816h11v11h-11zM574,816h11v11h-11zM585,816h11v11h-11zM596,816h11v11h-11zM607,816h11v11h-11zM618,816h11v11h-11zM629,816h11v11h-11zM662,816h11v11h-11zM266,827h11v11h-11zM299,827h11v11h-11zM321,827h11v11h-11zM354,827h11v11h-11zM365,827h11v11h-11zM387,827h11v11h-11zM398,827h11v11h-11zM442,827h11v11h-11zM475,827h11v11h-11zM486,827h11v11h-11zM508,827h11v11h-11zM541,827h11v11h-11zM552,827h11v11h-11zM574,827h11v11h-11zM618,827h11v11h-11zM640,827h11v11h-11zM651,827h11v11h-11zM178,838h11v11h-11zM189,838h11v11h-11zM200,838h11v11h-11zM211,838h11v11h-11zM222,838h11v11h-11zM233,838h11v11h-11zM244,838h11v11h-11zM277,838h11v11h-11zM288,838h11v11h-11zM299,838h11v11h-11zM310,838h11v11h-11zM321,838h11v11h-11zM332,838h11v11h-11zM343,838h11v11h-11zM354,838h11v11h-11zM376,838h11v11h-11zM387,838h11v11h-11zM398,838h11v11h-11zM420,838h11v11h-11zM442,838h11v11h-11zM453,838h11v11h-11zM475,838h11v11h-11zM486,838h11v11h-11zM497,838h11v11h-11zM508,838h11v11h-11zM519,838h11v11h-11zM541,838h11v11h-11zM552,838h11v11h-11zM563,838h11v11h-11zM574,838h11v11h-11zM596,838h11v11h-11zM618,838h11v11h-11zM651,838h11v11h-11zM178,849h11v11h-11zM244,849h11v11h-11zM266,849h11v11h-11zM277,849h11v11h-11zM288,849h11v11h-11zM299,849h11v11h-11zM310,849h11v11h-11zM332,849h11v11h-11zM354,849h11v11h-11zM387,849h11v11h-11zM398,849h11v11h-11zM442,849h11v11h-11zM453,849h11v11h-11zM475,849h11v11h-11zM519,849h11v11h-11zM541,849h11v11h-11zM563,849h11v11h-11zM574,849h11v11h-11zM618,849h11v11h-11zM640,849h11v11h-11zM662,849h11v11h-11zM178,860h11v11h-11zM200,860h11v11h-11zM211,860h11v11h-11zM222,860h11v11h-11zM244,860h11v11h-11zM266,860h11v11h-11zM277,860h11v11h-11zM288,860h11v11h-11zM299,860h11v11h-11zM332,860h11v11h-11zM343,860h11v11h-11zM354,860h11v11h-11zM376,860h11v11h-11zM387,860h11v11h-11zM398,860h11v11h-11zM409,860h11v11h-11zM420,860h11v11h-11zM431,860h11v11h-11zM442,860h11v11h-11zM453,860h11v11h-11zM497,860h11v11h-11zM508,860h11v11h-11zM519,860h11v11h-11zM530,860h11v11h-11zM552,860h11v11h-11zM574,860h11v11h-11zM585,860h11v11h-11zM596,860h11v11h-11zM607,860h11v11h-11zM618,860h11v11h-11zM640,860h11v11h-11zM651,860h11v11h-11zM662,860h11v11h-11zM178,871h11v11h-11zM200,871h11v11h-11zM211,871h11v11h-11zM222,871h11v11h-11zM244,871h11v11h-11zM266,871h11v11h-11zM288,871h11v11h-11zM310,871h11v11h-11zM343,871h11v11h-11zM354,871h11v11h-11zM365,871h11v11h-11zM376,871h11v11h-11zM387,871h11v11h-11zM420,871h11v11h-11zM453,871h11v11h-11zM497,871h11v11h-11zM508,871h11v11h-11zM519,871h11v11h-11zM552,871h11v11h-11zM563,871h11v11h-11zM607,871h11v11h-11zM629,871h11v11h-11zM640,871h11v11h-11zM651,871h11v11h-11zM662,871h11v11h-11zM178,882h11v11h-11zM200,882h11v11h-11zM211,882h11v11h-11zM222,882h11v11h-11zM244,882h11v11h-11zM277,882h11v11h-11zM288,882h11v11h-11zM299,882h11v11h-11zM310,882h11v11h-11zM354,882h11v11h-11zM376,882h11v11h-11zM387,882h11v11h-11zM398,882h11v11h-11zM409,882h11v11h-11zM431,882h11v11h-11zM464,882h11v11h-11zM475,882h11v11h-11zM486,882h11v11h-11zM497,882h11v11h-11zM508,882h11v11h-11zM530,882h11v11h-11zM541,882h11v11h-11zM574,882h11v11h-11zM585,882h11v11h-11zM596,882h11v11h-11zM618,882h11v11h-11zM629,882h11v11h-11zM640,882h11v11h-11zM651,882h11v11h-11zM662,882h11v11h-11zM178,893h11v11h-11zM244,893h11v11h-11zM266,893h11v11h-11zM299,893h11v11h-11zM321,893h11v11h-11zM376,893h11v11h-11zM409,893h11v11h-11zM431,893h11v11h-11zM442,893h11v11h-11zM453,893h11v11h-11zM497,893h11v11h-11zM519,893h11v11h-11zM552,893h11v11h-11zM563,893h11v11h-11zM574,893h11v11h-11zM596,893h11v11h-11zM640,893h11v11h-11zM651,893h11v11h-11zM662,893h11v11h-11zM178,904h11v11h-11zM189,904h11v11h-11zM200,904h11v11h-11zM211,904h11v11h-11zM222,904h11v11h-11zM233,904h11v11h-11zM244,904h11v11h-11zM277,904h11v11h-11zM288,904h11v11h-11zM299,904h11v11h-11zM321,904h11v11h-11zM343,904h11v11h-11zM354,904h11v11h-11zM398,904h11v11h-11zM431,904h11v11h-11zM453,904h11v11h-11zM519,904h11v11h-11zM541,904h11v11h-11zM552,904h11v11h-11zM563,904h11v11h-11zM596,904h11v11h-11zM618,904h11v11h-11zM640,904h11v11h-11z" fill="#020617"/>

  <rect x="48" y="1034" width="754" height="118" rx="20" fill="#f8fafc" stroke="#e2e8f0" stroke-width="2"/>
  <text x="76" y="1072" font-family="Arial, Helvetica, sans-serif" font-size="23" font-weight="900" fill="#0f172a">GUA-01</text>
  <text x="76" y="1102" font-family="Arial, Helvetica, sans-serif" font-size="17" fill="#334155">GUA-01 First Aid Box</text>
  <text x="76" y="1127" font-family="Arial, Helvetica, sans-serif" font-size="17" fill="#334155">Area: External</text>
  <text x="76" y="1152" font-family="Arial, Helvetica, sans-serif" font-size="17" fill="#334155">Location: Guard Post 2</text>

  <text x="425" y="1212" text-anchor="middle" font-family="Arial, Helvetica, sans-serif" font-size="15" font-weight="700" fill="#64748b">Opens first-aid-box-inspection.vercel.app</text>
</svg>
