<?xml version="1.0" encoding="UTF-8"?>
<svg xmlns="http://www.w3.org/2000/svg" width="850" height="1240" viewBox="0 0 850 1240" role="img" aria-label="OFF-01 Inspection QR">
  <rect width="100%" height="100%" rx="34" fill="#ffffff"/>
  <rect x="0" y="0" width="850" height="104" rx="34" fill="#0b7fc3"/>
  <text x="58" y="66" font-family="Arial, Helvetica, sans-serif" font-size="34" font-weight="800" fill="#ffffff">TAMCO</text>
  <text x="792" y="50" text-anchor="end" font-family="Arial, Helvetica, sans-serif" font-size="18" font-weight="700" fill="#dff4ff">First Aid Box</text>
  <text x="792" y="74" text-anchor="end" font-family="Arial, Helvetica, sans-serif" font-size="16" fill="#dff4ff">QR access label</text>

  <rect x="48" y="128" width="754" height="142" rx="26" fill="#dc2626"/>
  <text x="425" y="196" text-anchor="middle" font-family="Arial, Helvetica, sans-serif" font-size="64" font-weight="900" fill="#ffffff">INSPECTION</text>
  <text x="425" y="236" text-anchor="middle" font-family="Arial, Helvetica, sans-serif" font-size="25" font-weight="800" fill="#ffffff">SCAN TO INSPECT THIS BOX</text>

  <text x="425" y="316" text-anchor="middle" font-family="Arial, Helvetica, sans-serif" font-size="40" font-weight="900" fill="#0f172a">OFF-01</text>
  <text x="425" y="344" text-anchor="middle" font-family="Arial, Helvetica, sans-serif" font-size="20" font-weight="700" fill="#475569">Monthly first aid box checklist</text>

  <rect x="105" y="347" width="641" height="641" rx="24" fill="#f8fafc" stroke="#cbd5e1" stroke-width="2"/>
  <rect x="123" y="365" width="605" height="605" fill="#ffffff"/>
  <path d="M178,420h11v11h-11zM189,420h11v11h-11zM200,420h11v11h-11zM211,420h11v11h-11zM222,420h11v11h-11zM233,420h11v11h-11zM244,420h11v11h-11zM277,420h11v11h-11zM310,420h11v11h-11zM332,420h11v11h-11zM343,420h11v11h-11zM398,420h11v11h-11zM464,420h11v11h-11zM497,420h11v11h-11zM508,420h11v11h-11zM519,420h11v11h-11zM574,420h11v11h-11zM596,420h11v11h-11zM607,420h11v11h-11zM618,420h11v11h-11zM629,420h11v11h-11zM640,420h11v11h-11zM651,420h11v11h-11zM662,420h11v11h-11zM178,431h11v11h-11zM244,431h11v11h-11zM277,431h11v11h-11zM288,431h11v11h-11zM299,431h11v11h-11zM310,431h11v11h-11zM321,431h11v11h-11zM332,431h11v11h-11zM354,431h11v11h-11zM376,431h11v11h-11zM387,431h11v11h-11zM398,431h11v11h-11zM420,431h11v11h-11zM453,431h11v11h-11zM464,431h11v11h-11zM475,431h11v11h-11zM486,431h11v11h-11zM530,431h11v11h-11zM563,431h11v11h-11zM596,431h11v11h-11zM662,431h11v11h-11zM178,442h11v11h-11zM200,442h11v11h-11zM211,442h11v11h-11zM222,442h11v11h-11zM244,442h11v11h-11zM266,442h11v11h-11zM299,442h11v11h-11zM332,442h11v11h-11zM354,442h11v11h-11zM365,442h11v11h-11zM376,442h11v11h-11zM398,442h11v11h-11zM442,442h11v11h-11zM497,442h11v11h-11zM508,442h11v11h-11zM519,442h11v11h-11zM541,442h11v11h-11zM563,442h11v11h-11zM596,442h11v11h-11zM618,442h11v11h-11zM629,442h11v11h-11zM640,442h11v11h-11zM662,442h11v11h-11zM178,453h11v11h-11zM200,453h11v11h-11zM211,453h11v11h-11zM222,453h11v11h-11zM244,453h11v11h-11zM277,453h11v11h-11zM299,453h11v11h-11zM310,453h11v11h-11zM332,453h11v11h-11zM354,453h11v11h-11zM365,453h11v11h-11zM387,453h11v11h-11zM398,453h11v11h-11zM409,453h11v11h-11zM442,453h11v11h-11zM453,453h11v11h-11zM475,453h11v11h-11zM486,453h11v11h-11zM563,453h11v11h-11zM574,453h11v11h-11zM596,453h11v11h-11zM618,453h11v11h-11zM629,453h11v11h-11zM640,453h11v11h-11zM662,453h11v11h-11zM178,464h11v11h-11zM200,464h11v11h-11zM211,464h11v11h-11zM222,464h11v11h-11zM244,464h11v11h-11zM266,464h11v11h-11zM277,464h11v11h-11zM288,464h11v11h-11zM299,464h11v11h-11zM310,464h11v11h-11zM321,464h11v11h-11zM343,464h11v11h-11zM354,464h11v11h-11zM376,464h11v11h-11zM387,464h11v11h-11zM398,464h11v11h-11zM409,464h11v11h-11zM420,464h11v11h-11zM431,464h11v11h-11zM442,464h11v11h-11zM453,464h11v11h-11zM464,464h11v11h-11zM486,464h11v11h-11zM497,464h11v11h-11zM508,464h11v11h-11zM530,464h11v11h-11zM541,464h11v11h-11zM552,464h11v11h-11zM563,464h11v11h-11zM574,464h11v11h-11zM596,464h11v11h-11zM618,464h11v11h-11zM629,464h11v11h-11zM640,464h11v11h-11zM662,464h11v11h-11zM178,475h11v11h-11zM244,475h11v11h-11zM266,475h11v11h-11zM288,475h11v11h-11zM299,475h11v11h-11zM310,475h11v11h-11zM321,475h11v11h-11zM332,475h11v11h-11zM354,475h11v11h-11zM365,475h11v11h-11zM376,475h11v11h-11zM387,475h11v11h-11zM398,475h11v11h-11zM442,475h11v11h-11zM464,475h11v11h-11zM475,475h11v11h-11zM486,475h11v11h-11zM519,475h11v11h-11zM530,475h11v11h-11zM596,475h11v11h-11zM662,475h11v11h-11zM178,486h11v11h-11zM189,486h11v11h-11zM200,486h11v11h-11zM211,486h11v11h-11zM222,486h11v11h-11zM233,486h11v11h-11zM244,486h11v11h-11zM266,486h11v11h-11zM288,486h11v11h-11zM310,486h11v11h-11zM332,486h11v11h-11zM354,486h11v11h-11zM376,486h11v11h-11zM398,486h11v11h-11zM420,486h11v11h-11zM442,486h11v11h-11zM464,486h11v11h-11zM486,486h11v11h-11zM508,486h11v11h-11zM530,486h11v11h-11zM552,486h11v11h-11zM574,486h11v11h-11zM596,486h11v11h-11zM607,486h11v11h-11zM618,486h11v11h-11zM629,486h11v11h-11zM640,486h11v11h-11zM651,486h11v11h-11zM662,486h11v11h-11zM277,497h11v11h-11zM288,497h11v11h-11zM310,497h11v11h-11zM321,497h11v11h-11zM365,497h11v11h-11zM376,497h11v11h-11zM387,497h11v11h-11zM398,497h11v11h-11zM442,497h11v11h-11zM475,497h11v11h-11zM497,497h11v11h-11zM519,497h11v11h-11zM530,497h11v11h-11zM552,497h11v11h-11zM563,497h11v11h-11zM189,508h11v11h-11zM222,508h11v11h-11zM244,508h11v11h-11zM266,508h11v11h-11zM277,508h11v11h-11zM299,508h11v11h-11zM310,508h11v11h-11zM321,508h11v11h-11zM343,508h11v11h-11zM354,508h11v11h-11zM398,508h11v11h-11zM409,508h11v11h-11zM420,508h11v11h-11zM431,508h11v11h-11zM442,508h11v11h-11zM464,508h11v11h-11zM475,508h11v11h-11zM497,508h11v11h-11zM519,508h11v11h-11zM530,508h11v11h-11zM552,508h11v11h-11zM563,508h11v11h-11zM585,508h11v11h-11zM607,508h11v11h-11zM618,508h11v11h-11zM640,508h11v11h-11zM178,519h11v11h-11zM211,519h11v11h-11zM233,519h11v11h-11zM288,519h11v11h-11zM299,519h11v11h-11zM310,519h11v11h-11zM321,519h11v11h-11zM354,519h11v11h-11zM365,519h11v11h-11zM376,519h11v11h-11zM398,519h11v11h-11zM409,519h11v11h-11zM420,519h11v11h-11zM431,519h11v11h-11zM464,519h11v11h-11zM486,519h11v11h-11zM497,519h11v11h-11zM508,519h11v11h-11zM563,519h11v11h-11zM574,519h11v11h-11zM596,519h11v11h-11zM640,519h11v11h-11zM178,530h11v11h-11zM200,530h11v11h-11zM211,530h11v11h-11zM222,530h11v11h-11zM233,530h11v11h-11zM244,530h11v11h-11zM288,530h11v11h-11zM310,530h11v11h-11zM332,530h11v11h-11zM376,530h11v11h-11zM420,530h11v11h-11zM431,530h11v11h-11zM453,530h11v11h-11zM464,530h11v11h-11zM497,530h11v11h-11zM508,530h11v11h-11zM519,530h11v11h-11zM541,530h11v11h-11zM563,530h11v11h-11zM574,530h11v11h-11zM585,530h11v11h-11zM596,530h11v11h-11zM618,530h11v11h-11zM629,530h11v11h-11zM651,530h11v11h-11zM178,541h11v11h-11zM211,541h11v11h-11zM266,541h11v11h-11zM277,541h11v11h-11zM299,541h11v11h-11zM343,541h11v11h-11zM365,541h11v11h-11zM387,541h11v11h-11zM398,541h11v11h-11zM431,541h11v11h-11zM453,541h11v11h-11zM475,541h11v11h-11zM508,541h11v11h-11zM530,541h11v11h-11zM574,541h11v11h-11zM585,541h11v11h-11zM607,541h11v11h-11zM618,541h11v11h-11zM629,541h11v11h-11zM651,541h11v11h-11zM662,541h11v11h-11zM200,552h11v11h-11zM222,552h11v11h-11zM244,552h11v11h-11zM255,552h11v11h-11zM266,552h11v11h-11zM288,552h11v11h-11zM310,552h11v11h-11zM332,552h11v11h-11zM354,552h11v11h-11zM376,552h11v11h-11zM409,552h11v11h-11zM420,552h11v11h-11zM442,552h11v11h-11zM475,552h11v11h-11zM497,552h11v11h-11zM519,552h11v11h-11zM530,552h11v11h-11zM552,552h11v11h-11zM585,552h11v11h-11zM596,552h11v11h-11zM618,552h11v11h-11zM651,552h11v11h-11zM662,552h11v11h-11zM189,563h11v11h-11zM255,563h11v11h-11zM277,563h11v11h-11zM288,563h11v11h-11zM299,563h11v11h-11zM310,563h11v11h-11zM343,563h11v11h-11zM354,563h11v11h-11zM365,563h11v11h-11zM387,563h11v11h-11zM398,563h11v11h-11zM420,563h11v11h-11zM431,563h11v11h-11zM453,563h11v11h-11zM508,563h11v11h-11zM519,563h11v11h-11zM530,563h11v11h-11zM541,563h11v11h-11zM552,563h11v11h-11zM563,563h11v11h-11zM574,563h11v11h-11zM585,563h11v11h-11zM596,563h11v11h-11zM607,563h11v11h-11zM618,563h11v11h-11zM640,563h11v11h-11zM651,563h11v11h-11zM178,574h11v11h-11zM189,574h11v11h-11zM200,574h11v11h-11zM233,574h11v11h-11zM244,574h11v11h-11zM255,574h11v11h-11zM266,574h11v11h-11zM288,574h11v11h-11zM299,574h11v11h-11zM365,574h11v11h-11zM409,574h11v11h-11zM431,574h11v11h-11zM442,574h11v11h-11zM475,574h11v11h-11zM486,574h11v11h-11zM519,574h11v11h-11zM541,574h11v11h-11zM552,574h11v11h-11zM563,574h11v11h-11zM574,574h11v11h-11zM596,574h11v11h-11zM618,574h11v11h-11zM629,574h11v11h-11zM651,574h11v11h-11zM211,585h11v11h-11zM222,585h11v11h-11zM233,585h11v11h-11zM255,585h11v11h-11zM266,585h11v11h-11zM288,585h11v11h-11zM299,585h11v11h-11zM332,585h11v11h-11zM365,585h11v11h-11zM387,585h11v11h-11zM398,585h11v11h-11zM409,585h11v11h-11zM420,585h11v11h-11zM508,585h11v11h-11zM530,585h11v11h-11zM541,585h11v11h-11zM563,585h11v11h-11zM585,585h11v11h-11zM596,585h11v11h-11zM607,585h11v11h-11zM618,585h11v11h-11zM651,585h11v11h-11zM211,596h11v11h-11zM222,596h11v11h-11zM244,596h11v11h-11zM288,596h11v11h-11zM299,596h11v11h-11zM332,596h11v11h-11zM343,596h11v11h-11zM354,596h11v11h-11zM376,596h11v11h-11zM387,596h11v11h-11zM398,596h11v11h-11zM409,596h11v11h-11zM442,596h11v11h-11zM453,596h11v11h-11zM464,596h11v11h-11zM475,596h11v11h-11zM497,596h11v11h-11zM508,596h11v11h-11zM530,596h11v11h-11zM552,596h11v11h-11zM563,596h11v11h-11zM618,596h11v11h-11zM640,596h11v11h-11zM178,607h11v11h-11zM189,607h11v11h-11zM200,607h11v11h-11zM222,607h11v11h-11zM288,607h11v11h-11zM299,607h11v11h-11zM310,607h11v11h-11zM332,607h11v11h-11zM354,607h11v11h-11zM387,607h11v11h-11zM398,607h11v11h-11zM409,607h11v11h-11zM420,607h11v11h-11zM475,607h11v11h-11zM486,607h11v11h-11zM508,607h11v11h-11zM519,607h11v11h-11zM574,607h11v11h-11zM596,607h11v11h-11zM607,607h11v11h-11zM618,607h11v11h-11zM651,607h11v11h-11zM189,618h11v11h-11zM200,618h11v11h-11zM211,618h11v11h-11zM244,618h11v11h-11zM277,618h11v11h-11zM343,618h11v11h-11zM354,618h11v11h-11zM376,618h11v11h-11zM387,618h11v11h-11zM409,618h11v11h-11zM420,618h11v11h-11zM475,618h11v11h-11zM486,618h11v11h-11zM497,618h11v11h-11zM541,618h11v11h-11zM574,618h11v11h-11zM596,618h11v11h-11zM607,618h11v11h-11zM629,618h11v11h-11zM651,618h11v11h-11zM200,629h11v11h-11zM211,629h11v11h-11zM222,629h11v11h-11zM233,629h11v11h-11zM332,629h11v11h-11zM365,629h11v11h-11zM387,629h11v11h-11zM398,629h11v11h-11zM442,629h11v11h-11zM453,629h11v11h-11zM464,629h11v11h-11zM475,629h11v11h-11zM486,629h11v11h-11zM508,629h11v11h-11zM530,629h11v11h-11zM563,629h11v11h-11zM585,629h11v11h-11zM596,629h11v11h-11zM607,629h11v11h-11zM640,629h11v11h-11zM178,640h11v11h-11zM200,640h11v11h-11zM211,640h11v11h-11zM222,640h11v11h-11zM233,640h11v11h-11zM244,640h11v11h-11zM255,640h11v11h-11zM266,640h11v11h-11zM288,640h11v11h-11zM310,640h11v11h-11zM321,640h11v11h-11zM332,640h11v11h-11zM343,640h11v11h-11zM365,640h11v11h-11zM398,640h11v11h-11zM409,640h11v11h-11zM420,640h11v11h-11zM431,640h11v11h-11zM442,640h11v11h-11zM453,640h11v11h-11zM475,640h11v11h-11zM486,640h11v11h-11zM530,640h11v11h-11zM541,640h11v11h-11zM552,640h11v11h-11zM574,640h11v11h-11zM585,640h11v11h-11zM596,640h11v11h-11zM607,640h11v11h-11zM618,640h11v11h-11zM629,640h11v11h-11zM640,640h11v11h-11zM662,640h11v11h-11zM178,651h11v11h-11zM189,651h11v11h-11zM200,651h11v11h-11zM211,651h11v11h-11zM222,651h11v11h-11zM266,651h11v11h-11zM288,651h11v11h-11zM299,651h11v11h-11zM332,651h11v11h-11zM365,651h11v11h-11zM387,651h11v11h-11zM398,651h11v11h-11zM442,651h11v11h-11zM486,651h11v11h-11zM497,651h11v11h-11zM530,651h11v11h-11zM541,651h11v11h-11zM574,651h11v11h-11zM618,651h11v11h-11zM200,662h11v11h-11zM211,662h11v11h-11zM222,662h11v11h-11zM244,662h11v11h-11zM266,662h11v11h-11zM299,662h11v11h-11zM343,662h11v11h-11zM354,662h11v11h-11zM365,662h11v11h-11zM376,662h11v11h-11zM387,662h11v11h-11zM398,662h11v11h-11zM420,662h11v11h-11zM442,662h11v11h-11zM497,662h11v11h-11zM519,662h11v11h-11zM530,662h11v11h-11zM563,662h11v11h-11zM574,662h11v11h-11zM596,662h11v11h-11zM618,662h11v11h-11zM629,662h11v11h-11zM651,662h11v11h-11zM178,673h11v11h-11zM222,673h11v11h-11zM266,673h11v11h-11zM310,673h11v11h-11zM332,673h11v11h-11zM343,673h11v11h-11zM398,673h11v11h-11zM442,673h11v11h-11zM453,673h11v11h-11zM464,673h11v11h-11zM475,673h11v11h-11zM486,673h11v11h-11zM497,673h11v11h-11zM508,673h11v11h-11zM530,673h11v11h-11zM552,673h11v11h-11zM563,673h11v11h-11zM574,673h11v11h-11zM618,673h11v11h-11zM651,673h11v11h-11zM662,673h11v11h-11zM178,684h11v11h-11zM189,684h11v11h-11zM200,684h11v11h-11zM222,684h11v11h-11zM233,684h11v11h-11zM244,684h11v11h-11zM255,684h11v11h-11zM266,684h11v11h-11zM288,684h11v11h-11zM387,684h11v11h-11zM398,684h11v11h-11zM409,684h11v11h-11zM420,684h11v11h-11zM431,684h11v11h-11zM442,684h11v11h-11zM453,684h11v11h-11zM464,684h11v11h-11zM497,684h11v11h-11zM508,684h11v11h-11zM530,684h11v11h-11zM552,684h11v11h-11zM574,684h11v11h-11zM585,684h11v11h-11zM596,684h11v11h-11zM607,684h11v11h-11zM618,684h11v11h-11zM629,684h11v11h-11zM651,684h11v11h-11zM662,684h11v11h-11zM200,695h11v11h-11zM211,695h11v11h-11zM266,695h11v11h-11zM288,695h11v11h-11zM310,695h11v11h-11zM332,695h11v11h-11zM387,695h11v11h-11zM409,695h11v11h-11zM442,695h11v11h-11zM453,695h11v11h-11zM464,695h11v11h-11zM486,695h11v11h-11zM497,695h11v11h-11zM508,695h11v11h-11zM541,695h11v11h-11zM574,695h11v11h-11zM585,695h11v11h-11zM607,695h11v11h-11zM640,695h11v11h-11zM662,695h11v11h-11zM189,706h11v11h-11zM200,706h11v11h-11zM211,706h11v11h-11zM222,706h11v11h-11zM244,706h11v11h-11zM277,706h11v11h-11zM288,706h11v11h-11zM299,706h11v11h-11zM310,706h11v11h-11zM321,706h11v11h-11zM332,706h11v11h-11zM387,706h11v11h-11zM409,706h11v11h-11zM464,706h11v11h-11zM475,706h11v11h-11zM486,706h11v11h-11zM508,706h11v11h-11zM519,706h11v11h-11zM530,706h11v11h-11zM541,706h11v11h-11zM563,706h11v11h-11zM585,706h11v11h-11zM618,706h11v11h-11zM189,717h11v11h-11zM211,717h11v11h-11zM222,717h11v11h-11zM233,717h11v11h-11zM255,717h11v11h-11zM277,717h11v11h-11zM321,717h11v11h-11zM332,717h11v11h-11zM354,717h11v11h-11zM376,717h11v11h-11zM387,717h11v11h-11zM398,717h11v11h-11zM420,717h11v11h-11zM431,717h11v11h-11zM486,717h11v11h-11zM508,717h11v11h-11zM552,717h11v11h-11zM563,717h11v11h-11zM585,717h11v11h-11zM596,717h11v11h-11zM607,717h11v11h-11zM651,717h11v11h-11zM662,717h11v11h-11zM178,728h11v11h-11zM200,728h11v11h-11zM211,728h11v11h-11zM222,728h11v11h-11zM244,728h11v11h-11zM255,728h11v11h-11zM266,728h11v11h-11zM277,728h11v11h-11zM288,728h11v11h-11zM299,728h11v11h-11zM310,728h11v11h-11zM321,728h11v11h-11zM343,728h11v11h-11zM354,728h11v11h-11zM365,728h11v11h-11zM376,728h11v11h-11zM387,728h11v11h-11zM398,728h11v11h-11zM420,728h11v11h-11zM431,728h11v11h-11zM453,728h11v11h-11zM475,728h11v11h-11zM486,728h11v11h-11zM541,728h11v11h-11zM596,728h11v11h-11zM618,728h11v11h-11zM651,728h11v11h-11zM189,739h11v11h-11zM200,739h11v11h-11zM255,739h11v11h-11zM266,739h11v11h-11zM288,739h11v11h-11zM299,739h11v11h-11zM332,739h11v11h-11zM354,739h11v11h-11zM376,739h11v11h-11zM387,739h11v11h-11zM398,739h11v11h-11zM420,739h11v11h-11zM431,739h11v11h-11zM453,739h11v11h-11zM497,739h11v11h-11zM508,739h11v11h-11zM519,739h11v11h-11zM541,739h11v11h-11zM574,739h11v11h-11zM596,739h11v11h-11zM607,739h11v11h-11zM629,739h11v11h-11zM640,739h11v11h-11zM178,750h11v11h-11zM189,750h11v11h-11zM222,750h11v11h-11zM244,750h11v11h-11zM255,750h11v11h-11zM277,750h11v11h-11zM321,750h11v11h-11zM343,750h11v11h-11zM354,750h11v11h-11zM365,750h11v11h-11zM431,750h11v11h-11zM442,750h11v11h-11zM475,750h11v11h-11zM486,750h11v11h-11zM508,750h11v11h-11zM519,750h11v11h-11zM530,750h11v11h-11zM541,750h11v11h-11zM563,750h11v11h-11zM574,750h11v11h-11zM585,750h11v11h-11zM596,750h11v11h-11zM618,750h11v11h-11zM629,750h11v11h-11zM651,750h11v11h-11zM189,761h11v11h-11zM200,761h11v11h-11zM222,761h11v11h-11zM266,761h11v11h-11zM288,761h11v11h-11zM299,761h11v11h-11zM310,761h11v11h-11zM343,761h11v11h-11zM354,761h11v11h-11zM376,761h11v11h-11zM409,761h11v11h-11zM420,761h11v11h-11zM442,761h11v11h-11zM453,761h11v11h-11zM464,761h11v11h-11zM475,761h11v11h-11zM530,761h11v11h-11zM574,761h11v11h-11zM607,761h11v11h-11zM200,772h11v11h-11zM244,772h11v11h-11zM266,772h11v11h-11zM277,772h11v11h-11zM288,772h11v11h-11zM310,772h11v11h-11zM321,772h11v11h-11zM332,772h11v11h-11zM354,772h11v11h-11zM376,772h11v11h-11zM409,772h11v11h-11zM420,772h11v11h-11zM431,772h11v11h-11zM497,772h11v11h-11zM508,772h11v11h-11zM541,772h11v11h-11zM618,772h11v11h-11zM651,772h11v11h-11zM662,772h11v11h-11zM211,783h11v11h-11zM222,783h11v11h-11zM233,783h11v11h-11zM266,783h11v11h-11zM277,783h11v11h-11zM310,783h11v11h-11zM332,783h11v11h-11zM343,783h11v11h-11zM354,783h11v11h-11zM409,783h11v11h-11zM497,783h11v11h-11zM508,783h11v11h-11zM519,783h11v11h-11zM552,783h11v11h-11zM563,783h11v11h-11zM574,783h11v11h-11zM596,783h11v11h-11zM607,783h11v11h-11zM629,783h11v11h-11zM651,783h11v11h-11zM222,794h11v11h-11zM244,794h11v11h-11zM255,794h11v11h-11zM266,794h11v11h-11zM277,794h11v11h-11zM332,794h11v11h-11zM354,794h11v11h-11zM376,794h11v11h-11zM387,794h11v11h-11zM398,794h11v11h-11zM409,794h11v11h-11zM431,794h11v11h-11zM442,794h11v11h-11zM453,794h11v11h-11zM464,794h11v11h-11zM497,794h11v11h-11zM508,794h11v11h-11zM541,794h11v11h-11zM552,794h11v11h-11zM563,794h11v11h-11zM585,794h11v11h-11zM596,794h11v11h-11zM618,794h11v11h-11zM640,794h11v11h-11zM651,794h11v11h-11zM189,805h11v11h-11zM200,805h11v11h-11zM211,805h11v11h-11zM222,805h11v11h-11zM255,805h11v11h-11zM288,805h11v11h-11zM299,805h11v11h-11zM310,805h11v11h-11zM321,805h11v11h-11zM332,805h11v11h-11zM343,805h11v11h-11zM365,805h11v11h-11zM409,805h11v11h-11zM420,805h11v11h-11zM431,805h11v11h-11zM497,805h11v11h-11zM519,805h11v11h-11zM530,805h11v11h-11zM541,805h11v11h-11zM552,805h11v11h-11zM596,805h11v11h-11zM607,805h11v11h-11zM651,805h11v11h-11zM178,816h11v11h-11zM211,816h11v11h-11zM222,816h11v11h-11zM244,816h11v11h-11zM277,816h11v11h-11zM299,816h11v11h-11zM310,816h11v11h-11zM332,816h11v11h-11zM365,816h11v11h-11zM387,816h11v11h-11zM398,816h11v11h-11zM409,816h11v11h-11zM420,816h11v11h-11zM431,816h11v11h-11zM442,816h11v11h-11zM453,816h11v11h-11zM464,816h11v11h-11zM475,816h11v11h-11zM508,816h11v11h-11zM530,816h11v11h-11zM541,816h11v11h-11zM574,816h11v11h-11zM585,816h11v11h-11zM596,816h11v11h-11zM607,816h11v11h-11zM618,816h11v11h-11zM662,816h11v11h-11zM266,827h11v11h-11zM277,827h11v11h-11zM288,827h11v11h-11zM321,827h11v11h-11zM343,827h11v11h-11zM365,827h11v11h-11zM398,827h11v11h-11zM442,827h11v11h-11zM475,827h11v11h-11zM486,827h11v11h-11zM508,827h11v11h-11zM574,827h11v11h-11zM618,827h11v11h-11zM640,827h11v11h-11zM651,827h11v11h-11zM178,838h11v11h-11zM189,838h11v11h-11zM200,838h11v11h-11zM211,838h11v11h-11zM222,838h11v11h-11zM233,838h11v11h-11zM244,838h11v11h-11zM277,838h11v11h-11zM288,838h11v11h-11zM299,838h11v11h-11zM332,838h11v11h-11zM343,838h11v11h-11zM365,838h11v11h-11zM387,838h11v11h-11zM398,838h11v11h-11zM420,838h11v11h-11zM442,838h11v11h-11zM453,838h11v11h-11zM475,838h11v11h-11zM486,838h11v11h-11zM497,838h11v11h-11zM508,838h11v11h-11zM552,838h11v11h-11zM574,838h11v11h-11zM596,838h11v11h-11zM618,838h11v11h-11zM640,838h11v11h-11zM178,849h11v11h-11zM244,849h11v11h-11zM288,849h11v11h-11zM299,849h11v11h-11zM343,849h11v11h-11zM365,849h11v11h-11zM398,849h11v11h-11zM442,849h11v11h-11zM464,849h11v11h-11zM497,849h11v11h-11zM508,849h11v11h-11zM519,849h11v11h-11zM530,849h11v11h-11zM574,849h11v11h-11zM618,849h11v11h-11zM629,849h11v11h-11zM640,849h11v11h-11zM178,860h11v11h-11zM200,860h11v11h-11zM211,860h11v11h-11zM222,860h11v11h-11zM244,860h11v11h-11zM266,860h11v11h-11zM288,860h11v11h-11zM310,860h11v11h-11zM321,860h11v11h-11zM332,860h11v11h-11zM343,860h11v11h-11zM354,860h11v11h-11zM365,860h11v11h-11zM387,860h11v11h-11zM398,860h11v11h-11zM409,860h11v11h-11zM420,860h11v11h-11zM431,860h11v11h-11zM442,860h11v11h-11zM464,860h11v11h-11zM475,860h11v11h-11zM497,860h11v11h-11zM530,860h11v11h-11zM541,860h11v11h-11zM552,860h11v11h-11zM563,860h11v11h-11zM574,860h11v11h-11zM585,860h11v11h-11zM596,860h11v11h-11zM607,860h11v11h-11zM618,860h11v11h-11zM629,860h11v11h-11zM640,860h11v11h-11zM662,860h11v11h-11zM178,871h11v11h-11zM200,871h11v11h-11zM211,871h11v11h-11zM222,871h11v11h-11zM244,871h11v11h-11zM277,871h11v11h-11zM299,871h11v11h-11zM310,871h11v11h-11zM321,871h11v11h-11zM332,871h11v11h-11zM343,871h11v11h-11zM354,871h11v11h-11zM398,871h11v11h-11zM431,871h11v11h-11zM442,871h11v11h-11zM486,871h11v11h-11zM530,871h11v11h-11zM585,871h11v11h-11zM596,871h11v11h-11zM607,871h11v11h-11zM618,871h11v11h-11zM629,871h11v11h-11zM178,882h11v11h-11zM200,882h11v11h-11zM211,882h11v11h-11zM222,882h11v11h-11zM244,882h11v11h-11zM310,882h11v11h-11zM321,882h11v11h-11zM332,882h11v11h-11zM365,882h11v11h-11zM376,882h11v11h-11zM387,882h11v11h-11zM409,882h11v11h-11zM442,882h11v11h-11zM453,882h11v11h-11zM464,882h11v11h-11zM475,882h11v11h-11zM486,882h11v11h-11zM497,882h11v11h-11zM519,882h11v11h-11zM541,882h11v11h-11zM618,882h11v11h-11zM629,882h11v11h-11zM640,882h11v11h-11zM178,893h11v11h-11zM244,893h11v11h-11zM266,893h11v11h-11zM332,893h11v11h-11zM376,893h11v11h-11zM387,893h11v11h-11zM398,893h11v11h-11zM420,893h11v11h-11zM431,893h11v11h-11zM464,893h11v11h-11zM486,893h11v11h-11zM497,893h11v11h-11zM530,893h11v11h-11zM541,893h11v11h-11zM585,893h11v11h-11zM607,893h11v11h-11zM618,893h11v11h-11zM629,893h11v11h-11zM178,904h11v11h-11zM189,904h11v11h-11zM200,904h11v11h-11zM211,904h11v11h-11zM222,904h11v11h-11zM233,904h11v11h-11zM244,904h11v11h-11zM299,904h11v11h-11zM321,904h11v11h-11zM332,904h11v11h-11zM354,904h11v11h-11zM365,904h11v11h-11zM409,904h11v11h-11zM420,904h11v11h-11zM442,904h11v11h-11zM497,904h11v11h-11zM508,904h11v11h-11zM519,904h11v11h-11zM530,904h11v11h-11zM563,904h11v11h-11zM607,904h11v11h-11zM629,904h11v11h-11zM662,904h11v11h-11z" fill="#020617"/>

  <rect x="48" y="1034" width="754" height="118" rx="20" fill="#f8fafc" stroke="#e2e8f0" stroke-width="2"/>
  <text x="76" y="1072" font-family="Arial, Helvetica, sans-serif" font-size="23" font-weight="900" fill="#0f172a">OFF-01</text>
  <text x="76" y="1102" font-family="Arial, Helvetica, sans-serif" font-size="17" fill="#334155">OFF-01 First Aid Box</text>
  <text x="76" y="1127" font-family="Arial, Helvetica, sans-serif" font-size="17" fill="#334155">Area: Office</text>
  <text x="76" y="1152" font-family="Arial, Helvetica, sans-serif" font-size="17" fill="#334155">Location: Office 1st Floor, Near Lift</text>

  <text x="425" y="1212" text-anchor="middle" font-family="Arial, Helvetica, sans-serif" font-size="15" font-weight="700" fill="#64748b">Opens first-aid-box-inspection.vercel.app</text>
</svg>
