<?xml version="1.0" encoding="UTF-8"?>
<svg xmlns="http://www.w3.org/2000/svg" width="850" height="1240" viewBox="0 0 850 1240" role="img" aria-label="REC-01 Usage QR">
  <rect width="100%" height="100%" rx="34" fill="#ffffff"/>
  <rect x="0" y="0" width="850" height="104" rx="34" fill="#0b7fc3"/>
  <text x="58" y="66" font-family="Arial, Helvetica, sans-serif" font-size="34" font-weight="800" fill="#ffffff">TAMCO</text>
  <text x="792" y="50" text-anchor="end" font-family="Arial, Helvetica, sans-serif" font-size="18" font-weight="700" fill="#dff4ff">First Aid Box</text>
  <text x="792" y="74" text-anchor="end" font-family="Arial, Helvetica, sans-serif" font-size="16" fill="#dff4ff">QR access label</text>

  <rect x="48" y="128" width="754" height="142" rx="26" fill="#059669"/>
  <text x="425" y="196" text-anchor="middle" font-family="Arial, Helvetica, sans-serif" font-size="64" font-weight="900" fill="#ffffff">USAGE LOG</text>
  <text x="425" y="236" text-anchor="middle" font-family="Arial, Helvetica, sans-serif" font-size="25" font-weight="800" fill="#ffffff">SCAN WHEN TAKING ITEMS</text>

  <text x="425" y="316" text-anchor="middle" font-family="Arial, Helvetica, sans-serif" font-size="40" font-weight="900" fill="#0f172a">REC-01</text>
  <text x="425" y="344" text-anchor="middle" font-family="Arial, Helvetica, sans-serif" font-size="20" font-weight="700" fill="#475569">Record first aid items taken</text>

  <rect x="112" y="347" width="626" height="626" rx="24" fill="#f8fafc" stroke="#cbd5e1" stroke-width="2"/>
  <rect x="130" y="365" width="590" height="590" fill="#ffffff"/>
  <path d="M180,415h10v10h-10zM190,415h10v10h-10zM200,415h10v10h-10zM210,415h10v10h-10zM220,415h10v10h-10zM230,415h10v10h-10zM240,415h10v10h-10zM320,415h10v10h-10zM330,415h10v10h-10zM340,415h10v10h-10zM350,415h10v10h-10zM410,415h10v10h-10zM420,415h10v10h-10zM440,415h10v10h-10zM460,415h10v10h-10zM480,415h10v10h-10zM500,415h10v10h-10zM530,415h10v10h-10zM580,415h10v10h-10zM600,415h10v10h-10zM610,415h10v10h-10zM620,415h10v10h-10zM630,415h10v10h-10zM640,415h10v10h-10zM650,415h10v10h-10zM660,415h10v10h-10zM180,425h10v10h-10zM240,425h10v10h-10zM260,425h10v10h-10zM280,425h10v10h-10zM300,425h10v10h-10zM320,425h10v10h-10zM340,425h10v10h-10zM350,425h10v10h-10zM370,425h10v10h-10zM380,425h10v10h-10zM400,425h10v10h-10zM410,425h10v10h-10zM420,425h10v10h-10zM450,425h10v10h-10zM470,425h10v10h-10zM480,425h10v10h-10zM490,425h10v10h-10zM510,425h10v10h-10zM520,425h10v10h-10zM530,425h10v10h-10zM560,425h10v10h-10zM570,425h10v10h-10zM580,425h10v10h-10zM600,425h10v10h-10zM660,425h10v10h-10zM180,435h10v10h-10zM200,435h10v10h-10zM210,435h10v10h-10zM220,435h10v10h-10zM240,435h10v10h-10zM260,435h10v10h-10zM270,435h10v10h-10zM280,435h10v10h-10zM290,435h10v10h-10zM330,435h10v10h-10zM400,435h10v10h-10zM420,435h10v10h-10zM430,435h10v10h-10zM440,435h10v10h-10zM450,435h10v10h-10zM460,435h10v10h-10zM470,435h10v10h-10zM480,435h10v10h-10zM490,435h10v10h-10zM500,435h10v10h-10zM520,435h10v10h-10zM530,435h10v10h-10zM540,435h10v10h-10zM550,435h10v10h-10zM570,435h10v10h-10zM580,435h10v10h-10zM600,435h10v10h-10zM620,435h10v10h-10zM630,435h10v10h-10zM640,435h10v10h-10zM660,435h10v10h-10zM180,445h10v10h-10zM200,445h10v10h-10zM210,445h10v10h-10zM220,445h10v10h-10zM240,445h10v10h-10zM270,445h10v10h-10zM310,445h10v10h-10zM320,445h10v10h-10zM330,445h10v10h-10zM350,445h10v10h-10zM360,445h10v10h-10zM380,445h10v10h-10zM400,445h10v10h-10zM410,445h10v10h-10zM420,445h10v10h-10zM440,445h10v10h-10zM470,445h10v10h-10zM490,445h10v10h-10zM520,445h10v10h-10zM530,445h10v10h-10zM540,445h10v10h-10zM550,445h10v10h-10zM570,445h10v10h-10zM600,445h10v10h-10zM620,445h10v10h-10zM630,445h10v10h-10zM640,445h10v10h-10zM660,445h10v10h-10zM180,455h10v10h-10zM200,455h10v10h-10zM210,455h10v10h-10zM220,455h10v10h-10zM240,455h10v10h-10zM270,455h10v10h-10zM370,455h10v10h-10zM380,455h10v10h-10zM400,455h10v10h-10zM410,455h10v10h-10zM420,455h10v10h-10zM430,455h10v10h-10zM440,455h10v10h-10zM450,455h10v10h-10zM460,455h10v10h-10zM490,455h10v10h-10zM500,455h10v10h-10zM510,455h10v10h-10zM550,455h10v10h-10zM600,455h10v10h-10zM620,455h10v10h-10zM630,455h10v10h-10zM640,455h10v10h-10zM660,455h10v10h-10zM180,465h10v10h-10zM240,465h10v10h-10zM280,465h10v10h-10zM320,465h10v10h-10zM330,465h10v10h-10zM350,465h10v10h-10zM360,465h10v10h-10zM380,465h10v10h-10zM390,465h10v10h-10zM400,465h10v10h-10zM440,465h10v10h-10zM450,465h10v10h-10zM460,465h10v10h-10zM480,465h10v10h-10zM500,465h10v10h-10zM540,465h10v10h-10zM560,465h10v10h-10zM600,465h10v10h-10zM660,465h10v10h-10zM180,475h10v10h-10zM190,475h10v10h-10zM200,475h10v10h-10zM210,475h10v10h-10zM220,475h10v10h-10zM230,475h10v10h-10zM240,475h10v10h-10zM260,475h10v10h-10zM280,475h10v10h-10zM300,475h10v10h-10zM320,475h10v10h-10zM340,475h10v10h-10zM360,475h10v10h-10zM380,475h10v10h-10zM400,475h10v10h-10zM420,475h10v10h-10zM440,475h10v10h-10zM460,475h10v10h-10zM480,475h10v10h-10zM500,475h10v10h-10zM520,475h10v10h-10zM540,475h10v10h-10zM560,475h10v10h-10zM580,475h10v10h-10zM600,475h10v10h-10zM610,475h10v10h-10zM620,475h10v10h-10zM630,475h10v10h-10zM640,475h10v10h-10zM650,475h10v10h-10zM660,475h10v10h-10zM280,485h10v10h-10zM300,485h10v10h-10zM310,485h10v10h-10zM330,485h10v10h-10zM340,485h10v10h-10zM400,485h10v10h-10zM440,485h10v10h-10zM450,485h10v10h-10zM460,485h10v10h-10zM490,485h10v10h-10zM500,485h10v10h-10zM560,485h10v10h-10zM190,495h10v10h-10zM200,495h10v10h-10zM210,495h10v10h-10zM230,495h10v10h-10zM240,495h10v10h-10zM280,495h10v10h-10zM340,495h10v10h-10zM380,495h10v10h-10zM390,495h10v10h-10zM400,495h10v10h-10zM410,495h10v10h-10zM420,495h10v10h-10zM430,495h10v10h-10zM440,495h10v10h-10zM470,495h10v10h-10zM480,495h10v10h-10zM490,495h10v10h-10zM520,495h10v10h-10zM550,495h10v10h-10zM570,495h10v10h-10zM640,495h10v10h-10zM650,495h10v10h-10zM180,505h10v10h-10zM190,505h10v10h-10zM220,505h10v10h-10zM230,505h10v10h-10zM310,505h10v10h-10zM350,505h10v10h-10zM400,505h10v10h-10zM410,505h10v10h-10zM450,505h10v10h-10zM460,505h10v10h-10zM480,505h10v10h-10zM490,505h10v10h-10zM510,505h10v10h-10zM520,505h10v10h-10zM530,505h10v10h-10zM540,505h10v10h-10zM550,505h10v10h-10zM600,505h10v10h-10zM610,505h10v10h-10zM620,505h10v10h-10zM630,505h10v10h-10zM640,505h10v10h-10zM650,505h10v10h-10zM660,505h10v10h-10zM200,515h10v10h-10zM210,515h10v10h-10zM230,515h10v10h-10zM240,515h10v10h-10zM260,515h10v10h-10zM300,515h10v10h-10zM330,515h10v10h-10zM360,515h10v10h-10zM400,515h10v10h-10zM410,515h10v10h-10zM420,515h10v10h-10zM430,515h10v10h-10zM440,515h10v10h-10zM450,515h10v10h-10zM460,515h10v10h-10zM480,515h10v10h-10zM500,515h10v10h-10zM520,515h10v10h-10zM530,515h10v10h-10zM560,515h10v10h-10zM580,515h10v10h-10zM610,515h10v10h-10zM650,515h10v10h-10zM190,525h10v10h-10zM200,525h10v10h-10zM260,525h10v10h-10zM290,525h10v10h-10zM370,525h10v10h-10zM380,525h10v10h-10zM440,525h10v10h-10zM450,525h10v10h-10zM460,525h10v10h-10zM470,525h10v10h-10zM480,525h10v10h-10zM500,525h10v10h-10zM520,525h10v10h-10zM540,525h10v10h-10zM570,525h10v10h-10zM590,525h10v10h-10zM600,525h10v10h-10zM610,525h10v10h-10zM620,525h10v10h-10zM630,525h10v10h-10zM640,525h10v10h-10zM650,525h10v10h-10zM190,535h10v10h-10zM200,535h10v10h-10zM210,535h10v10h-10zM220,535h10v10h-10zM240,535h10v10h-10zM250,535h10v10h-10zM270,535h10v10h-10zM280,535h10v10h-10zM290,535h10v10h-10zM300,535h10v10h-10zM320,535h10v10h-10zM330,535h10v10h-10zM350,535h10v10h-10zM360,535h10v10h-10zM370,535h10v10h-10zM390,535h10v10h-10zM400,535h10v10h-10zM410,535h10v10h-10zM470,535h10v10h-10zM480,535h10v10h-10zM520,535h10v10h-10zM530,535h10v10h-10zM540,535h10v10h-10zM560,535h10v10h-10zM570,535h10v10h-10zM580,535h10v10h-10zM600,535h10v10h-10zM630,535h10v10h-10zM650,535h10v10h-10zM180,545h10v10h-10zM210,545h10v10h-10zM220,545h10v10h-10zM250,545h10v10h-10zM260,545h10v10h-10zM270,545h10v10h-10zM300,545h10v10h-10zM310,545h10v10h-10zM320,545h10v10h-10zM340,545h10v10h-10zM350,545h10v10h-10zM380,545h10v10h-10zM420,545h10v10h-10zM430,545h10v10h-10zM440,545h10v10h-10zM470,545h10v10h-10zM490,545h10v10h-10zM500,545h10v10h-10zM510,545h10v10h-10zM530,545h10v10h-10zM540,545h10v10h-10zM550,545h10v10h-10zM620,545h10v10h-10zM650,545h10v10h-10zM660,545h10v10h-10zM190,555h10v10h-10zM200,555h10v10h-10zM230,555h10v10h-10zM240,555h10v10h-10zM260,555h10v10h-10zM280,555h10v10h-10zM290,555h10v10h-10zM300,555h10v10h-10zM310,555h10v10h-10zM340,555h10v10h-10zM350,555h10v10h-10zM370,555h10v10h-10zM380,555h10v10h-10zM390,555h10v10h-10zM400,555h10v10h-10zM410,555h10v10h-10zM450,555h10v10h-10zM460,555h10v10h-10zM480,555h10v10h-10zM530,555h10v10h-10zM560,555h10v10h-10zM600,555h10v10h-10zM620,555h10v10h-10zM640,555h10v10h-10zM650,555h10v10h-10zM180,565h10v10h-10zM210,565h10v10h-10zM230,565h10v10h-10zM250,565h10v10h-10zM270,565h10v10h-10zM280,565h10v10h-10zM330,565h10v10h-10zM350,565h10v10h-10zM370,565h10v10h-10zM380,565h10v10h-10zM410,565h10v10h-10zM450,565h10v10h-10zM460,565h10v10h-10zM470,565h10v10h-10zM490,565h10v10h-10zM500,565h10v10h-10zM520,565h10v10h-10zM550,565h10v10h-10zM560,565h10v10h-10zM570,565h10v10h-10zM580,565h10v10h-10zM600,565h10v10h-10zM620,565h10v10h-10zM630,565h10v10h-10zM190,575h10v10h-10zM200,575h10v10h-10zM210,575h10v10h-10zM240,575h10v10h-10zM250,575h10v10h-10zM260,575h10v10h-10zM290,575h10v10h-10zM300,575h10v10h-10zM310,575h10v10h-10zM320,575h10v10h-10zM360,575h10v10h-10zM370,575h10v10h-10zM430,575h10v10h-10zM440,575h10v10h-10zM470,575h10v10h-10zM480,575h10v10h-10zM490,575h10v10h-10zM500,575h10v10h-10zM520,575h10v10h-10zM540,575h10v10h-10zM570,575h10v10h-10zM620,575h10v10h-10zM650,575h10v10h-10zM190,585h10v10h-10zM210,585h10v10h-10zM220,585h10v10h-10zM230,585h10v10h-10zM250,585h10v10h-10zM270,585h10v10h-10zM280,585h10v10h-10zM290,585h10v10h-10zM390,585h10v10h-10zM400,585h10v10h-10zM450,585h10v10h-10zM460,585h10v10h-10zM470,585h10v10h-10zM480,585h10v10h-10zM510,585h10v10h-10zM540,585h10v10h-10zM560,585h10v10h-10zM580,585h10v10h-10zM610,585h10v10h-10zM660,585h10v10h-10zM180,595h10v10h-10zM190,595h10v10h-10zM200,595h10v10h-10zM210,595h10v10h-10zM240,595h10v10h-10zM270,595h10v10h-10zM280,595h10v10h-10zM310,595h10v10h-10zM320,595h10v10h-10zM330,595h10v10h-10zM340,595h10v10h-10zM360,595h10v10h-10zM370,595h10v10h-10zM380,595h10v10h-10zM390,595h10v10h-10zM440,595h10v10h-10zM450,595h10v10h-10zM480,595h10v10h-10zM510,595h10v10h-10zM540,595h10v10h-10zM590,595h10v10h-10zM600,595h10v10h-10zM620,595h10v10h-10zM630,595h10v10h-10zM650,595h10v10h-10zM660,595h10v10h-10zM180,605h10v10h-10zM190,605h10v10h-10zM200,605h10v10h-10zM220,605h10v10h-10zM280,605h10v10h-10zM290,605h10v10h-10zM300,605h10v10h-10zM320,605h10v10h-10zM330,605h10v10h-10zM340,605h10v10h-10zM350,605h10v10h-10zM360,605h10v10h-10zM380,605h10v10h-10zM390,605h10v10h-10zM410,605h10v10h-10zM420,605h10v10h-10zM430,605h10v10h-10zM440,605h10v10h-10zM470,605h10v10h-10zM490,605h10v10h-10zM540,605h10v10h-10zM550,605h10v10h-10zM590,605h10v10h-10zM610,605h10v10h-10zM630,605h10v10h-10zM190,615h10v10h-10zM200,615h10v10h-10zM230,615h10v10h-10zM240,615h10v10h-10zM260,615h10v10h-10zM270,615h10v10h-10zM280,615h10v10h-10zM310,615h10v10h-10zM360,615h10v10h-10zM380,615h10v10h-10zM390,615h10v10h-10zM400,615h10v10h-10zM430,615h10v10h-10zM450,615h10v10h-10zM460,615h10v10h-10zM470,615h10v10h-10zM490,615h10v10h-10zM530,615h10v10h-10zM560,615h10v10h-10zM580,615h10v10h-10zM630,615h10v10h-10zM650,615h10v10h-10zM660,615h10v10h-10zM190,625h10v10h-10zM260,625h10v10h-10zM270,625h10v10h-10zM300,625h10v10h-10zM310,625h10v10h-10zM330,625h10v10h-10zM340,625h10v10h-10zM370,625h10v10h-10zM380,625h10v10h-10zM390,625h10v10h-10zM410,625h10v10h-10zM440,625h10v10h-10zM460,625h10v10h-10zM470,625h10v10h-10zM480,625h10v10h-10zM490,625h10v10h-10zM530,625h10v10h-10zM540,625h10v10h-10zM580,625h10v10h-10zM590,625h10v10h-10zM600,625h10v10h-10zM630,625h10v10h-10zM210,635h10v10h-10zM220,635h10v10h-10zM230,635h10v10h-10zM240,635h10v10h-10zM250,635h10v10h-10zM260,635h10v10h-10zM290,635h10v10h-10zM310,635h10v10h-10zM320,635h10v10h-10zM330,635h10v10h-10zM340,635h10v10h-10zM350,635h10v10h-10zM380,635h10v10h-10zM390,635h10v10h-10zM400,635h10v10h-10zM410,635h10v10h-10zM420,635h10v10h-10zM430,635h10v10h-10zM440,635h10v10h-10zM470,635h10v10h-10zM480,635h10v10h-10zM490,635h10v10h-10zM500,635h10v10h-10zM510,635h10v10h-10zM520,635h10v10h-10zM570,635h10v10h-10zM580,635h10v10h-10zM590,635h10v10h-10zM600,635h10v10h-10zM610,635h10v10h-10zM620,635h10v10h-10zM640,635h10v10h-10zM200,645h10v10h-10zM210,645h10v10h-10zM220,645h10v10h-10zM260,645h10v10h-10zM310,645h10v10h-10zM320,645h10v10h-10zM330,645h10v10h-10zM350,645h10v10h-10zM370,645h10v10h-10zM390,645h10v10h-10zM400,645h10v10h-10zM440,645h10v10h-10zM450,645h10v10h-10zM460,645h10v10h-10zM470,645h10v10h-10zM480,645h10v10h-10zM490,645h10v10h-10zM500,645h10v10h-10zM510,645h10v10h-10zM520,645h10v10h-10zM540,645h10v10h-10zM550,645h10v10h-10zM570,645h10v10h-10zM580,645h10v10h-10zM620,645h10v10h-10zM630,645h10v10h-10zM640,645h10v10h-10zM660,645h10v10h-10zM180,655h10v10h-10zM190,655h10v10h-10zM210,655h10v10h-10zM220,655h10v10h-10zM240,655h10v10h-10zM260,655h10v10h-10zM290,655h10v10h-10zM300,655h10v10h-10zM320,655h10v10h-10zM330,655h10v10h-10zM350,655h10v10h-10zM360,655h10v10h-10zM390,655h10v10h-10zM400,655h10v10h-10zM420,655h10v10h-10zM440,655h10v10h-10zM450,655h10v10h-10zM490,655h10v10h-10zM510,655h10v10h-10zM530,655h10v10h-10zM540,655h10v10h-10zM550,655h10v10h-10zM560,655h10v10h-10zM570,655h10v10h-10zM580,655h10v10h-10zM600,655h10v10h-10zM620,655h10v10h-10zM630,655h10v10h-10zM640,655h10v10h-10zM650,655h10v10h-10zM660,655h10v10h-10zM210,665h10v10h-10zM220,665h10v10h-10zM260,665h10v10h-10zM280,665h10v10h-10zM300,665h10v10h-10zM320,665h10v10h-10zM360,665h10v10h-10zM380,665h10v10h-10zM400,665h10v10h-10zM440,665h10v10h-10zM450,665h10v10h-10zM490,665h10v10h-10zM510,665h10v10h-10zM550,665h10v10h-10zM560,665h10v10h-10zM570,665h10v10h-10zM580,665h10v10h-10zM620,665h10v10h-10zM650,665h10v10h-10zM660,665h10v10h-10zM190,675h10v10h-10zM200,675h10v10h-10zM210,675h10v10h-10zM220,675h10v10h-10zM230,675h10v10h-10zM240,675h10v10h-10zM250,675h10v10h-10zM260,675h10v10h-10zM270,675h10v10h-10zM280,675h10v10h-10zM290,675h10v10h-10zM300,675h10v10h-10zM310,675h10v10h-10zM320,675h10v10h-10zM330,675h10v10h-10zM350,675h10v10h-10zM370,675h10v10h-10zM400,675h10v10h-10zM410,675h10v10h-10zM420,675h10v10h-10zM430,675h10v10h-10zM440,675h10v10h-10zM460,675h10v10h-10zM470,675h10v10h-10zM480,675h10v10h-10zM500,675h10v10h-10zM530,675h10v10h-10zM560,675h10v10h-10zM570,675h10v10h-10zM580,675h10v10h-10zM590,675h10v10h-10zM600,675h10v10h-10zM610,675h10v10h-10zM620,675h10v10h-10zM630,675h10v10h-10zM660,675h10v10h-10zM180,685h10v10h-10zM210,685h10v10h-10zM260,685h10v10h-10zM280,685h10v10h-10zM300,685h10v10h-10zM330,685h10v10h-10zM340,685h10v10h-10zM350,685h10v10h-10zM380,685h10v10h-10zM440,685h10v10h-10zM450,685h10v10h-10zM480,685h10v10h-10zM500,685h10v10h-10zM510,685h10v10h-10zM570,685h10v10h-10zM590,685h10v10h-10zM610,685h10v10h-10zM660,685h10v10h-10zM180,695h10v10h-10zM190,695h10v10h-10zM220,695h10v10h-10zM240,695h10v10h-10zM270,695h10v10h-10zM300,695h10v10h-10zM320,695h10v10h-10zM330,695h10v10h-10zM360,695h10v10h-10zM370,695h10v10h-10zM380,695h10v10h-10zM390,695h10v10h-10zM420,695h10v10h-10zM450,695h10v10h-10zM470,695h10v10h-10zM480,695h10v10h-10zM500,695h10v10h-10zM510,695h10v10h-10zM560,695h10v10h-10zM570,695h10v10h-10zM580,695h10v10h-10zM600,695h10v10h-10zM620,695h10v10h-10zM640,695h10v10h-10zM650,695h10v10h-10zM660,695h10v10h-10zM180,705h10v10h-10zM220,705h10v10h-10zM230,705h10v10h-10zM250,705h10v10h-10zM270,705h10v10h-10zM300,705h10v10h-10zM310,705h10v10h-10zM330,705h10v10h-10zM350,705h10v10h-10zM360,705h10v10h-10zM370,705h10v10h-10zM390,705h10v10h-10zM420,705h10v10h-10zM450,705h10v10h-10zM460,705h10v10h-10zM470,705h10v10h-10zM490,705h10v10h-10zM510,705h10v10h-10zM520,705h10v10h-10zM540,705h10v10h-10zM550,705h10v10h-10zM590,705h10v10h-10zM620,705h10v10h-10zM640,705h10v10h-10zM650,705h10v10h-10zM220,715h10v10h-10zM240,715h10v10h-10zM260,715h10v10h-10zM280,715h10v10h-10zM290,715h10v10h-10zM300,715h10v10h-10zM310,715h10v10h-10zM330,715h10v10h-10zM350,715h10v10h-10zM370,715h10v10h-10zM400,715h10v10h-10zM430,715h10v10h-10zM460,715h10v10h-10zM490,715h10v10h-10zM510,715h10v10h-10zM520,715h10v10h-10zM530,715h10v10h-10zM540,715h10v10h-10zM560,715h10v10h-10zM570,715h10v10h-10zM580,715h10v10h-10zM590,715h10v10h-10zM600,715h10v10h-10zM620,715h10v10h-10zM630,715h10v10h-10zM650,715h10v10h-10zM660,715h10v10h-10zM190,725h10v10h-10zM200,725h10v10h-10zM250,725h10v10h-10zM260,725h10v10h-10zM270,725h10v10h-10zM280,725h10v10h-10zM290,725h10v10h-10zM300,725h10v10h-10zM310,725h10v10h-10zM330,725h10v10h-10zM340,725h10v10h-10zM370,725h10v10h-10zM380,725h10v10h-10zM390,725h10v10h-10zM410,725h10v10h-10zM430,725h10v10h-10zM440,725h10v10h-10zM480,725h10v10h-10zM500,725h10v10h-10zM510,725h10v10h-10zM520,725h10v10h-10zM530,725h10v10h-10zM560,725h10v10h-10zM570,725h10v10h-10zM580,725h10v10h-10zM590,725h10v10h-10zM600,725h10v10h-10zM610,725h10v10h-10zM200,735h10v10h-10zM210,735h10v10h-10zM220,735h10v10h-10zM240,735h10v10h-10zM250,735h10v10h-10zM270,735h10v10h-10zM290,735h10v10h-10zM300,735h10v10h-10zM320,735h10v10h-10zM350,735h10v10h-10zM360,735h10v10h-10zM370,735h10v10h-10zM390,735h10v10h-10zM410,735h10v10h-10zM430,735h10v10h-10zM450,735h10v10h-10zM470,735h10v10h-10zM500,735h10v10h-10zM520,735h10v10h-10zM530,735h10v10h-10zM540,735h10v10h-10zM560,735h10v10h-10zM590,735h10v10h-10zM600,735h10v10h-10zM620,735h10v10h-10zM180,745h10v10h-10zM190,745h10v10h-10zM200,745h10v10h-10zM230,745h10v10h-10zM250,745h10v10h-10zM260,745h10v10h-10zM270,745h10v10h-10zM280,745h10v10h-10zM300,745h10v10h-10zM310,745h10v10h-10zM330,745h10v10h-10zM340,745h10v10h-10zM350,745h10v10h-10zM360,745h10v10h-10zM370,745h10v10h-10zM380,745h10v10h-10zM400,745h10v10h-10zM410,745h10v10h-10zM420,745h10v10h-10zM450,745h10v10h-10zM460,745h10v10h-10zM480,745h10v10h-10zM500,745h10v10h-10zM510,745h10v10h-10zM560,745h10v10h-10zM570,745h10v10h-10zM620,745h10v10h-10zM630,745h10v10h-10zM650,745h10v10h-10zM200,755h10v10h-10zM210,755h10v10h-10zM220,755h10v10h-10zM230,755h10v10h-10zM240,755h10v10h-10zM250,755h10v10h-10zM260,755h10v10h-10zM290,755h10v10h-10zM330,755h10v10h-10zM340,755h10v10h-10zM360,755h10v10h-10zM370,755h10v10h-10zM390,755h10v10h-10zM400,755h10v10h-10zM410,755h10v10h-10zM430,755h10v10h-10zM440,755h10v10h-10zM450,755h10v10h-10zM460,755h10v10h-10zM470,755h10v10h-10zM490,755h10v10h-10zM520,755h10v10h-10zM540,755h10v10h-10zM550,755h10v10h-10zM560,755h10v10h-10zM610,755h10v10h-10zM620,755h10v10h-10zM650,755h10v10h-10zM200,765h10v10h-10zM220,765h10v10h-10zM280,765h10v10h-10zM290,765h10v10h-10zM300,765h10v10h-10zM330,765h10v10h-10zM370,765h10v10h-10zM380,765h10v10h-10zM390,765h10v10h-10zM400,765h10v10h-10zM410,765h10v10h-10zM440,765h10v10h-10zM460,765h10v10h-10zM490,765h10v10h-10zM500,765h10v10h-10zM510,765h10v10h-10zM540,765h10v10h-10zM570,765h10v10h-10zM600,765h10v10h-10zM610,765h10v10h-10zM630,765h10v10h-10zM180,775h10v10h-10zM190,775h10v10h-10zM220,775h10v10h-10zM240,775h10v10h-10zM250,775h10v10h-10zM270,775h10v10h-10zM280,775h10v10h-10zM290,775h10v10h-10zM300,775h10v10h-10zM310,775h10v10h-10zM320,775h10v10h-10zM370,775h10v10h-10zM380,775h10v10h-10zM390,775h10v10h-10zM460,775h10v10h-10zM480,775h10v10h-10zM490,775h10v10h-10zM520,775h10v10h-10zM540,775h10v10h-10zM570,775h10v10h-10zM580,775h10v10h-10zM620,775h10v10h-10zM630,775h10v10h-10zM200,785h10v10h-10zM220,785h10v10h-10zM230,785h10v10h-10zM260,785h10v10h-10zM270,785h10v10h-10zM280,785h10v10h-10zM290,785h10v10h-10zM300,785h10v10h-10zM310,785h10v10h-10zM320,785h10v10h-10zM330,785h10v10h-10zM350,785h10v10h-10zM410,785h10v10h-10zM430,785h10v10h-10zM440,785h10v10h-10zM470,785h10v10h-10zM500,785h10v10h-10zM510,785h10v10h-10zM530,785h10v10h-10zM540,785h10v10h-10zM560,785h10v10h-10zM600,785h10v10h-10zM610,785h10v10h-10zM620,785h10v10h-10zM630,785h10v10h-10zM660,785h10v10h-10zM190,795h10v10h-10zM230,795h10v10h-10zM240,795h10v10h-10zM250,795h10v10h-10zM260,795h10v10h-10zM280,795h10v10h-10zM320,795h10v10h-10zM330,795h10v10h-10zM360,795h10v10h-10zM420,795h10v10h-10zM430,795h10v10h-10zM450,795h10v10h-10zM460,795h10v10h-10zM470,795h10v10h-10zM480,795h10v10h-10zM530,795h10v10h-10zM550,795h10v10h-10zM570,795h10v10h-10zM590,795h10v10h-10zM600,795h10v10h-10zM610,795h10v10h-10zM640,795h10v10h-10zM650,795h10v10h-10zM190,805h10v10h-10zM200,805h10v10h-10zM210,805h10v10h-10zM280,805h10v10h-10zM350,805h10v10h-10zM360,805h10v10h-10zM430,805h10v10h-10zM450,805h10v10h-10zM480,805h10v10h-10zM510,805h10v10h-10zM540,805h10v10h-10zM600,805h10v10h-10zM630,805h10v10h-10zM650,805h10v10h-10zM660,805h10v10h-10zM180,815h10v10h-10zM190,815h10v10h-10zM200,815h10v10h-10zM240,815h10v10h-10zM280,815h10v10h-10zM320,815h10v10h-10zM360,815h10v10h-10zM390,815h10v10h-10zM400,815h10v10h-10zM410,815h10v10h-10zM420,815h10v10h-10zM430,815h10v10h-10zM440,815h10v10h-10zM450,815h10v10h-10zM460,815h10v10h-10zM490,815h10v10h-10zM500,815h10v10h-10zM510,815h10v10h-10zM530,815h10v10h-10zM550,815h10v10h-10zM560,815h10v10h-10zM580,815h10v10h-10zM590,815h10v10h-10zM600,815h10v10h-10zM610,815h10v10h-10zM620,815h10v10h-10zM260,825h10v10h-10zM280,825h10v10h-10zM310,825h10v10h-10zM320,825h10v10h-10zM330,825h10v10h-10zM340,825h10v10h-10zM350,825h10v10h-10zM360,825h10v10h-10zM380,825h10v10h-10zM390,825h10v10h-10zM400,825h10v10h-10zM440,825h10v10h-10zM450,825h10v10h-10zM460,825h10v10h-10zM520,825h10v10h-10zM530,825h10v10h-10zM540,825h10v10h-10zM550,825h10v10h-10zM570,825h10v10h-10zM580,825h10v10h-10zM620,825h10v10h-10zM630,825h10v10h-10zM640,825h10v10h-10zM660,825h10v10h-10zM180,835h10v10h-10zM190,835h10v10h-10zM200,835h10v10h-10zM210,835h10v10h-10zM220,835h10v10h-10zM230,835h10v10h-10zM240,835h10v10h-10zM270,835h10v10h-10zM300,835h10v10h-10zM350,835h10v10h-10zM380,835h10v10h-10zM400,835h10v10h-10zM420,835h10v10h-10zM440,835h10v10h-10zM470,835h10v10h-10zM480,835h10v10h-10zM490,835h10v10h-10zM500,835h10v10h-10zM550,835h10v10h-10zM580,835h10v10h-10zM600,835h10v10h-10zM620,835h10v10h-10zM630,835h10v10h-10zM660,835h10v10h-10zM180,845h10v10h-10zM240,845h10v10h-10zM260,845h10v10h-10zM270,845h10v10h-10zM280,845h10v10h-10zM350,845h10v10h-10zM380,845h10v10h-10zM400,845h10v10h-10zM440,845h10v10h-10zM450,845h10v10h-10zM460,845h10v10h-10zM470,845h10v10h-10zM480,845h10v10h-10zM540,845h10v10h-10zM550,845h10v10h-10zM580,845h10v10h-10zM620,845h10v10h-10zM630,845h10v10h-10zM650,845h10v10h-10zM180,855h10v10h-10zM200,855h10v10h-10zM210,855h10v10h-10zM220,855h10v10h-10zM240,855h10v10h-10zM270,855h10v10h-10zM310,855h10v10h-10zM320,855h10v10h-10zM370,855h10v10h-10zM400,855h10v10h-10zM410,855h10v10h-10zM420,855h10v10h-10zM430,855h10v10h-10zM440,855h10v10h-10zM450,855h10v10h-10zM460,855h10v10h-10zM470,855h10v10h-10zM510,855h10v10h-10zM530,855h10v10h-10zM560,855h10v10h-10zM580,855h10v10h-10zM590,855h10v10h-10zM600,855h10v10h-10zM610,855h10v10h-10zM620,855h10v10h-10zM630,855h10v10h-10zM650,855h10v10h-10zM180,865h10v10h-10zM200,865h10v10h-10zM210,865h10v10h-10zM220,865h10v10h-10zM240,865h10v10h-10zM260,865h10v10h-10zM270,865h10v10h-10zM290,865h10v10h-10zM300,865h10v10h-10zM310,865h10v10h-10zM330,865h10v10h-10zM340,865h10v10h-10zM350,865h10v10h-10zM360,865h10v10h-10zM370,865h10v10h-10zM390,865h10v10h-10zM430,865h10v10h-10zM460,865h10v10h-10zM470,865h10v10h-10zM480,865h10v10h-10zM490,865h10v10h-10zM500,865h10v10h-10zM530,865h10v10h-10zM550,865h10v10h-10zM570,865h10v10h-10zM590,865h10v10h-10zM620,865h10v10h-10zM640,865h10v10h-10zM650,865h10v10h-10zM180,875h10v10h-10zM200,875h10v10h-10zM210,875h10v10h-10zM220,875h10v10h-10zM240,875h10v10h-10zM260,875h10v10h-10zM270,875h10v10h-10zM290,875h10v10h-10zM320,875h10v10h-10zM330,875h10v10h-10zM340,875h10v10h-10zM350,875h10v10h-10zM370,875h10v10h-10zM410,875h10v10h-10zM420,875h10v10h-10zM430,875h10v10h-10zM450,875h10v10h-10zM460,875h10v10h-10zM470,875h10v10h-10zM480,875h10v10h-10zM490,875h10v10h-10zM500,875h10v10h-10zM510,875h10v10h-10zM520,875h10v10h-10zM540,875h10v10h-10zM570,875h10v10h-10zM580,875h10v10h-10zM600,875h10v10h-10zM610,875h10v10h-10zM620,875h10v10h-10zM630,875h10v10h-10zM640,875h10v10h-10zM650,875h10v10h-10zM180,885h10v10h-10zM240,885h10v10h-10zM260,885h10v10h-10zM270,885h10v10h-10zM300,885h10v10h-10zM310,885h10v10h-10zM330,885h10v10h-10zM340,885h10v10h-10zM350,885h10v10h-10zM360,885h10v10h-10zM380,885h10v10h-10zM390,885h10v10h-10zM400,885h10v10h-10zM470,885h10v10h-10zM490,885h10v10h-10zM500,885h10v10h-10zM540,885h10v10h-10zM550,885h10v10h-10zM630,885h10v10h-10zM640,885h10v10h-10zM180,895h10v10h-10zM190,895h10v10h-10zM200,895h10v10h-10zM210,895h10v10h-10zM220,895h10v10h-10zM230,895h10v10h-10zM240,895h10v10h-10zM270,895h10v10h-10zM280,895h10v10h-10zM290,895h10v10h-10zM300,895h10v10h-10zM310,895h10v10h-10zM320,895h10v10h-10zM340,895h10v10h-10zM350,895h10v10h-10zM360,895h10v10h-10zM390,895h10v10h-10zM410,895h10v10h-10zM490,895h10v10h-10zM530,895h10v10h-10zM540,895h10v10h-10zM580,895h10v10h-10zM590,895h10v10h-10zM600,895h10v10h-10zM610,895h10v10h-10zM640,895h10v10h-10zM650,895h10v10h-10zM660,895h10v10h-10z" fill="#020617"/>

  <rect x="48" y="1034" width="754" height="118" rx="20" fill="#f8fafc" stroke="#e2e8f0" stroke-width="2"/>
  <text x="76" y="1072" font-family="Arial, Helvetica, sans-serif" font-size="23" font-weight="900" fill="#0f172a">REC-01</text>
  <text x="76" y="1102" font-family="Arial, Helvetica, sans-serif" font-size="17" fill="#334155">REC-01 First Aid Box</text>
  <text x="76" y="1127" font-family="Arial, Helvetica, sans-serif" font-size="17" fill="#334155">Area: Office</text>
  <text x="76" y="1152" font-family="Arial, Helvetica, sans-serif" font-size="17" fill="#334155">Location: Reception</text>

  <text x="425" y="1212" text-anchor="middle" font-family="Arial, Helvetica, sans-serif" font-size="15" font-weight="700" fill="#64748b">Opens first-aid-box-inspection.vercel.app</text>
</svg>
