<?xml version="1.0" encoding="UTF-8"?>
<svg xmlns="http://www.w3.org/2000/svg" width="850" height="1100" viewBox="0 0 850 1100" role="img" aria-label="STO-01 Usage QR">
  <rect width="100%" height="100%" rx="34" fill="#ffffff"/>
  <rect x="0" y="0" width="850" height="104" rx="34" fill="#0b7fc3"/>
  <text x="58" y="66" font-family="Arial, Helvetica, sans-serif" font-size="34" font-weight="800" fill="#ffffff">TAMCO</text>
  <text x="792" y="50" text-anchor="end" font-family="Arial, Helvetica, sans-serif" font-size="18" font-weight="700" fill="#dff4ff">First Aid Box</text>
  <text x="792" y="74" text-anchor="end" font-family="Arial, Helvetica, sans-serif" font-size="16" fill="#dff4ff">QR access label</text>

  <rect x="48" y="128" width="754" height="142" rx="26" fill="#059669"/>
  <text x="425" y="196" text-anchor="middle" font-family="Arial, Helvetica, sans-serif" font-size="64" font-weight="900" fill="#ffffff">USAGE LOG</text>
  <text x="425" y="236" text-anchor="middle" font-family="Arial, Helvetica, sans-serif" font-size="25" font-weight="800" fill="#ffffff">SCAN WHEN TAKING ITEMS</text>

  <text x="425" y="316" text-anchor="middle" font-family="Arial, Helvetica, sans-serif" font-size="40" font-weight="900" fill="#0f172a">STO-01</text>
  <text x="425" y="344" text-anchor="middle" font-family="Arial, Helvetica, sans-serif" font-size="20" font-weight="700" fill="#475569">Record first aid items taken</text>

  <rect x="162" y="372" width="526" height="526" rx="24" fill="#f8fafc" stroke="#cbd5e1" stroke-width="2"/>
  <rect x="180" y="390" width="490" height="490" fill="#ffffff"/>
  <path d="M220,430h10v10h-10zM230,430h10v10h-10zM240,430h10v10h-10zM250,430h10v10h-10zM260,430h10v10h-10zM270,430h10v10h-10zM280,430h10v10h-10zM380,430h10v10h-10zM400,430h10v10h-10zM410,430h10v10h-10zM420,430h10v10h-10zM430,430h10v10h-10zM440,430h10v10h-10zM450,430h10v10h-10zM460,430h10v10h-10zM480,430h10v10h-10zM490,430h10v10h-10zM500,430h10v10h-10zM520,430h10v10h-10zM530,430h10v10h-10zM540,430h10v10h-10zM560,430h10v10h-10zM570,430h10v10h-10zM580,430h10v10h-10zM590,430h10v10h-10zM600,430h10v10h-10zM610,430h10v10h-10zM620,430h10v10h-10zM220,440h10v10h-10zM280,440h10v10h-10zM300,440h10v10h-10zM310,440h10v10h-10zM320,440h10v10h-10zM330,440h10v10h-10zM360,440h10v10h-10zM370,440h10v10h-10zM380,440h10v10h-10zM390,440h10v10h-10zM410,440h10v10h-10zM440,440h10v10h-10zM450,440h10v10h-10zM470,440h10v10h-10zM480,440h10v10h-10zM490,440h10v10h-10zM510,440h10v10h-10zM530,440h10v10h-10zM560,440h10v10h-10zM620,440h10v10h-10zM220,450h10v10h-10zM240,450h10v10h-10zM250,450h10v10h-10zM260,450h10v10h-10zM280,450h10v10h-10zM310,450h10v10h-10zM360,450h10v10h-10zM370,450h10v10h-10zM420,450h10v10h-10zM460,450h10v10h-10zM480,450h10v10h-10zM500,450h10v10h-10zM540,450h10v10h-10zM560,450h10v10h-10zM580,450h10v10h-10zM590,450h10v10h-10zM600,450h10v10h-10zM620,450h10v10h-10zM220,460h10v10h-10zM240,460h10v10h-10zM250,460h10v10h-10zM260,460h10v10h-10zM280,460h10v10h-10zM310,460h10v10h-10zM320,460h10v10h-10zM330,460h10v10h-10zM340,460h10v10h-10zM350,460h10v10h-10zM360,460h10v10h-10zM380,460h10v10h-10zM390,460h10v10h-10zM410,460h10v10h-10zM450,460h10v10h-10zM460,460h10v10h-10zM480,460h10v10h-10zM490,460h10v10h-10zM530,460h10v10h-10zM540,460h10v10h-10zM560,460h10v10h-10zM580,460h10v10h-10zM590,460h10v10h-10zM600,460h10v10h-10zM620,460h10v10h-10zM220,470h10v10h-10zM240,470h10v10h-10zM250,470h10v10h-10zM260,470h10v10h-10zM280,470h10v10h-10zM300,470h10v10h-10zM350,470h10v10h-10zM370,470h10v10h-10zM380,470h10v10h-10zM390,470h10v10h-10zM410,470h10v10h-10zM440,470h10v10h-10zM450,470h10v10h-10zM470,470h10v10h-10zM480,470h10v10h-10zM490,470h10v10h-10zM530,470h10v10h-10zM560,470h10v10h-10zM580,470h10v10h-10zM590,470h10v10h-10zM600,470h10v10h-10zM620,470h10v10h-10zM220,480h10v10h-10zM280,480h10v10h-10zM330,480h10v10h-10zM340,480h10v10h-10zM350,480h10v10h-10zM360,480h10v10h-10zM370,480h10v10h-10zM400,480h10v10h-10zM410,480h10v10h-10zM420,480h10v10h-10zM450,480h10v10h-10zM460,480h10v10h-10zM470,480h10v10h-10zM480,480h10v10h-10zM490,480h10v10h-10zM520,480h10v10h-10zM530,480h10v10h-10zM540,480h10v10h-10zM560,480h10v10h-10zM620,480h10v10h-10zM220,490h10v10h-10zM230,490h10v10h-10zM240,490h10v10h-10zM250,490h10v10h-10zM260,490h10v10h-10zM270,490h10v10h-10zM280,490h10v10h-10zM300,490h10v10h-10zM320,490h10v10h-10zM340,490h10v10h-10zM360,490h10v10h-10zM380,490h10v10h-10zM400,490h10v10h-10zM420,490h10v10h-10zM440,490h10v10h-10zM460,490h10v10h-10zM480,490h10v10h-10zM500,490h10v10h-10zM520,490h10v10h-10zM540,490h10v10h-10zM560,490h10v10h-10zM570,490h10v10h-10zM580,490h10v10h-10zM590,490h10v10h-10zM600,490h10v10h-10zM610,490h10v10h-10zM620,490h10v10h-10zM310,500h10v10h-10zM330,500h10v10h-10zM350,500h10v10h-10zM360,500h10v10h-10zM370,500h10v10h-10zM380,500h10v10h-10zM390,500h10v10h-10zM420,500h10v10h-10zM430,500h10v10h-10zM450,500h10v10h-10zM460,500h10v10h-10zM470,500h10v10h-10zM480,500h10v10h-10zM500,500h10v10h-10zM510,500h10v10h-10zM530,500h10v10h-10zM540,500h10v10h-10zM220,510h10v10h-10zM240,510h10v10h-10zM260,510h10v10h-10zM280,510h10v10h-10zM310,510h10v10h-10zM320,510h10v10h-10zM330,510h10v10h-10zM340,510h10v10h-10zM380,510h10v10h-10zM390,510h10v10h-10zM410,510h10v10h-10zM420,510h10v10h-10zM430,510h10v10h-10zM460,510h10v10h-10zM470,510h10v10h-10zM490,510h10v10h-10zM500,510h10v10h-10zM510,510h10v10h-10zM540,510h10v10h-10zM580,510h10v10h-10zM610,510h10v10h-10zM240,520h10v10h-10zM260,520h10v10h-10zM270,520h10v10h-10zM290,520h10v10h-10zM300,520h10v10h-10zM320,520h10v10h-10zM330,520h10v10h-10zM340,520h10v10h-10zM370,520h10v10h-10zM380,520h10v10h-10zM390,520h10v10h-10zM400,520h10v10h-10zM420,520h10v10h-10zM430,520h10v10h-10zM460,520h10v10h-10zM470,520h10v10h-10zM510,520h10v10h-10zM540,520h10v10h-10zM560,520h10v10h-10zM570,520h10v10h-10zM590,520h10v10h-10zM600,520h10v10h-10zM620,520h10v10h-10zM250,530h10v10h-10zM270,530h10v10h-10zM280,530h10v10h-10zM300,530h10v10h-10zM350,530h10v10h-10zM360,530h10v10h-10zM390,530h10v10h-10zM400,530h10v10h-10zM430,530h10v10h-10zM440,530h10v10h-10zM480,530h10v10h-10zM500,530h10v10h-10zM510,530h10v10h-10zM520,530h10v10h-10zM560,530h10v10h-10zM580,530h10v10h-10zM600,530h10v10h-10zM620,530h10v10h-10zM220,540h10v10h-10zM230,540h10v10h-10zM240,540h10v10h-10zM250,540h10v10h-10zM260,540h10v10h-10zM270,540h10v10h-10zM290,540h10v10h-10zM320,540h10v10h-10zM330,540h10v10h-10zM390,540h10v10h-10zM410,540h10v10h-10zM430,540h10v10h-10zM440,540h10v10h-10zM450,540h10v10h-10zM460,540h10v10h-10zM470,540h10v10h-10zM480,540h10v10h-10zM490,540h10v10h-10zM500,540h10v10h-10zM510,540h10v10h-10zM540,540h10v10h-10zM550,540h10v10h-10zM570,540h10v10h-10zM610,540h10v10h-10zM220,550h10v10h-10zM240,550h10v10h-10zM250,550h10v10h-10zM260,550h10v10h-10zM270,550h10v10h-10zM280,550h10v10h-10zM350,550h10v10h-10zM390,550h10v10h-10zM410,550h10v10h-10zM420,550h10v10h-10zM430,550h10v10h-10zM450,550h10v10h-10zM460,550h10v10h-10zM470,550h10v10h-10zM500,550h10v10h-10zM510,550h10v10h-10zM530,550h10v10h-10zM560,550h10v10h-10zM590,550h10v10h-10zM620,550h10v10h-10zM230,560h10v10h-10zM240,560h10v10h-10zM260,560h10v10h-10zM290,560h10v10h-10zM310,560h10v10h-10zM320,560h10v10h-10zM340,560h10v10h-10zM360,560h10v10h-10zM410,560h10v10h-10zM420,560h10v10h-10zM450,560h10v10h-10zM460,560h10v10h-10zM480,560h10v10h-10zM500,560h10v10h-10zM560,560h10v10h-10zM590,560h10v10h-10zM610,560h10v10h-10zM620,560h10v10h-10zM230,570h10v10h-10zM250,570h10v10h-10zM260,570h10v10h-10zM280,570h10v10h-10zM290,570h10v10h-10zM310,570h10v10h-10zM410,570h10v10h-10zM420,570h10v10h-10zM460,570h10v10h-10zM540,570h10v10h-10zM560,570h10v10h-10zM570,570h10v10h-10zM590,570h10v10h-10zM610,570h10v10h-10zM620,570h10v10h-10zM220,580h10v10h-10zM230,580h10v10h-10zM250,580h10v10h-10zM270,580h10v10h-10zM300,580h10v10h-10zM330,580h10v10h-10zM370,580h10v10h-10zM380,580h10v10h-10zM390,580h10v10h-10zM400,580h10v10h-10zM420,580h10v10h-10zM430,580h10v10h-10zM440,580h10v10h-10zM450,580h10v10h-10zM460,580h10v10h-10zM470,580h10v10h-10zM480,580h10v10h-10zM500,580h10v10h-10zM510,580h10v10h-10zM520,580h10v10h-10zM530,580h10v10h-10zM560,580h10v10h-10zM580,580h10v10h-10zM220,590h10v10h-10zM230,590h10v10h-10zM250,590h10v10h-10zM260,590h10v10h-10zM280,590h10v10h-10zM290,590h10v10h-10zM320,590h10v10h-10zM340,590h10v10h-10zM350,590h10v10h-10zM360,590h10v10h-10zM370,590h10v10h-10zM390,590h10v10h-10zM400,590h10v10h-10zM410,590h10v10h-10zM430,590h10v10h-10zM440,590h10v10h-10zM470,590h10v10h-10zM480,590h10v10h-10zM490,590h10v10h-10zM510,590h10v10h-10zM520,590h10v10h-10zM560,590h10v10h-10zM570,590h10v10h-10zM590,590h10v10h-10zM610,590h10v10h-10zM220,600h10v10h-10zM230,600h10v10h-10zM250,600h10v10h-10zM260,600h10v10h-10zM270,600h10v10h-10zM300,600h10v10h-10zM330,600h10v10h-10zM360,600h10v10h-10zM370,600h10v10h-10zM400,600h10v10h-10zM440,600h10v10h-10zM470,600h10v10h-10zM480,600h10v10h-10zM510,600h10v10h-10zM520,600h10v10h-10zM560,600h10v10h-10zM590,600h10v10h-10zM610,600h10v10h-10zM620,600h10v10h-10zM220,610h10v10h-10zM230,610h10v10h-10zM250,610h10v10h-10zM260,610h10v10h-10zM270,610h10v10h-10zM280,610h10v10h-10zM290,610h10v10h-10zM300,610h10v10h-10zM310,610h10v10h-10zM340,610h10v10h-10zM360,610h10v10h-10zM370,610h10v10h-10zM380,610h10v10h-10zM390,610h10v10h-10zM420,610h10v10h-10zM460,610h10v10h-10zM500,610h10v10h-10zM540,610h10v10h-10zM550,610h10v10h-10zM580,610h10v10h-10zM610,610h10v10h-10zM620,610h10v10h-10zM250,620h10v10h-10zM260,620h10v10h-10zM290,620h10v10h-10zM310,620h10v10h-10zM350,620h10v10h-10zM360,620h10v10h-10zM370,620h10v10h-10zM410,620h10v10h-10zM430,620h10v10h-10zM440,620h10v10h-10zM450,620h10v10h-10zM470,620h10v10h-10zM480,620h10v10h-10zM490,620h10v10h-10zM510,620h10v10h-10zM530,620h10v10h-10zM550,620h10v10h-10zM560,620h10v10h-10zM570,620h10v10h-10zM590,620h10v10h-10zM230,630h10v10h-10zM240,630h10v10h-10zM250,630h10v10h-10zM280,630h10v10h-10zM300,630h10v10h-10zM310,630h10v10h-10zM330,630h10v10h-10zM360,630h10v10h-10zM370,630h10v10h-10zM430,630h10v10h-10zM440,630h10v10h-10zM470,630h10v10h-10zM480,630h10v10h-10zM500,630h10v10h-10zM510,630h10v10h-10zM520,630h10v10h-10zM540,630h10v10h-10zM560,630h10v10h-10zM570,630h10v10h-10zM590,630h10v10h-10zM610,630h10v10h-10zM620,630h10v10h-10zM230,640h10v10h-10zM240,640h10v10h-10zM250,640h10v10h-10zM310,640h10v10h-10zM320,640h10v10h-10zM340,640h10v10h-10zM350,640h10v10h-10zM360,640h10v10h-10zM370,640h10v10h-10zM390,640h10v10h-10zM440,640h10v10h-10zM460,640h10v10h-10zM470,640h10v10h-10zM480,640h10v10h-10zM540,640h10v10h-10zM550,640h10v10h-10zM560,640h10v10h-10zM570,640h10v10h-10zM590,640h10v10h-10zM610,640h10v10h-10zM620,640h10v10h-10zM220,650h10v10h-10zM230,650h10v10h-10zM260,650h10v10h-10zM270,650h10v10h-10zM280,650h10v10h-10zM290,650h10v10h-10zM300,650h10v10h-10zM330,650h10v10h-10zM340,650h10v10h-10zM350,650h10v10h-10zM360,650h10v10h-10zM370,650h10v10h-10zM380,650h10v10h-10zM390,650h10v10h-10zM400,650h10v10h-10zM430,650h10v10h-10zM480,650h10v10h-10zM500,650h10v10h-10zM520,650h10v10h-10zM540,650h10v10h-10zM560,650h10v10h-10zM580,650h10v10h-10zM600,650h10v10h-10zM610,650h10v10h-10zM620,650h10v10h-10zM230,660h10v10h-10zM260,660h10v10h-10zM270,660h10v10h-10zM310,660h10v10h-10zM320,660h10v10h-10zM330,660h10v10h-10zM360,660h10v10h-10zM390,660h10v10h-10zM400,660h10v10h-10zM410,660h10v10h-10zM420,660h10v10h-10zM430,660h10v10h-10zM440,660h10v10h-10zM460,660h10v10h-10zM470,660h10v10h-10zM480,660h10v10h-10zM490,660h10v10h-10zM500,660h10v10h-10zM510,660h10v10h-10zM520,660h10v10h-10zM540,660h10v10h-10zM550,660h10v10h-10zM570,660h10v10h-10zM590,660h10v10h-10zM610,660h10v10h-10zM620,660h10v10h-10zM240,670h10v10h-10zM260,670h10v10h-10zM270,670h10v10h-10zM280,670h10v10h-10zM290,670h10v10h-10zM310,670h10v10h-10zM340,670h10v10h-10zM350,670h10v10h-10zM360,670h10v10h-10zM380,670h10v10h-10zM390,670h10v10h-10zM420,670h10v10h-10zM430,670h10v10h-10zM450,670h10v10h-10zM460,670h10v10h-10zM470,670h10v10h-10zM490,670h10v10h-10zM510,670h10v10h-10zM540,670h10v10h-10zM560,670h10v10h-10zM570,670h10v10h-10zM590,670h10v10h-10zM610,670h10v10h-10zM620,670h10v10h-10zM260,680h10v10h-10zM270,680h10v10h-10zM310,680h10v10h-10zM340,680h10v10h-10zM380,680h10v10h-10zM400,680h10v10h-10zM420,680h10v10h-10zM430,680h10v10h-10zM440,680h10v10h-10zM470,680h10v10h-10zM500,680h10v10h-10zM510,680h10v10h-10zM520,680h10v10h-10zM560,680h10v10h-10zM570,680h10v10h-10zM620,680h10v10h-10zM220,690h10v10h-10zM240,690h10v10h-10zM260,690h10v10h-10zM280,690h10v10h-10zM290,690h10v10h-10zM340,690h10v10h-10zM350,690h10v10h-10zM360,690h10v10h-10zM380,690h10v10h-10zM390,690h10v10h-10zM440,690h10v10h-10zM460,690h10v10h-10zM480,690h10v10h-10zM510,690h10v10h-10zM520,690h10v10h-10zM560,690h10v10h-10zM580,690h10v10h-10zM600,690h10v10h-10zM620,690h10v10h-10zM230,700h10v10h-10zM250,700h10v10h-10zM290,700h10v10h-10zM320,700h10v10h-10zM360,700h10v10h-10zM370,700h10v10h-10zM390,700h10v10h-10zM400,700h10v10h-10zM410,700h10v10h-10zM420,700h10v10h-10zM430,700h10v10h-10zM440,700h10v10h-10zM450,700h10v10h-10zM460,700h10v10h-10zM470,700h10v10h-10zM510,700h10v10h-10zM520,700h10v10h-10zM540,700h10v10h-10zM550,700h10v10h-10zM570,700h10v10h-10zM610,700h10v10h-10zM240,710h10v10h-10zM280,710h10v10h-10zM340,710h10v10h-10zM350,710h10v10h-10zM360,710h10v10h-10zM390,710h10v10h-10zM410,710h10v10h-10zM420,710h10v10h-10zM430,710h10v10h-10zM470,710h10v10h-10zM500,710h10v10h-10zM510,710h10v10h-10zM530,710h10v10h-10zM560,710h10v10h-10zM590,710h10v10h-10zM620,710h10v10h-10zM220,720h10v10h-10zM230,720h10v10h-10zM240,720h10v10h-10zM260,720h10v10h-10zM330,720h10v10h-10zM350,720h10v10h-10zM390,720h10v10h-10zM400,720h10v10h-10zM410,720h10v10h-10zM450,720h10v10h-10zM460,720h10v10h-10zM470,720h10v10h-10zM480,720h10v10h-10zM500,720h10v10h-10zM510,720h10v10h-10zM560,720h10v10h-10zM620,720h10v10h-10zM220,730h10v10h-10zM240,730h10v10h-10zM260,730h10v10h-10zM270,730h10v10h-10zM280,730h10v10h-10zM300,730h10v10h-10zM310,730h10v10h-10zM330,730h10v10h-10zM380,730h10v10h-10zM400,730h10v10h-10zM440,730h10v10h-10zM520,730h10v10h-10zM540,730h10v10h-10zM570,730h10v10h-10zM580,730h10v10h-10zM600,730h10v10h-10zM620,730h10v10h-10zM250,740h10v10h-10zM300,740h10v10h-10zM340,740h10v10h-10zM390,740h10v10h-10zM410,740h10v10h-10zM430,740h10v10h-10zM470,740h10v10h-10zM510,740h10v10h-10zM530,740h10v10h-10zM550,740h10v10h-10zM560,740h10v10h-10zM570,740h10v10h-10zM580,740h10v10h-10zM610,740h10v10h-10zM240,750h10v10h-10zM270,750h10v10h-10zM280,750h10v10h-10zM300,750h10v10h-10zM310,750h10v10h-10zM350,750h10v10h-10zM360,750h10v10h-10zM380,750h10v10h-10zM390,750h10v10h-10zM400,750h10v10h-10zM430,750h10v10h-10zM440,750h10v10h-10zM470,750h10v10h-10zM480,750h10v10h-10zM510,750h10v10h-10zM520,750h10v10h-10zM540,750h10v10h-10zM550,750h10v10h-10zM560,750h10v10h-10zM570,750h10v10h-10zM580,750h10v10h-10zM300,760h10v10h-10zM320,760h10v10h-10zM330,760h10v10h-10zM340,760h10v10h-10zM360,760h10v10h-10zM380,760h10v10h-10zM390,760h10v10h-10zM400,760h10v10h-10zM430,760h10v10h-10zM440,760h10v10h-10zM480,760h10v10h-10zM510,760h10v10h-10zM520,760h10v10h-10zM540,760h10v10h-10zM580,760h10v10h-10zM590,760h10v10h-10zM610,760h10v10h-10zM620,760h10v10h-10zM220,770h10v10h-10zM230,770h10v10h-10zM240,770h10v10h-10zM250,770h10v10h-10zM260,770h10v10h-10zM270,770h10v10h-10zM280,770h10v10h-10zM330,770h10v10h-10zM360,770h10v10h-10zM370,770h10v10h-10zM400,770h10v10h-10zM420,770h10v10h-10zM440,770h10v10h-10zM460,770h10v10h-10zM500,770h10v10h-10zM510,770h10v10h-10zM530,770h10v10h-10zM540,770h10v10h-10zM560,770h10v10h-10zM580,770h10v10h-10zM600,770h10v10h-10zM610,770h10v10h-10zM620,770h10v10h-10zM220,780h10v10h-10zM280,780h10v10h-10zM320,780h10v10h-10zM330,780h10v10h-10zM350,780h10v10h-10zM390,780h10v10h-10zM400,780h10v10h-10zM410,780h10v10h-10zM430,780h10v10h-10zM450,780h10v10h-10zM470,780h10v10h-10zM480,780h10v10h-10zM490,780h10v10h-10zM510,780h10v10h-10zM530,780h10v10h-10zM540,780h10v10h-10zM580,780h10v10h-10zM590,780h10v10h-10zM610,780h10v10h-10zM220,790h10v10h-10zM240,790h10v10h-10zM250,790h10v10h-10zM260,790h10v10h-10zM280,790h10v10h-10zM300,790h10v10h-10zM330,790h10v10h-10zM350,790h10v10h-10zM360,790h10v10h-10zM380,790h10v10h-10zM400,790h10v10h-10zM420,790h10v10h-10zM430,790h10v10h-10zM440,790h10v10h-10zM460,790h10v10h-10zM500,790h10v10h-10zM510,790h10v10h-10zM540,790h10v10h-10zM550,790h10v10h-10zM560,790h10v10h-10zM570,790h10v10h-10zM580,790h10v10h-10zM590,790h10v10h-10zM620,790h10v10h-10zM220,800h10v10h-10zM240,800h10v10h-10zM250,800h10v10h-10zM260,800h10v10h-10zM280,800h10v10h-10zM310,800h10v10h-10zM330,800h10v10h-10zM350,800h10v10h-10zM370,800h10v10h-10zM380,800h10v10h-10zM400,800h10v10h-10zM420,800h10v10h-10zM440,800h10v10h-10zM480,800h10v10h-10zM500,800h10v10h-10zM510,800h10v10h-10zM530,800h10v10h-10zM550,800h10v10h-10zM580,800h10v10h-10zM590,800h10v10h-10zM610,800h10v10h-10zM620,800h10v10h-10zM220,810h10v10h-10zM240,810h10v10h-10zM250,810h10v10h-10zM260,810h10v10h-10zM280,810h10v10h-10zM300,810h10v10h-10zM310,810h10v10h-10zM330,810h10v10h-10zM360,810h10v10h-10zM390,810h10v10h-10zM440,810h10v10h-10zM460,810h10v10h-10zM480,810h10v10h-10zM510,810h10v10h-10zM520,810h10v10h-10zM540,810h10v10h-10zM570,810h10v10h-10zM580,810h10v10h-10zM600,810h10v10h-10zM610,810h10v10h-10zM620,810h10v10h-10zM220,820h10v10h-10zM280,820h10v10h-10zM330,820h10v10h-10zM380,820h10v10h-10zM390,820h10v10h-10zM420,820h10v10h-10zM430,820h10v10h-10zM450,820h10v10h-10zM470,820h10v10h-10zM480,820h10v10h-10zM490,820h10v10h-10zM500,820h10v10h-10zM510,820h10v10h-10zM540,820h10v10h-10zM560,820h10v10h-10zM570,820h10v10h-10zM590,820h10v10h-10zM610,820h10v10h-10zM220,830h10v10h-10zM230,830h10v10h-10zM240,830h10v10h-10zM250,830h10v10h-10zM260,830h10v10h-10zM270,830h10v10h-10zM280,830h10v10h-10zM300,830h10v10h-10zM310,830h10v10h-10zM320,830h10v10h-10zM350,830h10v10h-10zM360,830h10v10h-10zM370,830h10v10h-10zM380,830h10v10h-10zM420,830h10v10h-10zM430,830h10v10h-10zM440,830h10v10h-10zM460,830h10v10h-10zM470,830h10v10h-10zM510,830h10v10h-10zM530,830h10v10h-10zM540,830h10v10h-10zM570,830h10v10h-10zM580,830h10v10h-10zM590,830h10v10h-10zM610,830h10v10h-10zM620,830h10v10h-10z" fill="#020617"/>

  <rect x="48" y="918" width="754" height="118" rx="20" fill="#f8fafc" stroke="#e2e8f0" stroke-width="2"/>
  <text x="76" y="956" font-family="Arial, Helvetica, sans-serif" font-size="23" font-weight="900" fill="#0f172a">STO-01</text>
  <text x="76" y="986" font-family="Arial, Helvetica, sans-serif" font-size="17" fill="#334155">STO-01 First Aid Box</text>
  <text x="76" y="1011" font-family="Arial, Helvetica, sans-serif" font-size="17" fill="#334155">Area: Production</text>
  <text x="76" y="1036" font-family="Arial, Helvetica, sans-serif" font-size="17" fill="#334155">Location: Store</text>

  <text x="425" y="1072" text-anchor="middle" font-family="Arial, Helvetica, sans-serif" font-size="15" font-weight="700" fill="#64748b">Opens first-aid-box-inspection.vercel.app</text>
</svg>
