<?xml version="1.0" encoding="UTF-8"?>
<svg xmlns="http://www.w3.org/2000/svg" width="850" height="1240" viewBox="0 0 850 1240" role="img" aria-label="VCB-01 Usage QR">
  <rect width="100%" height="100%" rx="34" fill="#ffffff"/>
  <rect x="0" y="0" width="850" height="104" rx="34" fill="#0b7fc3"/>
  <text x="58" y="66" font-family="Arial, Helvetica, sans-serif" font-size="34" font-weight="800" fill="#ffffff">TAMCO</text>
  <text x="792" y="50" text-anchor="end" font-family="Arial, Helvetica, sans-serif" font-size="18" font-weight="700" fill="#dff4ff">First Aid Box</text>
  <text x="792" y="74" text-anchor="end" font-family="Arial, Helvetica, sans-serif" font-size="16" fill="#dff4ff">QR access label</text>

  <rect x="48" y="128" width="754" height="142" rx="26" fill="#059669"/>
  <text x="425" y="196" text-anchor="middle" font-family="Arial, Helvetica, sans-serif" font-size="64" font-weight="900" fill="#ffffff">USAGE LOG</text>
  <text x="425" y="236" text-anchor="middle" font-family="Arial, Helvetica, sans-serif" font-size="25" font-weight="800" fill="#ffffff">SCAN WHEN TAKING ITEMS</text>

  <text x="425" y="316" text-anchor="middle" font-family="Arial, Helvetica, sans-serif" font-size="40" font-weight="900" fill="#0f172a">VCB-01</text>
  <text x="425" y="344" text-anchor="middle" font-family="Arial, Helvetica, sans-serif" font-size="20" font-weight="700" fill="#475569">Record first aid items taken</text>

  <rect x="112" y="347" width="626" height="626" rx="24" fill="#f8fafc" stroke="#cbd5e1" stroke-width="2"/>
  <rect x="130" y="365" width="590" height="590" fill="#ffffff"/>
  <path d="M180,415h10v10h-10zM190,415h10v10h-10zM200,415h10v10h-10zM210,415h10v10h-10zM220,415h10v10h-10zM230,415h10v10h-10zM240,415h10v10h-10zM260,415h10v10h-10zM270,415h10v10h-10zM280,415h10v10h-10zM350,415h10v10h-10zM380,415h10v10h-10zM410,415h10v10h-10zM420,415h10v10h-10zM430,415h10v10h-10zM440,415h10v10h-10zM480,415h10v10h-10zM510,415h10v10h-10zM520,415h10v10h-10zM530,415h10v10h-10zM580,415h10v10h-10zM600,415h10v10h-10zM610,415h10v10h-10zM620,415h10v10h-10zM630,415h10v10h-10zM640,415h10v10h-10zM650,415h10v10h-10zM660,415h10v10h-10zM180,425h10v10h-10zM240,425h10v10h-10zM260,425h10v10h-10zM300,425h10v10h-10zM330,425h10v10h-10zM340,425h10v10h-10zM360,425h10v10h-10zM390,425h10v10h-10zM440,425h10v10h-10zM460,425h10v10h-10zM470,425h10v10h-10zM480,425h10v10h-10zM500,425h10v10h-10zM520,425h10v10h-10zM530,425h10v10h-10zM550,425h10v10h-10zM560,425h10v10h-10zM570,425h10v10h-10zM580,425h10v10h-10zM600,425h10v10h-10zM660,425h10v10h-10zM180,435h10v10h-10zM200,435h10v10h-10zM210,435h10v10h-10zM220,435h10v10h-10zM240,435h10v10h-10zM260,435h10v10h-10zM280,435h10v10h-10zM290,435h10v10h-10zM300,435h10v10h-10zM310,435h10v10h-10zM330,435h10v10h-10zM370,435h10v10h-10zM380,435h10v10h-10zM410,435h10v10h-10zM420,435h10v10h-10zM430,435h10v10h-10zM440,435h10v10h-10zM450,435h10v10h-10zM470,435h10v10h-10zM520,435h10v10h-10zM530,435h10v10h-10zM570,435h10v10h-10zM580,435h10v10h-10zM600,435h10v10h-10zM620,435h10v10h-10zM630,435h10v10h-10zM640,435h10v10h-10zM660,435h10v10h-10zM180,445h10v10h-10zM200,445h10v10h-10zM210,445h10v10h-10zM220,445h10v10h-10zM240,445h10v10h-10zM260,445h10v10h-10zM270,445h10v10h-10zM290,445h10v10h-10zM300,445h10v10h-10zM320,445h10v10h-10zM330,445h10v10h-10zM350,445h10v10h-10zM370,445h10v10h-10zM380,445h10v10h-10zM400,445h10v10h-10zM420,445h10v10h-10zM450,445h10v10h-10zM480,445h10v10h-10zM520,445h10v10h-10zM570,445h10v10h-10zM600,445h10v10h-10zM620,445h10v10h-10zM630,445h10v10h-10zM640,445h10v10h-10zM660,445h10v10h-10zM180,455h10v10h-10zM200,455h10v10h-10zM210,455h10v10h-10zM220,455h10v10h-10zM240,455h10v10h-10zM260,455h10v10h-10zM290,455h10v10h-10zM300,455h10v10h-10zM310,455h10v10h-10zM340,455h10v10h-10zM350,455h10v10h-10zM370,455h10v10h-10zM380,455h10v10h-10zM390,455h10v10h-10zM400,455h10v10h-10zM410,455h10v10h-10zM420,455h10v10h-10zM430,455h10v10h-10zM440,455h10v10h-10zM450,455h10v10h-10zM470,455h10v10h-10zM480,455h10v10h-10zM490,455h10v10h-10zM500,455h10v10h-10zM510,455h10v10h-10zM520,455h10v10h-10zM530,455h10v10h-10zM540,455h10v10h-10zM550,455h10v10h-10zM600,455h10v10h-10zM620,455h10v10h-10zM630,455h10v10h-10zM640,455h10v10h-10zM660,455h10v10h-10zM180,465h10v10h-10zM240,465h10v10h-10zM290,465h10v10h-10zM340,465h10v10h-10zM360,465h10v10h-10zM380,465h10v10h-10zM400,465h10v10h-10zM440,465h10v10h-10zM460,465h10v10h-10zM470,465h10v10h-10zM480,465h10v10h-10zM500,465h10v10h-10zM510,465h10v10h-10zM520,465h10v10h-10zM530,465h10v10h-10zM540,465h10v10h-10zM560,465h10v10h-10zM600,465h10v10h-10zM660,465h10v10h-10zM180,475h10v10h-10zM190,475h10v10h-10zM200,475h10v10h-10zM210,475h10v10h-10zM220,475h10v10h-10zM230,475h10v10h-10zM240,475h10v10h-10zM260,475h10v10h-10zM280,475h10v10h-10zM300,475h10v10h-10zM320,475h10v10h-10zM340,475h10v10h-10zM360,475h10v10h-10zM380,475h10v10h-10zM400,475h10v10h-10zM420,475h10v10h-10zM440,475h10v10h-10zM460,475h10v10h-10zM480,475h10v10h-10zM500,475h10v10h-10zM520,475h10v10h-10zM540,475h10v10h-10zM560,475h10v10h-10zM580,475h10v10h-10zM600,475h10v10h-10zM610,475h10v10h-10zM620,475h10v10h-10zM630,475h10v10h-10zM640,475h10v10h-10zM650,475h10v10h-10zM660,475h10v10h-10zM260,485h10v10h-10zM280,485h10v10h-10zM300,485h10v10h-10zM310,485h10v10h-10zM340,485h10v10h-10zM350,485h10v10h-10zM360,485h10v10h-10zM370,485h10v10h-10zM380,485h10v10h-10zM390,485h10v10h-10zM400,485h10v10h-10zM440,485h10v10h-10zM450,485h10v10h-10zM460,485h10v10h-10zM470,485h10v10h-10zM490,485h10v10h-10zM510,485h10v10h-10zM530,485h10v10h-10zM550,485h10v10h-10zM570,485h10v10h-10zM190,495h10v10h-10zM200,495h10v10h-10zM220,495h10v10h-10zM240,495h10v10h-10zM250,495h10v10h-10zM270,495h10v10h-10zM290,495h10v10h-10zM320,495h10v10h-10zM340,495h10v10h-10zM350,495h10v10h-10zM360,495h10v10h-10zM390,495h10v10h-10zM400,495h10v10h-10zM410,495h10v10h-10zM420,495h10v10h-10zM430,495h10v10h-10zM440,495h10v10h-10zM460,495h10v10h-10zM480,495h10v10h-10zM490,495h10v10h-10zM520,495h10v10h-10zM530,495h10v10h-10zM560,495h10v10h-10zM570,495h10v10h-10zM600,495h10v10h-10zM620,495h10v10h-10zM630,495h10v10h-10zM640,495h10v10h-10zM650,495h10v10h-10zM660,495h10v10h-10zM180,505h10v10h-10zM200,505h10v10h-10zM210,505h10v10h-10zM220,505h10v10h-10zM260,505h10v10h-10zM270,505h10v10h-10zM300,505h10v10h-10zM320,505h10v10h-10zM340,505h10v10h-10zM390,505h10v10h-10zM410,505h10v10h-10zM420,505h10v10h-10zM450,505h10v10h-10zM460,505h10v10h-10zM470,505h10v10h-10zM490,505h10v10h-10zM500,505h10v10h-10zM510,505h10v10h-10zM530,505h10v10h-10zM540,505h10v10h-10zM550,505h10v10h-10zM560,505h10v10h-10zM590,505h10v10h-10zM610,505h10v10h-10zM650,505h10v10h-10zM660,505h10v10h-10zM190,515h10v10h-10zM220,515h10v10h-10zM240,515h10v10h-10zM300,515h10v10h-10zM310,515h10v10h-10zM330,515h10v10h-10zM340,515h10v10h-10zM420,515h10v10h-10zM440,515h10v10h-10zM470,515h10v10h-10zM490,515h10v10h-10zM520,515h10v10h-10zM530,515h10v10h-10zM560,515h10v10h-10zM600,515h10v10h-10zM610,515h10v10h-10zM630,515h10v10h-10zM640,515h10v10h-10zM650,515h10v10h-10zM660,515h10v10h-10zM190,525h10v10h-10zM210,525h10v10h-10zM220,525h10v10h-10zM260,525h10v10h-10zM310,525h10v10h-10zM320,525h10v10h-10zM330,525h10v10h-10zM340,525h10v10h-10zM370,525h10v10h-10zM380,525h10v10h-10zM390,525h10v10h-10zM400,525h10v10h-10zM410,525h10v10h-10zM440,525h10v10h-10zM470,525h10v10h-10zM480,525h10v10h-10zM490,525h10v10h-10zM500,525h10v10h-10zM510,525h10v10h-10zM540,525h10v10h-10zM550,525h10v10h-10zM580,525h10v10h-10zM590,525h10v10h-10zM610,525h10v10h-10zM620,525h10v10h-10zM630,525h10v10h-10zM180,535h10v10h-10zM200,535h10v10h-10zM210,535h10v10h-10zM230,535h10v10h-10zM240,535h10v10h-10zM250,535h10v10h-10zM260,535h10v10h-10zM270,535h10v10h-10zM290,535h10v10h-10zM300,535h10v10h-10zM310,535h10v10h-10zM340,535h10v10h-10zM360,535h10v10h-10zM380,535h10v10h-10zM390,535h10v10h-10zM400,535h10v10h-10zM410,535h10v10h-10zM440,535h10v10h-10zM450,535h10v10h-10zM460,535h10v10h-10zM470,535h10v10h-10zM480,535h10v10h-10zM500,535h10v10h-10zM510,535h10v10h-10zM540,535h10v10h-10zM560,535h10v10h-10zM600,535h10v10h-10zM620,535h10v10h-10zM650,535h10v10h-10zM180,545h10v10h-10zM190,545h10v10h-10zM200,545h10v10h-10zM270,545h10v10h-10zM280,545h10v10h-10zM290,545h10v10h-10zM300,545h10v10h-10zM310,545h10v10h-10zM320,545h10v10h-10zM360,545h10v10h-10zM370,545h10v10h-10zM390,545h10v10h-10zM420,545h10v10h-10zM450,545h10v10h-10zM480,545h10v10h-10zM500,545h10v10h-10zM510,545h10v10h-10zM550,545h10v10h-10zM570,545h10v10h-10zM590,545h10v10h-10zM610,545h10v10h-10zM630,545h10v10h-10zM640,545h10v10h-10zM650,545h10v10h-10zM660,545h10v10h-10zM190,555h10v10h-10zM200,555h10v10h-10zM220,555h10v10h-10zM240,555h10v10h-10zM250,555h10v10h-10zM270,555h10v10h-10zM290,555h10v10h-10zM310,555h10v10h-10zM370,555h10v10h-10zM380,555h10v10h-10zM390,555h10v10h-10zM400,555h10v10h-10zM410,555h10v10h-10zM420,555h10v10h-10zM430,555h10v10h-10zM440,555h10v10h-10zM450,555h10v10h-10zM460,555h10v10h-10zM500,555h10v10h-10zM510,555h10v10h-10zM520,555h10v10h-10zM540,555h10v10h-10zM560,555h10v10h-10zM600,555h10v10h-10zM610,555h10v10h-10zM640,555h10v10h-10zM650,555h10v10h-10zM660,555h10v10h-10zM200,565h10v10h-10zM220,565h10v10h-10zM230,565h10v10h-10zM270,565h10v10h-10zM280,565h10v10h-10zM300,565h10v10h-10zM310,565h10v10h-10zM320,565h10v10h-10zM330,565h10v10h-10zM340,565h10v10h-10zM350,565h10v10h-10zM370,565h10v10h-10zM420,565h10v10h-10zM430,565h10v10h-10zM450,565h10v10h-10zM460,565h10v10h-10zM470,565h10v10h-10zM490,565h10v10h-10zM510,565h10v10h-10zM530,565h10v10h-10zM550,565h10v10h-10zM570,565h10v10h-10zM580,565h10v10h-10zM600,565h10v10h-10zM610,565h10v10h-10zM620,565h10v10h-10zM630,565h10v10h-10zM650,565h10v10h-10zM660,565h10v10h-10zM180,575h10v10h-10zM200,575h10v10h-10zM210,575h10v10h-10zM230,575h10v10h-10zM240,575h10v10h-10zM250,575h10v10h-10zM260,575h10v10h-10zM270,575h10v10h-10zM290,575h10v10h-10zM300,575h10v10h-10zM310,575h10v10h-10zM320,575h10v10h-10zM330,575h10v10h-10zM340,575h10v10h-10zM360,575h10v10h-10zM370,575h10v10h-10zM380,575h10v10h-10zM400,575h10v10h-10zM410,575h10v10h-10zM420,575h10v10h-10zM430,575h10v10h-10zM440,575h10v10h-10zM460,575h10v10h-10zM470,575h10v10h-10zM480,575h10v10h-10zM500,575h10v10h-10zM510,575h10v10h-10zM520,575h10v10h-10zM540,575h10v10h-10zM550,575h10v10h-10zM560,575h10v10h-10zM580,575h10v10h-10zM620,575h10v10h-10zM640,575h10v10h-10zM660,575h10v10h-10zM230,585h10v10h-10zM250,585h10v10h-10zM270,585h10v10h-10zM310,585h10v10h-10zM320,585h10v10h-10zM330,585h10v10h-10zM380,585h10v10h-10zM410,585h10v10h-10zM470,585h10v10h-10zM490,585h10v10h-10zM510,585h10v10h-10zM530,585h10v10h-10zM550,585h10v10h-10zM580,585h10v10h-10zM600,585h10v10h-10zM610,585h10v10h-10zM630,585h10v10h-10zM640,585h10v10h-10zM650,585h10v10h-10zM660,585h10v10h-10zM180,595h10v10h-10zM190,595h10v10h-10zM220,595h10v10h-10zM230,595h10v10h-10zM240,595h10v10h-10zM260,595h10v10h-10zM290,595h10v10h-10zM310,595h10v10h-10zM340,595h10v10h-10zM360,595h10v10h-10zM370,595h10v10h-10zM400,595h10v10h-10zM460,595h10v10h-10zM470,595h10v10h-10zM480,595h10v10h-10zM510,595h10v10h-10zM520,595h10v10h-10zM530,595h10v10h-10zM540,595h10v10h-10zM550,595h10v10h-10zM560,595h10v10h-10zM600,595h10v10h-10zM640,595h10v10h-10zM650,595h10v10h-10zM660,595h10v10h-10zM180,605h10v10h-10zM210,605h10v10h-10zM270,605h10v10h-10zM280,605h10v10h-10zM300,605h10v10h-10zM310,605h10v10h-10zM350,605h10v10h-10zM360,605h10v10h-10zM380,605h10v10h-10zM410,605h10v10h-10zM430,605h10v10h-10zM460,605h10v10h-10zM470,605h10v10h-10zM500,605h10v10h-10zM510,605h10v10h-10zM540,605h10v10h-10zM560,605h10v10h-10zM580,605h10v10h-10zM590,605h10v10h-10zM620,605h10v10h-10zM180,615h10v10h-10zM220,615h10v10h-10zM240,615h10v10h-10zM260,615h10v10h-10zM270,615h10v10h-10zM280,615h10v10h-10zM300,615h10v10h-10zM320,615h10v10h-10zM330,615h10v10h-10zM370,615h10v10h-10zM390,615h10v10h-10zM400,615h10v10h-10zM430,615h10v10h-10zM440,615h10v10h-10zM470,615h10v10h-10zM480,615h10v10h-10zM500,615h10v10h-10zM530,615h10v10h-10zM540,615h10v10h-10zM550,615h10v10h-10zM580,615h10v10h-10zM600,615h10v10h-10zM610,615h10v10h-10zM620,615h10v10h-10zM630,615h10v10h-10zM650,615h10v10h-10zM180,625h10v10h-10zM250,625h10v10h-10zM270,625h10v10h-10zM350,625h10v10h-10zM360,625h10v10h-10zM370,625h10v10h-10zM450,625h10v10h-10zM550,625h10v10h-10zM570,625h10v10h-10zM610,625h10v10h-10zM630,625h10v10h-10zM650,625h10v10h-10zM660,625h10v10h-10zM180,635h10v10h-10zM210,635h10v10h-10zM220,635h10v10h-10zM230,635h10v10h-10zM240,635h10v10h-10zM250,635h10v10h-10zM260,635h10v10h-10zM280,635h10v10h-10zM310,635h10v10h-10zM320,635h10v10h-10zM360,635h10v10h-10zM400,635h10v10h-10zM410,635h10v10h-10zM420,635h10v10h-10zM430,635h10v10h-10zM440,635h10v10h-10zM490,635h10v10h-10zM500,635h10v10h-10zM510,635h10v10h-10zM530,635h10v10h-10zM540,635h10v10h-10zM580,635h10v10h-10zM590,635h10v10h-10zM600,635h10v10h-10zM610,635h10v10h-10zM620,635h10v10h-10zM650,635h10v10h-10zM660,635h10v10h-10zM200,645h10v10h-10zM220,645h10v10h-10zM260,645h10v10h-10zM270,645h10v10h-10zM280,645h10v10h-10zM310,645h10v10h-10zM320,645h10v10h-10zM330,645h10v10h-10zM340,645h10v10h-10zM390,645h10v10h-10zM400,645h10v10h-10zM440,645h10v10h-10zM450,645h10v10h-10zM480,645h10v10h-10zM490,645h10v10h-10zM500,645h10v10h-10zM530,645h10v10h-10zM540,645h10v10h-10zM550,645h10v10h-10zM570,645h10v10h-10zM580,645h10v10h-10zM620,645h10v10h-10zM660,645h10v10h-10zM180,655h10v10h-10zM190,655h10v10h-10zM210,655h10v10h-10zM220,655h10v10h-10zM240,655h10v10h-10zM260,655h10v10h-10zM270,655h10v10h-10zM280,655h10v10h-10zM290,655h10v10h-10zM300,655h10v10h-10zM340,655h10v10h-10zM350,655h10v10h-10zM360,655h10v10h-10zM380,655h10v10h-10zM390,655h10v10h-10zM400,655h10v10h-10zM420,655h10v10h-10zM440,655h10v10h-10zM450,655h10v10h-10zM490,655h10v10h-10zM500,655h10v10h-10zM520,655h10v10h-10zM530,655h10v10h-10zM540,655h10v10h-10zM550,655h10v10h-10zM580,655h10v10h-10zM600,655h10v10h-10zM620,655h10v10h-10zM650,655h10v10h-10zM660,655h10v10h-10zM190,665h10v10h-10zM210,665h10v10h-10zM220,665h10v10h-10zM260,665h10v10h-10zM270,665h10v10h-10zM280,665h10v10h-10zM300,665h10v10h-10zM310,665h10v10h-10zM330,665h10v10h-10zM360,665h10v10h-10zM370,665h10v10h-10zM390,665h10v10h-10zM400,665h10v10h-10zM440,665h10v10h-10zM450,665h10v10h-10zM460,665h10v10h-10zM500,665h10v10h-10zM570,665h10v10h-10zM580,665h10v10h-10zM620,665h10v10h-10zM630,665h10v10h-10zM180,675h10v10h-10zM210,675h10v10h-10zM220,675h10v10h-10zM230,675h10v10h-10zM240,675h10v10h-10zM250,675h10v10h-10zM260,675h10v10h-10zM280,675h10v10h-10zM290,675h10v10h-10zM330,675h10v10h-10zM350,675h10v10h-10zM380,675h10v10h-10zM400,675h10v10h-10zM410,675h10v10h-10zM420,675h10v10h-10zM430,675h10v10h-10zM440,675h10v10h-10zM450,675h10v10h-10zM470,675h10v10h-10zM490,675h10v10h-10zM530,675h10v10h-10zM540,675h10v10h-10zM550,675h10v10h-10zM580,675h10v10h-10zM590,675h10v10h-10zM600,675h10v10h-10zM610,675h10v10h-10zM620,675h10v10h-10zM630,675h10v10h-10zM660,675h10v10h-10zM180,685h10v10h-10zM190,685h10v10h-10zM200,685h10v10h-10zM220,685h10v10h-10zM270,685h10v10h-10zM280,685h10v10h-10zM290,685h10v10h-10zM330,685h10v10h-10zM340,685h10v10h-10zM350,685h10v10h-10zM360,685h10v10h-10zM370,685h10v10h-10zM380,685h10v10h-10zM400,685h10v10h-10zM420,685h10v10h-10zM460,685h10v10h-10zM470,685h10v10h-10zM490,685h10v10h-10zM500,685h10v10h-10zM510,685h10v10h-10zM530,685h10v10h-10zM540,685h10v10h-10zM550,685h10v10h-10zM570,685h10v10h-10zM600,685h10v10h-10zM650,685h10v10h-10zM660,685h10v10h-10zM180,695h10v10h-10zM190,695h10v10h-10zM210,695h10v10h-10zM230,695h10v10h-10zM240,695h10v10h-10zM250,695h10v10h-10zM260,695h10v10h-10zM270,695h10v10h-10zM290,695h10v10h-10zM310,695h10v10h-10zM320,695h10v10h-10zM330,695h10v10h-10zM340,695h10v10h-10zM360,695h10v10h-10zM370,695h10v10h-10zM380,695h10v10h-10zM390,695h10v10h-10zM410,695h10v10h-10zM430,695h10v10h-10zM440,695h10v10h-10zM450,695h10v10h-10zM500,695h10v10h-10zM510,695h10v10h-10zM520,695h10v10h-10zM530,695h10v10h-10zM540,695h10v10h-10zM560,695h10v10h-10zM580,695h10v10h-10zM590,695h10v10h-10zM620,695h10v10h-10zM210,705h10v10h-10zM260,705h10v10h-10zM270,705h10v10h-10zM290,705h10v10h-10zM300,705h10v10h-10zM320,705h10v10h-10zM340,705h10v10h-10zM370,705h10v10h-10zM400,705h10v10h-10zM460,705h10v10h-10zM490,705h10v10h-10zM530,705h10v10h-10zM540,705h10v10h-10zM550,705h10v10h-10zM570,705h10v10h-10zM610,705h10v10h-10zM630,705h10v10h-10zM650,705h10v10h-10zM190,715h10v10h-10zM210,715h10v10h-10zM240,715h10v10h-10zM250,715h10v10h-10zM260,715h10v10h-10zM280,715h10v10h-10zM290,715h10v10h-10zM300,715h10v10h-10zM340,715h10v10h-10zM370,715h10v10h-10zM380,715h10v10h-10zM400,715h10v10h-10zM410,715h10v10h-10zM420,715h10v10h-10zM440,715h10v10h-10zM490,715h10v10h-10zM500,715h10v10h-10zM530,715h10v10h-10zM540,715h10v10h-10zM590,715h10v10h-10zM600,715h10v10h-10zM620,715h10v10h-10zM660,715h10v10h-10zM180,725h10v10h-10zM200,725h10v10h-10zM210,725h10v10h-10zM270,725h10v10h-10zM290,725h10v10h-10zM300,725h10v10h-10zM320,725h10v10h-10zM340,725h10v10h-10zM410,725h10v10h-10zM420,725h10v10h-10zM430,725h10v10h-10zM470,725h10v10h-10zM480,725h10v10h-10zM510,725h10v10h-10zM550,725h10v10h-10zM580,725h10v10h-10zM590,725h10v10h-10zM600,725h10v10h-10zM610,725h10v10h-10zM630,725h10v10h-10zM650,725h10v10h-10zM220,735h10v10h-10zM240,735h10v10h-10zM300,735h10v10h-10zM330,735h10v10h-10zM340,735h10v10h-10zM390,735h10v10h-10zM420,735h10v10h-10zM430,735h10v10h-10zM460,735h10v10h-10zM470,735h10v10h-10zM480,735h10v10h-10zM500,735h10v10h-10zM540,735h10v10h-10zM590,735h10v10h-10zM620,735h10v10h-10zM630,735h10v10h-10zM640,735h10v10h-10zM660,735h10v10h-10zM180,745h10v10h-10zM210,745h10v10h-10zM270,745h10v10h-10zM280,745h10v10h-10zM310,745h10v10h-10zM340,745h10v10h-10zM350,745h10v10h-10zM360,745h10v10h-10zM370,745h10v10h-10zM380,745h10v10h-10zM390,745h10v10h-10zM430,745h10v10h-10zM480,745h10v10h-10zM510,745h10v10h-10zM520,745h10v10h-10zM550,745h10v10h-10zM570,745h10v10h-10zM590,745h10v10h-10zM600,745h10v10h-10zM610,745h10v10h-10zM630,745h10v10h-10zM660,745h10v10h-10zM180,755h10v10h-10zM190,755h10v10h-10zM200,755h10v10h-10zM210,755h10v10h-10zM240,755h10v10h-10zM250,755h10v10h-10zM280,755h10v10h-10zM320,755h10v10h-10zM330,755h10v10h-10zM340,755h10v10h-10zM390,755h10v10h-10zM460,755h10v10h-10zM500,755h10v10h-10zM510,755h10v10h-10zM520,755h10v10h-10zM540,755h10v10h-10zM550,755h10v10h-10zM560,755h10v10h-10zM580,755h10v10h-10zM590,755h10v10h-10zM600,755h10v10h-10zM660,755h10v10h-10zM180,765h10v10h-10zM190,765h10v10h-10zM230,765h10v10h-10zM250,765h10v10h-10zM260,765h10v10h-10zM270,765h10v10h-10zM280,765h10v10h-10zM290,765h10v10h-10zM320,765h10v10h-10zM330,765h10v10h-10zM350,765h10v10h-10zM360,765h10v10h-10zM370,765h10v10h-10zM400,765h10v10h-10zM430,765h10v10h-10zM440,765h10v10h-10zM450,765h10v10h-10zM460,765h10v10h-10zM470,765h10v10h-10zM480,765h10v10h-10zM490,765h10v10h-10zM500,765h10v10h-10zM510,765h10v10h-10zM520,765h10v10h-10zM540,765h10v10h-10zM580,765h10v10h-10zM590,765h10v10h-10zM600,765h10v10h-10zM630,765h10v10h-10zM650,765h10v10h-10zM180,775h10v10h-10zM190,775h10v10h-10zM200,775h10v10h-10zM210,775h10v10h-10zM240,775h10v10h-10zM260,775h10v10h-10zM290,775h10v10h-10zM300,775h10v10h-10zM370,775h10v10h-10zM380,775h10v10h-10zM390,775h10v10h-10zM400,775h10v10h-10zM410,775h10v10h-10zM430,775h10v10h-10zM470,775h10v10h-10zM480,775h10v10h-10zM500,775h10v10h-10zM510,775h10v10h-10zM540,775h10v10h-10zM560,775h10v10h-10zM600,775h10v10h-10zM610,775h10v10h-10zM620,775h10v10h-10zM640,775h10v10h-10zM190,785h10v10h-10zM200,785h10v10h-10zM220,785h10v10h-10zM230,785h10v10h-10zM280,785h10v10h-10zM290,785h10v10h-10zM300,785h10v10h-10zM310,785h10v10h-10zM330,785h10v10h-10zM340,785h10v10h-10zM350,785h10v10h-10zM370,785h10v10h-10zM390,785h10v10h-10zM400,785h10v10h-10zM410,785h10v10h-10zM470,785h10v10h-10zM500,785h10v10h-10zM530,785h10v10h-10zM550,785h10v10h-10zM570,785h10v10h-10zM590,785h10v10h-10zM610,785h10v10h-10zM630,785h10v10h-10zM660,785h10v10h-10zM190,795h10v10h-10zM230,795h10v10h-10zM240,795h10v10h-10zM270,795h10v10h-10zM330,795h10v10h-10zM340,795h10v10h-10zM350,795h10v10h-10zM370,795h10v10h-10zM420,795h10v10h-10zM430,795h10v10h-10zM440,795h10v10h-10zM460,795h10v10h-10zM480,795h10v10h-10zM510,795h10v10h-10zM540,795h10v10h-10zM570,795h10v10h-10zM600,795h10v10h-10zM620,795h10v10h-10zM640,795h10v10h-10zM650,795h10v10h-10zM660,795h10v10h-10zM190,805h10v10h-10zM200,805h10v10h-10zM210,805h10v10h-10zM250,805h10v10h-10zM270,805h10v10h-10zM290,805h10v10h-10zM340,805h10v10h-10zM360,805h10v10h-10zM370,805h10v10h-10zM400,805h10v10h-10zM410,805h10v10h-10zM420,805h10v10h-10zM430,805h10v10h-10zM440,805h10v10h-10zM450,805h10v10h-10zM480,805h10v10h-10zM490,805h10v10h-10zM500,805h10v10h-10zM520,805h10v10h-10zM560,805h10v10h-10zM590,805h10v10h-10zM610,805h10v10h-10zM630,805h10v10h-10zM180,815h10v10h-10zM190,815h10v10h-10zM200,815h10v10h-10zM240,815h10v10h-10zM300,815h10v10h-10zM310,815h10v10h-10zM330,815h10v10h-10zM370,815h10v10h-10zM380,815h10v10h-10zM390,815h10v10h-10zM400,815h10v10h-10zM410,815h10v10h-10zM420,815h10v10h-10zM430,815h10v10h-10zM440,815h10v10h-10zM460,815h10v10h-10zM490,815h10v10h-10zM500,815h10v10h-10zM530,815h10v10h-10zM580,815h10v10h-10zM590,815h10v10h-10zM600,815h10v10h-10zM610,815h10v10h-10zM620,815h10v10h-10zM650,815h10v10h-10zM660,815h10v10h-10zM260,825h10v10h-10zM280,825h10v10h-10zM290,825h10v10h-10zM310,825h10v10h-10zM330,825h10v10h-10zM340,825h10v10h-10zM400,825h10v10h-10zM440,825h10v10h-10zM450,825h10v10h-10zM480,825h10v10h-10zM520,825h10v10h-10zM530,825h10v10h-10zM560,825h10v10h-10zM580,825h10v10h-10zM620,825h10v10h-10zM650,825h10v10h-10zM660,825h10v10h-10zM180,835h10v10h-10zM190,835h10v10h-10zM200,835h10v10h-10zM210,835h10v10h-10zM220,835h10v10h-10zM230,835h10v10h-10zM240,835h10v10h-10zM260,835h10v10h-10zM280,835h10v10h-10zM290,835h10v10h-10zM320,835h10v10h-10zM340,835h10v10h-10zM350,835h10v10h-10zM380,835h10v10h-10zM390,835h10v10h-10zM400,835h10v10h-10zM420,835h10v10h-10zM440,835h10v10h-10zM480,835h10v10h-10zM500,835h10v10h-10zM520,835h10v10h-10zM530,835h10v10h-10zM560,835h10v10h-10zM570,835h10v10h-10zM580,835h10v10h-10zM600,835h10v10h-10zM620,835h10v10h-10zM640,835h10v10h-10zM660,835h10v10h-10zM180,845h10v10h-10zM240,845h10v10h-10zM280,845h10v10h-10zM300,845h10v10h-10zM310,845h10v10h-10zM320,845h10v10h-10zM350,845h10v10h-10zM370,845h10v10h-10zM380,845h10v10h-10zM390,845h10v10h-10zM400,845h10v10h-10zM440,845h10v10h-10zM460,845h10v10h-10zM470,845h10v10h-10zM480,845h10v10h-10zM490,845h10v10h-10zM500,845h10v10h-10zM510,845h10v10h-10zM540,845h10v10h-10zM560,845h10v10h-10zM570,845h10v10h-10zM580,845h10v10h-10zM620,845h10v10h-10zM650,845h10v10h-10zM180,855h10v10h-10zM200,855h10v10h-10zM210,855h10v10h-10zM220,855h10v10h-10zM240,855h10v10h-10zM260,855h10v10h-10zM270,855h10v10h-10zM290,855h10v10h-10zM360,855h10v10h-10zM380,855h10v10h-10zM400,855h10v10h-10zM410,855h10v10h-10zM420,855h10v10h-10zM430,855h10v10h-10zM440,855h10v10h-10zM450,855h10v10h-10zM460,855h10v10h-10zM470,855h10v10h-10zM480,855h10v10h-10zM490,855h10v10h-10zM500,855h10v10h-10zM510,855h10v10h-10zM530,855h10v10h-10zM540,855h10v10h-10zM550,855h10v10h-10zM580,855h10v10h-10zM590,855h10v10h-10zM600,855h10v10h-10zM610,855h10v10h-10zM620,855h10v10h-10zM630,855h10v10h-10zM650,855h10v10h-10zM660,855h10v10h-10zM180,865h10v10h-10zM200,865h10v10h-10zM210,865h10v10h-10zM220,865h10v10h-10zM240,865h10v10h-10zM270,865h10v10h-10zM300,865h10v10h-10zM330,865h10v10h-10zM340,865h10v10h-10zM370,865h10v10h-10zM390,865h10v10h-10zM410,865h10v10h-10zM420,865h10v10h-10zM460,865h10v10h-10zM500,865h10v10h-10zM540,865h10v10h-10zM590,865h10v10h-10zM610,865h10v10h-10zM620,865h10v10h-10zM640,865h10v10h-10zM660,865h10v10h-10zM180,875h10v10h-10zM200,875h10v10h-10zM210,875h10v10h-10zM220,875h10v10h-10zM240,875h10v10h-10zM260,875h10v10h-10zM270,875h10v10h-10zM280,875h10v10h-10zM290,875h10v10h-10zM320,875h10v10h-10zM340,875h10v10h-10zM360,875h10v10h-10zM400,875h10v10h-10zM430,875h10v10h-10zM450,875h10v10h-10zM490,875h10v10h-10zM500,875h10v10h-10zM510,875h10v10h-10zM530,875h10v10h-10zM580,875h10v10h-10zM600,875h10v10h-10zM610,875h10v10h-10zM620,875h10v10h-10zM630,875h10v10h-10zM660,875h10v10h-10zM180,885h10v10h-10zM240,885h10v10h-10zM260,885h10v10h-10zM280,885h10v10h-10zM310,885h10v10h-10zM360,885h10v10h-10zM380,885h10v10h-10zM410,885h10v10h-10zM450,885h10v10h-10zM460,885h10v10h-10zM490,885h10v10h-10zM500,885h10v10h-10zM510,885h10v10h-10zM520,885h10v10h-10zM530,885h10v10h-10zM540,885h10v10h-10zM550,885h10v10h-10zM590,885h10v10h-10zM650,885h10v10h-10zM180,895h10v10h-10zM190,895h10v10h-10zM200,895h10v10h-10zM210,895h10v10h-10zM220,895h10v10h-10zM230,895h10v10h-10zM240,895h10v10h-10zM290,895h10v10h-10zM300,895h10v10h-10zM310,895h10v10h-10zM330,895h10v10h-10zM350,895h10v10h-10zM360,895h10v10h-10zM380,895h10v10h-10zM400,895h10v10h-10zM410,895h10v10h-10zM440,895h10v10h-10zM450,895h10v10h-10zM460,895h10v10h-10zM490,895h10v10h-10zM500,895h10v10h-10zM510,895h10v10h-10zM520,895h10v10h-10zM530,895h10v10h-10zM540,895h10v10h-10zM560,895h10v10h-10zM580,895h10v10h-10zM600,895h10v10h-10zM610,895h10v10h-10zM620,895h10v10h-10zM630,895h10v10h-10zM650,895h10v10h-10zM660,895h10v10h-10z" fill="#020617"/>

  <rect x="48" y="1034" width="754" height="118" rx="20" fill="#f8fafc" stroke="#e2e8f0" stroke-width="2"/>
  <text x="76" y="1072" font-family="Arial, Helvetica, sans-serif" font-size="23" font-weight="900" fill="#0f172a">VCB-01</text>
  <text x="76" y="1102" font-family="Arial, Helvetica, sans-serif" font-size="17" fill="#334155">VCB-01 First Aid Box</text>
  <text x="76" y="1127" font-family="Arial, Helvetica, sans-serif" font-size="17" fill="#334155">Area: Production</text>
  <text x="76" y="1152" font-family="Arial, Helvetica, sans-serif" font-size="17" fill="#334155">Location: VCB Entrance</text>

  <text x="425" y="1212" text-anchor="middle" font-family="Arial, Helvetica, sans-serif" font-size="15" font-weight="700" fill="#64748b">Opens first-aid-box-inspection.vercel.app</text>
</svg>
